<svg xmlns="http://www.w3.org/2000/svg" x="0" y="0" viewBox="0 0 231 231">
	<path d="M34.3 33.8c45.1-45.1 118.2-45.1 163.3 0s44.1 118.2-1 163.3-118.2 45.1-163.3 0c-45.1-45-44.1-118.2 1-163.3z" style="fill:#7ffff2" />
	<path d="m54.5 188.1-10.7 11.4-9.4-8.8 2.7-2.9 4.3 4.1 1.9-2.1-3.2-3 2.7-2.9 3.2 3 3.4-3.6 5.1 4.8zM42 175.3l4.2 5.5-15.7 5.2-6-7.9 9.2-13.8 4.2 5.5-1.6 2.3 3.1 4 2.6-.8zm-6.4 2.2-1.6-2-2.3 3.4 3.9-1.4zM26.7 149.4l2.3 4.7-3 5.2 4.3-2.1 3 6.2-14.1 6.8-2.2-4.5 3.2-5.6-4.8 2.3-3-6.2 14.3-6.8zM10.6 151.3l-2-7.4c-.7-2.7-.5-4.9.5-6.8 1.1-1.9 2.7-3.1 4.8-3.6 1.3-.4 2.7-.4 4 0 1.4.3 2.5 1.1 3.5 2.2s1.7 2.6 2.2 4.4l2 7.3-15 3.9zm4-8.3 3.5-1v-.2c-.2-.8-.5-1.3-.9-1.6-.4-.3-.9-.3-1.5-.2-1.2.3-1.6 1.1-1.2 2.5l.1.5zM20.9 125.3l.5 6.9-16-4.3-.7-9.9 15.2-6.5.5 6.9-2.6 1.1.4 5.1 2.7.7zm-6.4-1.7-.2-2.6-3.8 1.6 4 1zM21.3 104.5c-.3 2.2-1.2 4-3 5.4-1.7 1.4-3.7 1.9-6 1.7-2.2-.3-4-1.2-5.4-3s-1.9-3.7-1.7-5.9c.3-2.2 1.2-4 3-5.4 1.7-1.4 3.7-1.9 5.9-1.7 2.2.3 4.1 1.2 5.4 3 1.5 1.7 2.1 3.6 1.8 5.9zm-10.1-1.2c-.1.4.1.8.3 1.2.3.3.6.5 1.1.6.5.1.9 0 1.2-.3.3-.3.5-.6.6-1 .1-.4-.1-.8-.3-1.2-.3-.3-.6-.5-1.1-.6-.5-.1-.9 0-1.2.3s-.5.6-.6 1zM14.8 70.7l4 3.3c-1.8.5-3 1.5-3.5 2.9-.3.8-.1 1.3.4 1.5.2.1.4 0 .7-.2.3-.2.8-.7 1.6-1.6.9-1 1.6-1.7 2.2-2.1.6-.5 1.2-.8 1.9-.8.7-.1 1.4 0 2.1.3 1.6.6 2.5 1.6 2.9 3.1.4 1.5.2 3.4-.7 5.7-1 2.6-2.1 4.7-3.6 6.3l-4.3-3.4c.9-.2 1.7-.6 2.3-1.1.7-.5 1.1-1.1 1.4-1.7.1-.3.1-.6 0-.9s-.2-.4-.5-.5c-.2-.1-.5-.1-.7.1-.3.1-.7.6-1.4 1.3-.6.7-1.1 1.2-1.6 1.6-.5.4-1.1.7-1.8.9-.7.2-1.5.1-2.3-.2-1.6-.6-2.6-1.6-3-3.1-.4-1.5-.2-3.4.7-5.7.8-2.3 1.9-4.2 3.2-5.7zM32.4 61l3.4 1.9-6.3 11.3-13.7-7.6 6.3-11.3 3.4 1.9-3 5.3 1.7.9 2.1-3.7 3.4 1.9-2.1 3.7 1.7.9 3.1-5.2z" />
	<path d="m40 57.5-4.4 5.3L27 48.6l6.3-7.6 15.5 5.9-4.4 5.3-2.6-1-3.3 3.9 1.5 2.4zm-3.5-5.7 1.6-2-3.8-1.5 2.2 3.5zM52.3 26.6l.4 5.8c-1.5.4-2.7.9-3.6 1.7-.6.5-1 1.1-1.1 1.7-.1.6 0 1.2.5 1.7.8 1 1.9.9 3.1-.1l-1.6-2 5.4-4.4 5.4 6.5c-2.1 1.9-3.5 3.2-4.2 3.8-3 2.4-5.5 3.5-7.7 3.2-2.2-.3-4-1.3-5.3-3-.9-1.2-1.5-2.4-1.8-3.8-.3-1.4-.1-2.8.5-4.1.6-1.4 1.6-2.6 2.9-3.7 1-.8 2.1-1.5 3.4-2.1 1.1-.6 2.4-1 3.7-1.2zM68.2 15.4l3.4 6.2c1.5 2.7 1.9 5.1 1.2 7-.7 2-2 3.5-3.7 4.4-1.3.7-2.7 1.1-4.2 1-1.5 0-2.8-.5-3.9-1.3s-2.1-2.2-3.1-3.9l-3.3-5.9 6.1-3.3 3.5 6.3c.4.7.7 1.1.9 1.2s.4.1.7 0c.3-.2.5-.5.4-.8-.1-.4-.3-1-.8-1.7l-3.2-5.8 6-3.4zM77.9 28.3l-5.2-14.8 6.5-2.3 3.9 11.1 5.7-2 1.3 3.7-12.2 4.3zM91.3 23.8l-3-15.4 6.8-1.3 2.2 11.5 6-1.2.7 3.9-12.7 2.5zM111.9 20.8l.4-15.6 6.9.2-.2 11.7 6.1.2-.1 3.9-13.1-.4zM133.3 22.9c-2.2-.4-3.9-1.6-5.1-3.4-1.2-1.8-1.6-3.9-1.2-6.1.4-2.2 1.5-3.9 3.4-5.2 1.8-1.2 3.8-1.6 6-1.2 2.2.4 3.9 1.5 5.2 3.4 1.2 1.8 1.6 3.8 1.2 6.1-.4 2.2-1.6 3.9-3.4 5.2-1.9 1.2-3.9 1.7-6.1 1.2zm1.9-9.9c-.4-.1-.8 0-1.2.2s-.6.6-.7 1.1c-.1.5 0 .9.2 1.2.2.4.6.6 1 .7.4.1.8 0 1.2-.2.3-.2.6-.6.7-1.1.1-.5 0-.9-.2-1.2-.2-.4-.6-.7-1-.7zM144.6 16.2l2.4-6.5 13.1 4.8-2.4 6.5-3.3-1.2-3 8.2-6.5-2.4 3-8.2-3.3-1.2zM159.1 21.6l3.3-6.1 12.2 6.6-3.3 6.1-3.1-1.7-4.2 7.7-6.1-3.3 4.2-7.7-3-1.6zM181 41.5l-2.4 3.1-10.3-7.9 9.5-12.4 10.3 7.9-2.4 3.1-4.8-3.7-1.2 1.5 3.4 2.6-2.4 3.1-3.4-2.6-1.2 1.5 4.9 3.8zM191.3 34.9l6.9 7.5c1.2 1.3 1.8 2.6 1.9 4 0 1.3-.4 2.5-1.4 3.4-1.1 1-2.3 1.4-3.8 1-.3 2.5-1.4 5-3.4 7.3l-4.9-5.3c1.4-1.4 2.2-2.6 2.6-3.6s.2-1.8-.4-2.5l-4.3 3.9-4.7-5.1 11.5-10.6zm2.3 7.3-2.2 2 .1.1c.8.9 1.6 1 2.3.4.3-.3.5-.6.5-1 .1-.4-.1-.8-.5-1.2l-.2-.3zM197.2 67.4l-3.7-5.8 5.7-3.7 4.2-9.8 3.8 5.9-1.7 4 4.3.1 3.8 5.9-10.6-.2-5.8 3.6zM203.5 79.7l14.8-5.1 4.2 12.2-3.7 1.3-1.9-5.6-2.7.9 1.4 4.2-3.7 1.3-1.4-4.2-4.7 1.6-2.3-6.6zM208.9 100.2c-.4-2.2.1-4.2 1.4-6 1.3-1.8 3-2.9 5.3-3.3 2.2-.4 4.2.1 6 1.4 1.8 1.3 2.9 3 3.3 5.2.4 2.2-.1 4.2-1.4 6-1.3 1.8-3 2.9-5.3 3.2-2.2.4-4.2-.1-6-1.3-1.8-1.3-2.9-3-3.3-5.2zm10-1.7c-.1-.4-.3-.8-.6-1-.4-.2-.8-.3-1.2-.2s-.8.3-1.1.6c-.3.3-.3.7-.3 1.2.1.4.3.8.6 1 .4.2.8.3 1.2.2.5-.1.8-.3 1.1-.6.3-.4.4-.8.3-1.2zM225.9 125.5l-7.1-.1c-3.1-.1-5.3-.9-6.7-2.5-1.4-1.6-2-3.4-2-5.5 0-1.5.4-2.9 1.2-4.2.8-1.3 1.8-2.2 3.1-2.7s2.9-.7 5-.7l6.8.1-.1 6.9-7.2-.1c-.8 0-1.3 0-1.5.2-.2.1-.3.3-.3.6 0 .4.2.6.5.7.4.1 1 .2 1.9.2l6.6.1-.2 7zM206.8 142.6l1.1-5.1 5.5-2.3-4.7-1 1.4-6.8 15.3 3.2-1 4.8-5.9 2.5 5.2 1.1-1.4 6.8-15.5-3.2zM220.6 151l-2.9 7.1c-1.1 2.6-2.6 4.2-4.6 5.1-2 .8-4 .8-6 0-1.3-.5-2.3-1.3-3.2-2.4-.9-1.1-1.4-2.4-1.5-3.9-.1-1.5.2-3.1.9-4.8l2.9-7 14.4 5.9zm-8.2 4.1-3.4-1.4-.1.2c-.3.8-.4 1.4-.3 1.8.1.5.5.8 1.1 1.1 1.1.5 1.9 0 2.5-1.3l.2-.4zM196.6 165.2l3.9-5.8 10 13.2-5.5 8.2-16-4.2 3.8-5.8 2.7.7 2.8-4.2-1.7-2.1zm4.1 5.3-1.4 2.1 3.9 1.1-2.5-3.2zM196.2 181.1l5 4.8-9.5 10.1-5-4.8 2.4-2.5-6.3-6 4.8-5 6.3 6 2.3-2.6zM179 186.1l9.9 12.1-5.3 4.4-9.9-12.1 5.3-4.4zM165.2 195.8c1.9-1.2 3.9-1.5 6.1-.9 2.1.5 3.8 1.8 5 3.7 1.2 1.9 1.5 4 1 6.1-.5 2.1-1.7 3.8-3.6 5-1.9 1.2-3.9 1.5-6.1 1-2.1-.5-3.8-1.8-5-3.7-1.2-1.9-1.5-4-1-6.1.5-2.2 1.7-3.9 3.6-5.1zm5.3 8.7c.4-.2.6-.6.7-1 .1-.4 0-.8-.2-1.2-.2-.4-.6-.7-1-.8s-.8-.1-1.2.2c-.4.2-.6.6-.7 1-.1.4 0 .8.2 1.2.2.4.6.7 1 .8.4.1.8.1 1.2-.2zM142.3 206.4l4.9-1.9 4.9 3.4-1.7-4.5 6.5-2.4 5.5 14.6-4.6 1.8-5.3-3.7 1.9 4.9-6.5 2.5-5.6-14.7z" />
	<path style="fill:#fff" d="M142.7 113.3s-5-36.4-47.8-40c-19-1.6-31.6 6-39.7 15-8.8 9.7-13.4 22.6-13.4 35.7l-.3 80.6c20 16.6 46 26.4 74 26.4 15.8 0 30.9-3.2 44.6-9L148 146.6l-5.3-33.3z" />
	<path d="M208 153c-.2 1-1.5 1.1-2 .2-1.1-2.2-4.2-4.7-12.5-4.9-6.3-1.8-12.2-3.3-17.7-4.5-1.4-.3-2.8-.6-4.1-.9-31.1-6.5-49.3-4.3-60.3-1.3l-.7-.2c-.2 0-.4-.1-.6-.1l-4.7-3.3 9.6-1.1c.7-.1 1.5-.2 2.2-.5 4.1-1.6 7.9-3.8 11.3-6.6l8.7-7.2c1.5-1.3 3.5-1.9 5.4-1.7 63.4 7.9 67 24.8 65.4 32.1z" style="fill:#f4a726" />
	<path d="M193.6 148.4h-.7c-13.9 0-40.3 3.6-45.2 4.3-.6.1-.8.1-.8.1l-36.1-11.3c.5.1 1.1.1 1.6-.1 11.1-2.9 29.9-4.5 59.5 1.6 1.4.3 2.7.6 4.1.9 5.4 1.2 11.3 2.7 17.6 4.5z" style="fill:#7b4020" />
	<path d="M95.6 107.8c5.9 8.3 4.8 8 0 15.5-1.5 2.3-3.3 3.3-5.1 3.8-5.9 1.4-11-4.4-9.6-10.3 1.9-8.2 10.4-15.2 14.7-9z" style="fill:#040000" />
</svg>