<svg xmlns="http://www.w3.org/2000/svg" xmlns:xlink="http://www.w3.org/1999/xlink" viewBox="0 0 42.58 35.7"><defs><style>.f8c6af65-bf88-4a05-add9-dbed3e72ddec{fill:#303131;}.e1245bb0-b776-4325-8c5d-2409771aa40a{fill:#fff;}.eaf7bde6-da16-40a5-a785-655c003cbb4d{fill:none;stroke-linecap:square;stroke-miterlimit:10;stroke-width:1.5px;stroke:url(#fce029d3-2b9a-46f8-824b-7f331545e0f8);}.e1a17a71-afb3-42d0-890d-6943b280ce5a{fill:#172b86;}</style><linearGradient id="fce029d3-2b9a-46f8-824b-7f331545e0f8" x1="11.6" y1="8.44" x2="36.09" y2="8.44" gradientTransform="matrix(-1, 0, 0, 1, 45.13, 0)" gradientUnits="userSpaceOnUse"><stop offset="0" stop-color="#303131"/><stop offset="0" stop-color="#172b86"/><stop offset="1" stop-color="#303131"/></linearGradient></defs><title>资源 43</title><g id="f77daa4e-33f7-4de7-b468-477433c2e506" data-name="图层 2"><g id="abcb7180-4b90-4bb7-8b56-665e760780b2" data-name="图层 1"><rect class="f8c6af65-bf88-4a05-add9-dbed3e72ddec" y="16.12" width="19.58" height="19.58"/><polygon class="e1245bb0-b776-4325-8c5d-2409771aa40a" points="4.36 18.3 8.72 18.3 8.72 20.48 6.54 20.48 6.54 22.66 8.72 22.66 8.72 29.19 6.54 29.19 6.54 31.37 8.72 31.37 8.72 33.55 4.36 33.55 4.36 31.37 2.18 31.37 2.18 27.02 4.36 27.02 4.36 29.19 6.54 29.19 6.54 22.66 4.36 22.66 4.36 24.84 2.18 24.84 2.18 20.48 4.36 20.48 4.36 18.3"/><polygon class="e1245bb0-b776-4325-8c5d-2409771aa40a" points="10.89 18.3 15.25 18.3 15.25 20.48 17.43 20.48 17.43 24.84 15.25 24.84 15.25 22.66 13.07 22.66 13.07 29.19 15.25 29.19 15.25 27.02 17.43 27.02 17.43 31.37 15.25 31.37 15.25 33.55 10.89 33.55 10.89 31.37 13.07 31.37 13.07 29.19 10.89 29.19 10.89 22.66 13.07 22.66 13.07 20.48 10.89 20.48 10.89 18.3"/></g><g id="a8762762-7f49-49ba-911f-66c2ac021ab3" data-name="图层 4"><path class="eaf7bde6-da16-40a5-a785-655c003cbb4d" d="M9.79,10.18c0-12.06,23-15,23,5.94"/></g><g id="a056d4c6-7cc7-4d44-b798-98d855e15d1b" data-name="图层 3"><path class="e1a17a71-afb3-42d0-890d-6943b280ce5a" d="M42.44,24.25a9.8,9.8,0,1,1-8-8A9.81,9.81,0,0,1,42.44,24.25Zm-3.26,1.66a6.42,6.42,0,0,0-2.84-5.32,1,1,0,0,0-1.43.44v0a1,1,0,0,0,.35,1.21,4.4,4.4,0,0,1,.1,7.21,1,1,0,0,1-1.56-.8V26.9a1,1,0,0,0-1-1h0a1,1,0,0,0-1,1v1.78a1,1,0,0,1-1.56.81,4.39,4.39,0,0,1-1.84-3.58,4.46,4.46,0,0,1,1.92-3.64,1,1,0,0,0,.36-1.21v0a1,1,0,0,0-1.43-.43,6.4,6.4,0,0,0,1.85,11.48,1,1,0,0,1,.71.94,1,1,0,0,0,1,1h0a1,1,0,0,0,1-1,1,1,0,0,1,.7-.94A6.41,6.41,0,0,0,39.18,25.91Z"/><path class="e1245bb0-b776-4325-8c5d-2409771aa40a" d="M36.34,20.59a6.4,6.4,0,0,1-1.85,11.49,1,1,0,0,0-.7.94,1,1,0,0,1-1,1h0a1,1,0,0,1-1-1,1,1,0,0,0-.71-.94A6.4,6.4,0,0,1,29.23,20.6a1,1,0,0,1,1.43.43v0a1,1,0,0,1-.36,1.21,4.46,4.46,0,0,0-1.92,3.64,4.39,4.39,0,0,0,1.84,3.58,1,1,0,0,0,1.56-.81V26.9a1,1,0,0,1,1-1h0a1,1,0,0,1,1,1v1.78a1,1,0,0,0,1.56.8,4.4,4.4,0,0,0-.1-7.21,1,1,0,0,1-.35-1.21v0A1,1,0,0,1,36.34,20.59Z"/><path class="f8c6af65-bf88-4a05-add9-dbed3e72ddec" d="M7.23,12.53v1a.62.62,0,0,0,.62.62h.48v1.27a.34.34,0,0,0,.34.34h.18a.34.34,0,0,0,.34-.34V14.18h1.19v1.27a.35.35,0,0,0,.35.34h.17a.35.35,0,0,0,.35-.34V14.18h.47a.62.62,0,0,0,.62-.62v-1A2.35,2.35,0,0,0,10,10.18H9.58A2.35,2.35,0,0,0,7.23,12.53Z"/></g></g></svg>