<svg xmlns="http://www.w3.org/2000/svg" x="0px" y="0px" viewBox="0 0 231 231" style="enable-background:new 0 0 231 231;">
	<style type="text/css">
	.st0{fill:#E95252;}
	.st1{fill:#BFBFBF;}
	.st2{fill:#FFFFFF;}
	.st3{fill:#FCE5E5;}
	.st4{fill:#6A0000;}
	.st5{fill:none;stroke:#000000;stroke-width:5;stroke-linecap:round;stroke-miterlimit:10;}
	.st6{fill:#8DB9FC;}
	.st7{fill:none;stroke:#000000;stroke-width:4;stroke-linecap:round;stroke-linejoin:round;}
	.st8{fill:#DBDBDB;}
	.st9{fill:#0099AA;}
	.st10{fill:#B33F3F;}
</style>
	<path class="st0" d="M33.8,33.8c45.1-45.1,118.2-45.1,163.3,0s45.1,118.2,0,163.3s-118.2,45.1-163.3,0l0,0
	C-11.3,152.1-11.3,78.9,33.8,33.8L33.8,33.8z" />
	<g>
		<polygon class="st1" points="115.3,219.5 97,188.7 115.5,184.5 134,188.7 115.7,219.5 	" />
		<path class="st2" d="M115.5,185l17.8,4l-10.4,17.5l-7.3,12.4l-7.3-12.4L97.7,189L115.5,185 M115.6,184h-0.1l-19.3,4.3l11.1,18.7
		l7.7,13h1l7.7-13l11.1-18.7L115.6,184L115.6,184z" />
	</g>
	<path class="st3" d="M115.5,51.8C36.2,56.7,29.4,157.6,105,178.4v14.1c-19.2,1.8-37.7,8.3-53.7,19c38.9,26,89.6,26,128.5,0
	c-16-10.7-34.5-17.3-53.7-19v-14.1C212.1,148.6,183.1,52.9,115.5,51.8L115.5,51.8z" />
	<path class="st4" d="M87,108.3c-4.5,0-6.7,5.4-3.6,8.5c3.1,3.2,8.5,0.9,8.5-3.5C92,110.5,89.8,108.3,87,108.3L87,108.3L87,108.3z
	 M140.3,108.3c-4.5,0-6.7,5.4-3.6,8.5c3.1,3.2,8.5,0.9,8.5-3.5C145.3,110.5,143.1,108.3,140.3,108.3L140.3,108.3L140.3,108.3z" />
	<line class="st5" x1="74.7" y1="108.2" x2="97.6" y2="108.2" />
	<line class="st5" x1="129.3" y1="108.2" x2="152.2" y2="108.2" />
	<line class="st5" x1="68.2" y1="97.4" x2="101.3" y2="97.1" />
	<line class="st5" x1="125.5" y1="97.6" x2="156.2" y2="97.1" />
	<path class="st6" d="M41.7,45.9l-12,27.7c-0.9,2-1.5,4.2-1.8,6.4l-3.2,22.3c-0.7,4.9-0.4,10,0.8,14.8l1.8,6.8c0.4,1.6,2.5,2,3.5,0.7
	l0,0c1.1-1.5,3.4-0.9,3.6,0.9c0.5,3.3,1.1,7.8,1.6,11.5c0.6,4.1,2.2,8.1,4.7,11.5l23.7,32.5c1.4,2,4.5,1.6,5.4-0.6l3.3-7.8
	c0.8-2,3.4-2.5,4.9-0.9l4.9,5.2c1.1,1.1,2.9,0.3,2.8-1.3l-0.5-4.6c-0.1-1.2,0-2.5,0.5-3.6l0,0c0.5-1.4,0.1-2.9-0.9-3.9l-11.3-10.3
	c-1.4-1.3-2.2-3.1-2.3-4.9l-0.3-7.9l8.7,4.8l-12-12.6c-2.4-2.5-4.2-5.4-5.5-8.6l-5-12.9l-3.4-8.6c-0.4-0.9,0.9-1.5,1.4-0.7l2.2,3.6
	c0.4,0.7,1.5,0.4,1.5-0.4l-0.6-12.3c-0.1-1.6,2.1-2.2,2.8-0.7l2,4c0.6,1.2,2.4,0.7,2.3-0.6l-0.5-11.2c-0.1-1.7,0.5-3.4,1.6-4.8
	l2.9-3.7c1.1-1.3,3.2-0.4,3,1.3l-1.7,14.4l9,17l3.7-23.6c0.7-4.6,1.8-9.2,3.2-13.6l0.6-1.9c0.4-1.2,2.1-0.9,2.1,0.3l0.3,25l6.1,11.7
	l-0.3-21.8l7.6,29.8l6.9,7.6l3.3-14.5l-1.8-21.5l4.3,29.1l8.4-44.7l-5.1,45c0,0.3,0,0.5,0.1,0.8l1.4,5.4l12.3-25.1l6.2-24.7
	l2.5,32.7l5.2-10.1c3.1-6,4.1-12.5,7.6-18.9v0l7.6,34.5l1.9,10.1c0.2,1.3,2.1,1.4,2.5,0.1l4.8-16.4c0.4-1.2,0.5-2.5,0.5-3.8
	l-0.1-4.7c0-0.9,1.2-1,1.4-0.2l2.7,10.6c1.4,5.5,0.1,11.3-3.5,15.6l-11.9,14.2c-0.4,0.5-0.8,0.9-1.3,1.3l-12.8,10.9
	c-0.9,0.8,0,2.3,1.1,1.8l11.3-5.4c0.8-0.4,1.6,0.7,0.9,1.3L142,162.7c-0.8,0.8,0,2.3,1.1,2l10.4-2.8c0.2,0,0.3-0.1,0.5-0.2l8-5.3
	l-16.2,14.9l-5.9,7.9c-0.6,0.8-0.1,2,0.9,2.1l11.8,1.2c0.5,0,0.9-0.2,1.2-0.5l11.4-15c0.5-0.7,1.6,0,1.1,0.7l-2.3,4.1
	c-0.9,1.5,0.8,3.2,2.3,2.4l9.2-5l14.2-22.7c3.6-5.7,6.1-12,7.5-18.6l1.2-5.6c1.2-5.6,1.5-11.3,1-17L198,87.6
	c-0.6-6.7-2.4-13.3-5.2-19.4l-10-21.3c-0.9-1.9-2.1-3.7-3.5-5.2l-11.2-12.3c-1.2-1.4-2.7-2.6-4.2-3.6l-12-7.7
	c-4.4-2.8-9.6-3.9-14.7-3l-2,0.3c-3.9,0.6-8,0.2-11.6-1.4l-7.4-3.2c-1-0.4-2.1-0.8-3.2-1.1L107,8.4c-3.9-1-7.9-0.8-11.7,0.5
	l-11.7,3.9c-2.1,0.7-4.1,1.7-5.9,3L48.6,37.3C45.6,39.5,43.2,42.5,41.7,45.9z" />
	<line class="st7" x1="108.7" y1="153.1" x2="120.2" y2="153.1" />
	<line class="st8" x1="115" y1="220" x2="116" y2="220" />
	<path class="st8" d="M114.9,220.2l-17.7-6.7l1.2,16.2c11.3,1.7,22.9,1.7,34.2,0l1.2-16.2l-17.7,6.7H114.9z" />
	<g>
		<path class="st2" d="M116.1,220.7c-0.1,0-0.3-0.1-0.4-0.2c-0.1-0.2-0.2-0.4,0-0.6l18.8-32c0.1-0.2,0.3-0.2,0.4-0.2
		c0.1,0,0.1,0,0.2,0l30.2,12.1c0.5,0.2,0.8,0.7,0.8,1.2c0,0.5-0.3,1-0.8,1.2l-49,18.5C116.2,220.7,116.2,220.7,116.1,220.7z" />
		<path class="st2" d="M134.9,188.2l30.2,12.1c0.6,0.3,0.6,1.1,0,1.4l-49,18.5L134.9,188.2 M134.9,187.2c-0.3,0-0.7,0.2-0.9,0.5
		l-18.8,32c-0.2,0.4-0.2,0.8,0.1,1.2c0.2,0.2,0.5,0.4,0.8,0.4c0.1,0,0.2,0,0.4-0.1l49-18.5c0.7-0.3,1.1-0.9,1.1-1.6
		c0-0.7-0.4-1.4-1.1-1.6l-30.2-12.1C135.1,187.2,135,187.2,134.9,187.2L134.9,187.2z" />
	</g>
	<line class="st2" x1="138" y1="211.9" x2="134.7" y2="213.2" />
	<g>
		<path class="st2" d="M114.9,220.7c-0.1,0-0.1,0-0.2,0l-49-18.5c-0.5-0.2-0.8-0.6-0.8-1.2c0-0.5,0.3-1,0.8-1.2l30.2-12.1
		c0.1,0,0.1,0,0.2,0c0.2,0,0.3,0.1,0.4,0.2l18.8,32c0.1,0.2,0.1,0.4,0,0.6C115.2,220.7,115,220.7,114.9,220.7z" />
		<path class="st2" d="M96.1,188.2l18.8,32l-49-18.5c-0.6-0.2-0.6-1.1,0-1.4L96.1,188.2 M96.1,187.2c-0.1,0-0.2,0-0.4,0.1l-30.2,12.1
		c-0.7,0.3-1.1,0.9-1.1,1.6c0,0.7,0.4,1.4,1.1,1.6l49,18.5c0.1,0,0.2,0.1,0.4,0.1c0.3,0,0.6-0.1,0.8-0.4c0.3-0.3,0.3-0.8,0.1-1.2
		l-18.8-32C96.8,187.4,96.5,187.2,96.1,187.2L96.1,187.2z" />
	</g>
	<path class="st9" d="M97.2,214.1l0-0.6l-0.9-0.4l-3.3-1.2l-27-10.2l-16,8.5l0.5,0.7c14.6,10,31,16.2,47.9,18.7L97.2,214.1z" />
	<path class="st9" d="M181,210.2l-0.5,0.7c-14.6,10-31,16.2-47.9,18.7l1.2-15.6l0-0.6l0.9-0.4l3.3-1.2l27-10.2L181,210.2z" />
	<path class="st10" d="M114.4,222.5l-2.4,4.3l-2,4c0.6,0,1.3,0.1,1.9,0.1l0.2-0.6l3.4-6.6L114.4,222.5z" />
	<path class="st10" d="M117.6,223.3l-0.2,0.1l-1.2,0.7l0,0l3.2,6.3l0.2,0.6c0.6,0,1.3-0.1,1.9-0.1l-2-4L117.6,223.3z" />
	<polygon class="st0" points="133.8,213.5 133.8,214.1 122.3,220.6 121,221.4 118.6,222.8 118.6,222.8 117.7,223.2 117.6,223.3 
	117.4,223.4 116.2,224.1 116.2,224.1 115.5,224.5 115.2,224.3 113.8,223.5 113.7,223.5 113.2,223.2 110,221.4 108.7,220.6 
	97.2,214.1 97.2,213.5 97.4,213.6 103,215.7 103.7,216 111.6,220.3 113,220.5 119,220.5 119.4,220.3 127.3,216 128,215.7 
	133.6,213.6 " />
	<path class="st0" d="M116,222.8l-0.1,0l-2.6,1l-10.6,4.1c-0.1,0-0.3,0.1-0.4,0.1h-3.4c-0.2,0-0.5-0.1-0.7-0.2l-2.7-2
	c-0.5-0.4-0.6-1.2-0.1-1.7l0.9-0.9c0.2-0.2,0.4-0.3,0.6-0.3l14.2-2.4c0.2,0,0.5,0,0.7,0.1l0.9,0.4l-13.2,2.8
	c-0.5,0.1-0.9,0.6-0.9,1.1l0,0c0,0.6,0.5,1.1,1.1,1.1h4.7c0.1,0,0.2,0,0.3-0.1l12.1-3.8L116,222.8z" />
	<path class="st0" d="M135.5,225.8l-2.7,2c-0.2,0.1-0.4,0.2-0.7,0.2h-3.4c-0.1,0-0.3,0-0.4-0.1l-10.4-4c-0.1,0-0.2-0.1-0.3-0.2
	l-0.2-0.2l0.3-0.2l0.8-0.5h0l9.9,3.1c0.1,0,0.2,0,0.3,0h2.7c0.6,0,1.1-0.5,1.1-1.1c0-0.5-0.4-1-0.9-1.1l-10.9-2.3l1.2-0.7l12.2,2.1
	c0.2,0,0.4,0.2,0.6,0.3l0.8,0.8C136.1,224.6,136,225.4,135.5,225.8z" />
</svg>