<svg xmlns="http://www.w3.org/2000/svg" xml:space="preserve" x="0" y="0"
    style="enable-background:new 0 0 231 231" version="1.1" viewBox="0 0 231 231"><style>.st1{fill:#fff}</style><linearGradient id="SVGID_1_" x1="46.487" x2="189.114" y1="208.49" y2="18.321" gradientTransform="matrix(1 0 0 -1 0 232)" gradientUnits="userSpaceOnUse"><stop offset="0" style="stop-color:#001e43"/><stop offset=".163" style="stop-color:#220942"/><stop offset=".257" style="stop-color:#300041"/><stop offset=".35" style="stop-color:#290340"/><stop offset=".483" style="stop-color:#170d3c"/><stop offset=".603" style="stop-color:#001838"/><stop offset=".673" style="stop-color:#051637"/><stop offset=".76" style="stop-color:#151232"/><stop offset=".855" style="stop-color:#2e0a2c"/><stop offset=".928" style="stop-color:#460225"/></linearGradient><path d="M34.3 33.8c45.1-45.1 118.2-45.1 163.3 0s44.1 118.2-1 163.3-118.2 45.1-163.3 0c-45.1-45-44.1-118.2 1-163.3z" style="fill:url(#SVGID_1_)"/><path d="m72.1 197.8 4.5 2.5-2 13.2 1 .5-1.9 3.4-7.4-4.1 1.9-3.4 1.1.6 1.7-7.1-5.5 5 1.1.6-1.9 3.4-6.2-3.4 1.9-3.4 1.1.6 1.2-7.4-5.1 5.2 1 .6-1.9 3.4-5.8-3.2 1.9-3.4 1 .5 10.2-8.8 4.4 2.5-1.1 6.6 4.8-4.4zM52 183.9l6.3 5.9-2.7 2.9-.9-.8-5.8 6.2.9.9-2.7 2.9-6.3-5.9 2.7-2.9.8.7L46 192l-2.8-2.6-1.7 1.8.8.7-2.7 2.9-6.3-5.9L36 186l.9.8 5.8-6.2-.9-.8 2.7-2.9 6.3 5.9-2.7 2.9-.8-.7-1.8 2 2.8 2.6 1.8-2-.8-.7 2.7-3zM38 168l5.7 7.4-3.1 2.4-.9-1.2-6.8 5.2.9 1.2-3.1 2.4L25 178l3.1-2.4.9 1.2 6.8-5.2-.9-1.2L38 168zM30.8 155.6l4.4 8.1-3.4 1.9-.7-1.2-7.5 4.1.9 1.7 2.6-1.4 1.5 2.7-6.1 3.3-7.7-14.2 6.1-3.3 1.5 2.7-2.6 1.4.9 1.6 7.5-4.1-.7-1.3 3.3-2zM23.8 136.1l4.7 14.9-3.7 1.2-.4-1.2-8.1 2.6.4 1.2L13 156l-4.8-15 5-1.6 1.3 4.1-1.3.4 1.1 3.5 2.4-.8-1-3.1 3.2-1 1 3.1 2.6-.8-1.1-3.5-1.3.4-1.3-4.1 5-1.5zM22.2 123.5l.6 5.1-11.9 6.7.1 1.2-3.9.5-1-8.7 3.9-.5.2 1.4 6.6-3.2-7.2-1.7.2 1.3-3.9.5-.8-6.5 3.9-.5.1 1.2 13.1 3.2zM22.4 100.9l-1.1 15.6-3.9-.3.1-1.3-8.5-.6-.1 1.3-3.9-.3 1.1-15.6 5.2.4-.3 4.3-1.3-.1-.2 3.7 2.5.2.2-3.2 3.3.2-.2 3.2 2.7.2.3-3.7-1.3-.1.3-4.3 5.1.4zM25 90.3l-2.4 8.6-3.8-1.1.4-1.3-8.2-2.3-.4 1.3-3.8-1.1 2.4-8.6c.2-.8.4-1.5.6-2.1.2-.6.4-1.2.6-1.7.2-.5.4-.9.6-1.2.5-1 1.3-1.8 2.3-2.3 1-.5 2-.6 3.1-.3.8.2 1.5.6 2 1.3.5.6.9 1.3 1 2.1l4.2-1.2.3-1.1 3.8 1.1-1.6 5.7-7.4 1.6-.5 1.9 2.7.7.3-1.2 3.8 1.2zM12.4 88l3 .8.2-.7c.2-.9.4-1.5.4-1.8 0-.4 0-.7-.2-1-.2-.3-.5-.5-.9-.6-.4-.1-.8-.1-1.1.1-.3.2-.5.4-.7.8-.1.3-.4 1-.6 1.9l-.1.5zM30.1 76.1l-1.6 3.3-4.7-2.3 1.6-3.3c1.5.2 2.5-.2 3-1.3.4-.8.3-1.3-.4-1.6-.3-.2-.7-.2-1 0-.4.2-1 .6-1.9 1.4-1.1.9-2 1.6-2.7 1.9-.6.3-1.3.6-2.2.6-.8.1-1.6-.1-2.4-.5-1.4-.7-2.2-1.6-2.5-2.9-.3-1.3-.2-2.5.5-3.8.6-1.3 1.5-2.2 2.7-2.7l-.9-.4 1.6-3.3 4.2 2.1-1.6 3.3c-1.3-.2-2.3.3-2.8 1.3-.4.7-.2 1.2.4 1.5.3.1.6.2.8 0 .3-.1.9-.6 2-1.4 1.4-1.1 2.4-1.8 3-2.1.3-.2.6-.3 1.1-.4.4-.1.8-.2 1.2-.2.9 0 1.7.1 2.5.5 1.2.6 2 1.6 2.4 2.9.4 1.3.3 2.7-.4 4.1-.6 1.3-1.6 2.3-2.9 2.9l1 .4zM44.3 53.6l-9.2 12.6-3.2-2.3.8-1-6.9-5-.8 1-3.2-2.3L31.1 44l4.2 3.1-2.5 3.5-1.1-.8-2.2 3 2 1.5 1.9-2.6 2.7 2-1.9 2.6 2.2 1.6 2.2-3-1-.9 2.5-3.5 4.2 3.1zM57.4 41.7l-7.5 5.9-2.4-3.1 1.2-1-5.3-6.7-1.2 1-2.4-3.1 7.9-6.2c1.8-1.4 3.3-2.3 4.4-2.6 1.1-.3 2.1-.3 3 0 .9.3 1.6.8 2.2 1.6.7.9 1.1 1.8 1.1 2.8 0 1-.3 1.9-.8 2.8-.5.9-1.6 1.9-3.2 3.2l-2 1.6 1.4 1.8 1.3-1 2.3 3zm-9.2-9 1.9 2.4 1-.8c.7-.5 1.1-1 1.3-1.4.2-.4.1-.8-.3-1.3-.2-.3-.5-.5-.8-.6-.3-.1-.6 0-.9.1-.3.1-.7.4-1.3.9l-.9.7zM79 28.8l-13.9 7.1-1.8-3.5 1.3-.7-3.9-7.6-1.3.7-1.8-3.5 8.3-4.3 1.8 3.5-1.4.7 3.9 7.6 3.4-1.8-1.2-2.3L76 23l3 5.8zM85.5 26.8l-6.2 1.8-1.1-3.8 1.2-.4.5-9-1.3.4-1.1-3.8 11.3-3.3 1.1 3.8-1.3.4 5.4 7.3 1.1-.3 1.1 3.8-8 2.3-1-3.4 1.4-.4-1.2-1.8-4 1.2-.1 2.2 1.3-.4.9 3.4zm-1.9-12.1-.2 4.8 2.8-.8-2.6-4zM103.7 22.8l-6.7.6-.3-3.9 1.4-.1-.7-8.5-1.4.1-.3-3.9 7.7-.7 6.6 8-.4-4.6-1.3.1-.3-3.8 6.6-.6.3 3.9-1.4.1 1.1 12.6-5.4.5-7.7-9.3.5 5.7 1.4-.1.3 3.9zM132.9 23.8 117.4 22l.5-3.9 1.3.1 1-8.5-1.3-.2.5-3.9 15.5 1.8-.6 5.2-4.3-.5.2-1.3-3.7-.4-.3 2.5 3.2.4-.4 3.3-3.2-.4-.3 2.7 3.7.4.2-1.3 4.3.5-.8 5.3zM147 28l-8.8-2.7 1.2-3.7 1.3.4 2.5-8.1-1.8-.6-.9 2.8-2.9-.9 2.1-6.6 15.5 4.8-2.1 6.6-2.9-.9.9-2.8-1.8-.6-2.5 8.1 1.4.4L147 28zM155.8 31.8l-5.7-3 1.8-3.5 1.1.6 6.7-6.1-1.2-.6 1.8-3.5 10.4 5.4-1.8 3.5-1.2-.6-1.2 9 1.1.6-1.8 3.5-7.6-3.9 1.7-3.2 1.3.7.4-2.1-3.7-1.9-1.6 1.5 1.2.6-1.7 3zm7-10.1-3.5 3.3 2.6 1.4.9-4.7zM173.6 43.1l-6.9-5.6 2.5-3 1 .8 5.4-6.6-1-.8 2.5-3 6.9 5.6c.6.5 1.2 1 1.7 1.4.5.4.9.8 1.3 1.2.3.3.7.7.9 1 .7.9 1.1 1.9 1.2 3 0 1.1-.3 2.1-1 3-.5.7-1.2 1.1-2 1.4-.8.3-1.5.3-2.3.1l-.6 4.3.9.7-2.5 3-4.6-3.7 1.4-7.4-1.6-1.3-1.7 2.1 1 .8-2.5 3zm7-10.7-2 2.4.5.4c.7.6 1.2 1 1.5 1.1.3.2.6.2 1 .2.3 0 .6-.2.9-.5.3-.3.4-.7.4-1 0-.4-.2-.7-.4-.9-.2-.3-.7-.7-1.5-1.3l-.4-.4zM189.4 59.2l-5.8-6.8 3-2.5.8 1 2-1.7 1.9-7-.7-.9 3-2.5 5.5 6.5-3 2.5-.6-.7-1.4 3.5 3.9-.6-.6-.8 3-2.5 4.1 4.8-3 2.5-.7-.8-7.2.7-2 1.7.8 1-3 2.6zM198.2 73.4l-2.8-5.8 3.5-1.7.5 1.1 9-.9-.6-1.2 3.5-1.7 5.1 10.6-3.5 1.7-.6-1.2-6.3 6.5.5 1.1-3.5 1.7-3.7-7.7 3.2-1.5.6 1.3 1.6-1.4-1.8-3.8-2.2.2.6 1.2-3.1 1.5zm11.7-3.9-4.7.6 1.3 2.6 3.4-3.2zM215.6 82.1l-.3-1.2 3.8-1 2.1 8.1-3.8 1-.2-.7-5.3 1.4c-1.3.3-2.1.7-2.5 1.1-.4.4-.5.9-.3 1.5.1.5.4.8.9 1 .4.1 1.2 0 2.4-.3l5.7-1.5-.2-.8 3.8-1 1.6 5.9-3.8 1-.3-1.2-5.7 1.5c-1.5.4-2.7.5-3.8.3-1-.2-1.9-.7-2.7-1.5-.8-.8-1.4-2-1.7-3.4-.3-1.2-.4-2.2-.4-3.2s.3-1.8.7-2.5c.4-.7 1-1.2 1.7-1.7s1.8-.9 3.4-1.3l4.9-1.5zM208.5 113.7l-.7-9.2 3.9-.3.1 1.4 8.5-.6-.1-1.9-3 .2-.2-3.1 6.9-.5 1.2 16.2-6.9.5-.2-3.1 3-.2-.1-1.9-8.5.6.1 1.4-4 .5zM207.7 127.3l1.1-8.5 3.9.5-.2 1.2 8.4 1.1.2-1.2 3.9.5-1.1 8.6-3.9-.5.1-1-2.5-.3-.5 3.8 2.5.3.1-1 3.9.5-1.1 8.5-3.9-.5.2-1.2-8.4-1.1-.2 1.2-3.9-.5 1.1-8.5 3.9.5-.1 1 2.7.4.5-3.8-2.7-.4-.1 1-3.9-.6zM213.6 142.1c1.3.5 2.4 1.2 3.4 2.3 1 1.1 1.6 2.4 2 4 .1.6.2 1.1.2 1.7s-.1 1.1-.2 1.7c-.1.6-.3 1.2-.5 1.9-1 2.8-2.6 4.6-4.8 5.5-1.1.5-2.1.7-3.2.8s-2.1-.1-3.2-.5c-2.1-.8-3.7-2.3-4.7-4.4-1-2.1-1-4.5-.1-7.2.9-2.6 2.5-4.4 4.5-5.4 2.1-1.1 4.3-1.2 6.6-.4zm-2.4 6.7c-1.7-.6-2.9-.9-3.6-.8-.7.1-1.2.5-1.5 1.2-.2.7-.1 1.3.3 1.8.5.5 1.6 1.1 3.3 1.8 1.7.6 2.9.9 3.6.8.7-.1 1.2-.5 1.5-1.2.2-.7.1-1.3-.3-1.8-.5-.6-1.6-1.2-3.3-1.8zM194 165.7l4.8-7.5 3.3 2.1-.7 1.1 7.2 4.6.7-1.1 3.3 2.1-4.8 7.5c-.4.7-.8 1.3-1.2 1.8s-.7 1-1 1.4c-.3.4-.6.7-.9 1-.8.8-1.8 1.3-2.8 1.5-1.1.2-2.1-.1-3.1-.7-.7-.5-1.2-1.1-1.6-1.8-.3-.7-.5-1.5-.3-2.3l-4.4-.1-.6 1-3.3-2.1 3.2-5 7.5.6 1.1-1.7-2.3-1.5-.7 1-3.4-1.9zm11.4 5.9-2.6-1.7-.4.6c-.5.8-.8 1.3-.9 1.6-.1.3-.2.7-.1 1 .1.3.3.6.6.8.4.2.7.3 1 .2.3-.1.6-.2.9-.5.2-.3.6-.8 1.1-1.6l.4-.4zM181.3 181.8l6.2-6.9 2.9 2.6-1 1.1 6.3 5.7 1-1.1 2.9 2.6-6.2 6.9-2.9-2.6 1-1.1-6.3-5.7-1 1.1-2.9-2.6zM170.4 191.1l7.1-5.8 2.5 3-1.1.9 5.4 6.6 1.5-1.2-1.9-2.3 2.4-1.9 4.3 5.4L178 206l-4.3-5.4 2.4-1.9 1.9 2.3 1.5-1.2-5.4-6.6-1.1.9-2.6-3zM155.5 199.9l7.9-4.2 1.8 3.5-1.2.6 1.2 2.3 6.4 3.3 1-.5 1.8 3.5-7.5 4-1.8-3.5.9-.5-3.1-2.1-.3 3.9.9-.5 1.8 3.5-5.6 2.9-1.8-3.5.9-.5.9-7.2-1.2-2.3-1.1.6-1.9-3.3z" class="st1"/><path id="SVGID_x5F_2_x5F_" d="M130.4 206.6C80 215.3 32.4 181.5 24 131s26.3-97.9 76.7-106.6 98 25.1 106.4 75.6c8.4 50.3-26.3 97.9-76.7 106.6z" style="fill:none"/><text style="font-size:12px;font-family:&quot;ArialMT&quot;"> </text><path d="m115.4 211.3-10.6 10.5c-1 1-2.6 1-3.5 0l-.3-.3-18.5-25.4 5.9-5.9c1-1 2.5-1 3.5-.1l23.5 21.2z" style="fill:#aab0b1"/><path d="M141.3 195c13.6 3.1 26.4 8.7 38 16.5-38.9 26-89.6 26-128.5 0 11.6-7.8 24.4-13.4 38-16.5l13.8 13.9v-1.2h17.9v3.1h5l15.8-15.8z"/><path d="m114.9 207.6 5.2 10.7c1.4 2.8 5.1 3.4 7.3 1.1l20.5-22.5-5.2-7-27.8 17.7zm0 0-5.2 10.7c-1.4 2.8-5.1 3.3-7.2 1L82 196.8l5.2-7 27.7 17.8z" class="st1"/><path d="m88.4 190.2 26.3-5.3 26.6 5.3-26.4 16.9-26.5-16.9z" style="fill:#9c9c9c"/><path d="m114.7 185.4 25.3 5-25.1 16-25.1-16 24.9-5m.1-1L87.2 190l27.7 17.7 27.7-17.7-27.8-5.6zM116.4 94.2l6.1 12.3c.3.5.7.9 1.3 1l13.6 2c1.5.2 2 2 1 3l-9.8 9.6c-.4.4-.6 1-.5 1.6l2.3 13.5c.2 1.4-1.2 2.5-2.5 1.9l-12.2-6.4c-.5-.3-1.1-.3-1.6 0l-12.2 6.4c-1.3.7-2.8-.4-2.5-1.9l2.3-13.5c.1-.6-.1-1.1-.5-1.6l-9.8-9.6c-1.1-1-.5-2.8 1-3l13.6-2c.6-.1 1.1-.5 1.3-1l6.1-12.3c.5-1.4 2.3-1.4 3 0z" class="st1"/><circle cx="70.5" cy="51.3" r="1.1" class="st1"/><circle cx="136.7" cy="60.3" r="1.2" class="st1"/><circle cx="175.6" cy="147.6" r="1.9" class="st1"/><circle cx="70" cy="176.8" r="3" class="st1"/><circle cx="83.5" cy="129.7" r="1" class="st1"/><circle cx="34.1" cy="89.6" r="1.6" class="st1"/><circle cx="43.5" cy="132" r="1.4" class="st1"/><circle cx="177.1" cy="66.7" r="1.5" class="st1"/><circle cx="199.2" cy="127" r="1.2" class="st1"/><circle cx="174.5" cy="179.5" r="1.7" class="st1"/><circle cx="152.5" cy="184.2" r="1.2" class="st1"/><circle cx="104.9" cy="31.6" r="1.6" class="st1"/><circle cx="80.8" cy="9.8" r="1.2" class="st1"/></svg>