<svg xmlns="http://www.w3.org/2000/svg" viewBox="0 0 178.31 71.89"><defs><style>.cls-1,.cls-4{fill:none;}.cls-1{stroke:#2e6fb7;stroke-linecap:square;stroke-linejoin:bevel;stroke-width:2.5px;}.cls-2{fill:#a53738;}.cls-3{fill:#323333;}.cls-4{stroke:#231815;stroke-miterlimit:10;stroke-width:2px;}</style></defs><title>资源 36</title><g id="图层_2" data-name="图层 2"><g id="图层_1-2" data-name="图层 1"><path class="cls-1" d="M68,8.94l5.53-.63,1.1-.22c-3.24-1.38-3.56-2.86-4.45-2.9l.37-1.34c0,3.63-7.95,6.6-8,9.65"/><path class="cls-1" d="M67.59,15.55c1.29,0,1.81-.06,6.65-.07"/><path class="cls-1" d="M68.4,21.27c11.31,0,1.8,1.74.52,3.62-.28.4-.94,1-1.23.59C65.13,22,68.45,14.94,67,12a5.15,5.15,0,0,1,.28-.47l.14,0c3.08-.67,6.88.71,7.19.54a25.26,25.26,0,0,1-.94,7.24L71.19,19c-1.28.11-3.13-.08-3.6-.07"/><path class="cls-1" d="M73.06,26.42c4.59-3,5.73-14.87,3.58-17.72,0-.16-.09-.17,0-.23a.71.71,0,0,1,.54-.16c1.45.14.54-.6,10-1.68"/><path class="cls-1" d="M77.83,14.48c-.68,1.49,21-7.42.15,11.26"/><path class="cls-1" d="M78.9,15.55c2.73,2,5.94,8.26,10.66,9.87"/><path class="cls-1" d="M96.92,9.57c2.13.36,6.55-.32,11-.6"/><path class="cls-1" d="M96.12,13.31c1.67.2,1-1.24,11.21-.68"/><path class="cls-1" d="M96.68,15.88c3.21-.36,9.06-.81,9.65-.59.35.13,1.18-2.93,1.64-5.66a3.34,3.34,0,0,0-3.54-3.91c-2.34.17-4.76.5-7.2.52"/><path class="cls-1" d="M107.57,27c7.31,2.49,4.63-6.14,4.59-8.07s-13,.1-16.5-.14l.17-1.13S96.66,5,96.9,4.63l.55-.39c.14,0,4.89-1.62,6.21-1.86"/><path class="cls-1" d="M99.91,25.32c0-.19.06-4.31.06-4.31"/><path class="cls-1" d="M93.44,22.77c0,.2,0,.42,0,.65a1.7,1.7,0,0,0,1.3,1.83c3.17.67,9.26-.11,11.7-1.29.54-.27.23-1.48-.07-2.54"/><path class="cls-1" d="M57.61,8.92l-.1-7.36a.4.4,0,0,1,.05-.24.39.39,0,0,1,.26-.07h4.51"/><path class="cls-1" d="M115.58,31.66l4.92-.19a.4.4,0,0,0,.24-.07.38.38,0,0,0,.06-.3L120,22.75"/></g><g id="图层_4" data-name="图层 4"><path class="cls-2" d="M15.7,67.39H4.5V56.13H6.75v9H9v-9h2.25v9H13.5v-9h2.2Z"/><path class="cls-3" d="M27,56.15h2.25V67.4H27V62.9H20.26v4.5H18V56.15h2.25v4.5H27Z"/><path class="cls-3" d="M31.57,56.15h2.25V67.4H31.57Z"/><path class="cls-3" d="M0,51.62V71.89H178.31V51.62Zm176.06,18H2.25V53.88H176.06Z"/><path class="cls-3" d="M47.39,56.15v2.32H42.88V67.4H40.63V58.47h-4.5V56.15Z"/><path class="cls-3" d="M61,58.4h-9v2.25h9V62.9h-9v2.25h9V67.4H49.69V56.15H61Z"/><path class="cls-3" d="M65.51,56.13v9H63.26v-9Zm0,11.26V65.13h6.75v2.26Zm6.75-11.26h2.26v9H72.26Z"/><path class="cls-3" d="M88.08,58.4h-9v2.25h9V62.9h-9v2.25h9V67.4H76.82V56.15H88.08Z"/><path class="cls-3" d="M101.63,67.39H99.37V62.88H92.62v4.51H90.37V56.13h11.26v4.5H99.37v2.25h2.26Zm-2.35-6.76V58.38H92.62v2.25Z"/><path class="cls-3" d="M106.07,58.47v2.18h9V67.4H103.82V65.15h9V62.9h-9V56.15h11.26v2.32Z"/><path class="cls-3" d="M128.61,58.4h-9v2.25h9V62.9h-9v2.25h9V67.4H117.35V56.15h11.26Z"/><path class="cls-3" d="M130.91,65.13h2.25v2.26h-2.25Z"/><path class="cls-3" d="M146.73,58.4h-9v6.75h9V67.4H135.47V56.15h11.26Z"/><path class="cls-3" d="M160.29,56.15V67.4H149V56.15Zm-2.36,9V58.4h-6.64v6.75Z"/><path class="cls-3" d="M162.6,56.15h11.2V67.4h-2.19v-9h-2.26v9H167.1v-9h-2.25v9H162.6Z"/><line class="cls-4" x1="85.12" y1="36.01" x2="93.19" y2="44.08"/><line class="cls-4" x1="93.19" y1="36.01" x2="85.12" y2="44.08"/></g></g></svg>