<svg xmlns="http://www.w3.org/2000/svg" viewBox="0 0 18 26" class="frenchfries color-font-default">
    <path d="M3.54,10.44a5.61,5.61,0,0,0,11.12,0h2.2a.94.94,0,0,1,.92,1.15L15.27,22.88a.94.94,0,0,1-.92.74H3.81a.94.94,0,0,1-.92-.73L.27,11.59a.94.94,0,0,1,.92-1.15Z" transform="translate(-0.25 -0.25)" />
    <path d="M17.61,4.15a.78.78,0,0,1,.32.81l-.85,3.8a.78.78,0,0,1-.76.61H15.9a.78.78,0,0,1-.76-.95L16,4.63a.72.72,0,0,1,.39-.52L16.62,4a.77.77,0,0,1,.8,0Z" transform="translate(-0.25 -0.25)" />
    <path d="M14.75,2.2a.72.72,0,0,1,.3.76l-1.81,8.12a.71.71,0,0,1-.23.4.73.73,0,0,1-1.2-.56V3.2a.71.71,0,0,1,.4-.65l1.36-.7a.73.73,0,0,1,.74,0Z" transform="translate(-0.25 -0.25)" />
    <path d="M7.53,11.8V1.21A.9.9,0,0,1,8.92.47l1.23.83a.91.91,0,0,1,.39.74V11.8a.89.89,0,0,1-.89.89H8.42A.89.89,0,0,1,7.53,11.8Z" transform="translate(-0.25 -0.25)" />
    <path d="M5.31,11.67a.59.59,0,0,1-.14-.27L3,2.19a.55.55,0,0,1,.2-.56L4.83.37a.56.56,0,0,1,.69,0l.54.44a.54.54,0,0,1,.2.43v10A.55.55,0,0,1,5.31,11.67Z" transform="translate(-0.25 -0.25)" />
    <path d="M1.24,4.06l.53.19a.72.72,0,0,1,.45.52l.86,3.7a.73.73,0,0,1-.71.9H1.89a.74.74,0,0,1-.71-.57L.28,4.91a.7.7,0,0,1,.26-.74A.72.72,0,0,1,1,4,.75.75,0,0,1,1.24,4.06Z" transform="translate(-0.25 -0.25)" />
</svg>