<svg xmlns="http://www.w3.org/2000/svg" viewBox="0 0 122.63 150.18"><defs><style>.af19702c-1f44-409b-8ba0-a71820afa9ae{fill:#0a0414}.f8b3b549-76eb-43fb-90b8-4e7a0ce8c853{fill:#1c2d6d}.b9b8fd70-60d6-4648-b495-a5f8a7395c35{fill:#060d27}.a184ecc5-db25-4d47-a2de-f2f9b792e0f1{fill:#040000}.baef4630-e5c5-4f20-ba40-59aee0898e6e{fill:#63635c}</style></defs><g id="b65e5b1b-a598-41c1-b76f-68cea24f0840" data-name="图层 2"><g id="a7a99bf1-3347-46d4-ab52-b030190b36ec" data-name="图层 9"><path class="af19702c-1f44-409b-8ba0-a71820afa9ae" d="M3.27 37.09 27 143.07c1.23 5.47 6.81 8.4 12.38 6.57l76.32-25.17c4.4-1.45 7-6.48 5.9-11.24L99.74 20.92ZM77 125a20.93 20.93 0 0 1-26.91-15.56A23.35 23.35 0 0 1 67 81.77a21 21 0 0 1 25.59 15.8A23.44 23.44 0 0 1 77 125ZM96.93 9l2.82 11.9L3.27 37.09l-3-13.64c-1.19-5.3 2.55-10.24 8.25-11l78.27-10.7A9.45 9.45 0 0 1 96.93 9Z"/><path class="f8b3b549-76eb-43fb-90b8-4e7a0ce8c853" d="m4.06 35.42 23.72 106c1.22 5.48 6.8 8.41 12.37 6.57l76.32-25.16c4.41-1.46 7-6.49 5.9-11.25l-21.83-92.34Zm73.74 87.9a20.92 20.92 0 0 1-26.91-15.56A23.32 23.32 0 0 1 67.83 80.1a21 21 0 0 1 25.59 15.8 23.42 23.42 0 0 1-15.62 27.42Z"/><path class="b9b8fd70-60d6-4648-b495-a5f8a7395c35" d="m97.73 7.34 2.81 11.9L4.06 35.42 1 21.78c-1.18-5.3 2.55-10.24 8.26-11L87.58.08a9.46 9.46 0 0 1 10.15 7.26Z"/><path class="a184ecc5-db25-4d47-a2de-f2f9b792e0f1" d="m23.71 42.85-12.57 2.29-.21-.96 12.56-2.27.22.94zM11.57 47.06l12.56-2.32-.21-.94-12.56 2.3.21.96zM24.56 46.64l-12.55 2.35-.22-.97 12.56-2.33.21.95zM25.42 50.42l-12.55 2.42-.43-1.93 12.55-2.38.43 1.89z"/><path class="a184ecc5-db25-4d47-a2de-f2f9b792e0f1" d="M25.63 51.37 13.09 53.8l-.22-.96 12.55-2.42.21.95zM26.27 54.21l-12.54 2.48-.21-.96 12.54-2.47.21.95zM26.92 57.05l-12.54 2.53-.43-1.92 12.54-2.5.43 1.89zM27.34 58.95l-12.52 2.56-.44-1.93 12.54-2.53.42 1.9zM27.77 60.85l-12.52 2.59-.22-.96 12.53-2.58.21.95zM28.2 62.75l-12.52 2.63-.21-.97 12.52-2.61.21.95zM28.42 63.7 15.9 66.34l-.22-.96 12.52-2.63.22.95zM29.06 66.55l-12.51 2.69-.21-.96 12.51-2.68.21.95zM29.71 69.4 17.2 72.14l-.21-.96 12.5-2.73.22.95zM30.14 71.31l-12.5 2.77-.22-.97 12.5-2.76.22.96zM30.78 74.16l-12.49 2.82-.43-1.93 12.49-2.79.43 1.9zM31.21 76.07l-12.48 2.85-.22-.97L31 75.11l.21.96zM31.64 77.97l-12.48 2.89-.22-.97 12.49-2.87.21.95zM32.29 80.83l-12.48 2.94-.22-.97 12.49-2.92.21.95zM32.72 82.74l-12.47 2.98-.22-.98 12.48-2.95.21.95zM33.16 84.65l-12.48 3.01-.21-.97 12.47-2.99.22.95z"/><path class="a184ecc5-db25-4d47-a2de-f2f9b792e0f1" d="M33.37 85.61 20.9 88.63l-.22-.97 12.48-3.01.21.96zM34.23 89.43l-12.46 3.09-.21-.97 12.46-3.08.21.96zM35.1 93.26l-12.45 3.15-.22-.97 12.45-3.14.22.96z"/><path class="a184ecc5-db25-4d47-a2de-f2f9b792e0f1" d="m35.32 94.22-12.45 3.16-.22-.97 12.45-3.15.22.96zM35.75 96.13l-12.45 3.2-.21-.97 12.44-3.19.22.96zM36.4 99l-12.44 3.26-.22-.98 12.44-3.23.22.95zM36.83 100.92l-12.43 3.29-.22-.98 12.44-3.27.21.96zM37.05 101.88l-12.43 3.3.22.98 12.43-3.32-.22-.96zM37.7 104.76l-12.43 3.35-.22-.97 12.43-3.34.22.96zM37.92 105.72l-12.43 3.37-.22-.98 12.43-3.35.22.96zM38.79 109.56 26.37 113l-.22-.98 12.42-3.42.22.96zM39.66 113.41l-12.41 3.5-.44-1.96 12.41-3.47.44 1.93zM40.09 115.33l-12.4 3.54-.22-.98 12.4-3.52.22.96zM40.31 116.29l-12.4 3.56-.22-.98 12.4-3.54.22.96zM40.74 118.22l-12.39 3.59-.22-.98 12.4-3.57.21.96zM41.18 120.15l-12.39 3.62-.22-.98 12.39-3.61.22.97zM41.83 123.04l-12.38 3.67-.22-.98 12.39-3.66.21.97zM42.7 126.9l-12.37 3.73-.44-1.96 12.38-3.7.43 1.93zM43.14 128.83l-12.37 3.77-.22-.98 12.37-3.76.22.97z"/><path class="a184ecc5-db25-4d47-a2de-f2f9b792e0f1" d="m43.36 129.79-12.37 3.79-.22-.98 12.37-3.77.22.96z"/><path class="baef4630-e5c5-4f20-ba40-59aee0898e6e" d="M14.84 26.64c-.1-.36-.2-.73-.31-1.1-.06-.19 0-.28.14-.27a4.49 4.49 0 0 1 1.33.23l.5-.08a7.4 7.4 0 0 0-.14-1.26q-.08-.19.15-.21a6.8 6.8 0 0 1 1.24.05c.22.09.23.2.05.34l-.18.08a9.62 9.62 0 0 1-.51.91l1.63-.26.24-.44a.31.31 0 0 1 .29-.1c.13 0 .47.19 1 .45.15.09.18.19.07.31l-.19.27.26 1.16c.16.68.28 1.21.37 1.57s.18.69.27 1-.24.42-.77.53c-.21.05-.33 0-.35-.18l-.12-.55-3.15.52.11.49c0 .26-.22.44-.72.52-.3.05-.44 0-.43-.25-.15-.75-.29-1.44-.41-2.09Zm1.16-.92a.23.23 0 0 0-.11.25l.32 1.43 3.15-.51-.37-1.64Zm.66 3.67 3.15-.51-.4-1.78-3.15.5ZM28.84 22.24c-.17-.11-.17-.21 0-.29.71-.11 1.17 0 1.39.26a.56.56 0 0 1-.11.72l1.49-.23a2.45 2.45 0 0 1 .29-.52s.09-.05.19 0a4 4 0 0 1 1 .58c.29.23.27.39-.08.46a1.42 1.42 0 0 0-1 .55c-.17.2-.26.18-.26-.06l.07-.8-4.12.65a1 1 0 0 1 .14.87.55.55 0 0 1-.34.36.58.58 0 0 1-.5 0 .43.43 0 0 1-.32-.3.5.5 0 0 1 .15-.44 1.12 1.12 0 0 0 .31-.84c0-.15.06-.17.21-.05a2.12 2.12 0 0 0 .25.22l2-.31a.38.38 0 0 1-.28-.27 1.16 1.16 0 0 0-.48-.56Zm-.91 3.46c-.07-.25-.15-.5-.22-.75s0-.25.22-.25a5.28 5.28 0 0 1 1 .18l.75-.12v-.23c-.07-.2-.14-.45-.23-.75s0-.28.18-.32.62 0 .94 0 .23.15.15.26l-.11.13.16.73.78-.12a3.2 3.2 0 0 1 .19-.37c.05-.08.14-.1.26-.07a3.75 3.75 0 0 1 .81.29c.12.07.14.18.05.33l-.07.09.27 1.17a12.24 12.24 0 0 0 .31 1.26q.06.48-.63.63c-.22.05-.35 0-.37-.18l-.1-.43-2.77.45.07.33c0 .11-.06.2-.19.3a1.75 1.75 0 0 1-.5.21c-.25 0-.39 0-.41-.2-.15-.76-.26-1.3-.31-1.61Zm1.22.47L30 26l-.23-1-.78.13-.06.11Zm.05.2.24 1.07.86-.14-.24-1.07Zm1.61-1.57.24 1.06.88-.14-.24-1.07Zm1.41 2.2L32 25.92l-.88.14.24 1.07ZM42.42 24.68l-.19-.85-.86.14a3.47 3.47 0 0 1-1.32 1.51c-.16.09-.21.05-.14-.14a3.17 3.17 0 0 0 .49-2c0-.15.06-.21.25-.19a7 7 0 0 1 1 .15q.12.06.12.15c0 .06 0 .1-.09.1l-.1.05a.91.91 0 0 0-.07.14l.67-.11v-.08c-.05-.18-.1-.37-.16-.57s0-.2.13-.22a5.51 5.51 0 0 1 .91 0c.19.06.25.15.17.28l-.08.12.08.32.82-.13a2.69 2.69 0 0 1 .18-.52.19.19 0 0 1 .24-.09 3.38 3.38 0 0 1 .73.38c.11.12.11.2 0 .26l-1.91.3.2.85.56-.09a3.24 3.24 0 0 1 .2-.55c.05-.08.14-.1.28-.07a6.29 6.29 0 0 1 .65.41q.15.21 0 .24l-1.62.26.24 1 1.18-.19c.06-.15.14-.33.25-.56a.24.24 0 0 1 .27-.07 3 3 0 0 1 .73.4c.1.1.09.18 0 .24l-4.77.78a8.09 8.09 0 0 0-1 .21l-.36-.26 1.44-.18 1.19-.2-.23-1-.6.1-.87.19-.3-.26a10.3 10.3 0 0 0 1.1-.13Zm-1.26-2c0 .08 0 .15-.11.21a2 2 0 0 1-.61.16c-.19.05-.29 0-.31-.16-.09-.46-.15-.82-.19-1.05l-.08-.36c0-.15-.11-.39-.22-.74-.06-.16 0-.25.21-.26a6.55 6.55 0 0 1 .95.13l2.3-.35.15-.36c0-.08.13-.1.28-.07a3.6 3.6 0 0 1 .79.29.22.22 0 0 1 .11.26l-.11.2.12.55a5.41 5.41 0 0 0 .21.79q.15.28-.63.51c-.21.07-.32.05-.33-.05v-.2l-2.51.4Zm-.24-1.85c-.12 0-.16.08-.14.2l.11.45 2.5-.39-.14-.63Zm2.52.46-2.51.39.16.7L43.6 22ZM52.58 19.49a.31.31 0 0 1 0 .16.16.16 0 0 0-.08.19l.21.93a.4.4 0 0 1 .08-.21q0-.09.18 0l.55.37q.12.17 0 .21l-.68.11.28 1.18a4.5 4.5 0 0 1 .49-.24q.24-.06.15.18l-.75.78a4.69 4.69 0 0 0-.61.69c-.12.18-.24.2-.35.06a2.4 2.4 0 0 1-.49-.64c-.09-.1-.07-.18.07-.24s.36-.16.6-.25l-.32-1.38h-.1a2.15 2.15 0 0 0-.4.09l-.23-.24a3.43 3.43 0 0 0 .56 0h.13l-.35-1.51h-.22a1.63 1.63 0 0 1-.3.07l-.24-.24a2.17 2.17 0 0 0 .49 0l.91-.14a1 1 0 0 1 .15-.46c0-.07.14-.08.31 0s.38.21.54.32.08.18 0 .2Zm1.58.08-.1-.44c-.1-.34-.17-.61-.22-.8s0-.23.1-.25h.86c.16 0 .21.13.13.26l-.08.08.23 1 .85-.13a1.59 1.59 0 0 1 .19-.41.16.16 0 0 1 .19-.06 6.16 6.16 0 0 1 .56.32c.11.1.11.17 0 .2l-1.74.27.07.32a3.22 3.22 0 0 0 .61.85 6.55 6.55 0 0 0 .12-.71c0-.13.08-.18.23-.14l.36.14a2.81 2.81 0 0 1 .37.15c.09.07.12.14.11.2s0 .09-.1.08h-.12c-.24.22-.48.42-.71.6a5.85 5.85 0 0 0 .68.71 3.17 3.17 0 0 0 .78.5c.15.12.16.22 0 .3a1 1 0 0 0-.49.46c-.08.15-.19.14-.34 0a4.26 4.26 0 0 1-.68-1 9.89 9.89 0 0 1-.66-1.42l.27 1.18c.06.26.19.76.39 1.49a.6.6 0 0 1-.21.49 1.45 1.45 0 0 1-.53.34q-.25.09-.36-.09a.8.8 0 0 0-.23-.26 1.07 1.07 0 0 0-.44-.19c-.08 0-.12-.06-.12-.11s0-.09.12-.1c.54 0 .76-.15.68-.44l-.21-.91q-.26.57-.57 1.14a.6.6 0 0 0-.09.27c0 .12-.13.15-.27.07a2.41 2.41 0 0 1-.58-.47.15.15 0 0 1 0-.21 9.45 9.45 0 0 0 1.39-1.19l-.45-1.94-.47.08a2.79 2.79 0 0 0-.59.14l-.25-.27a4.57 4.57 0 0 0 .79-.07Zm-.76 1.12c-.13-.12-.11-.18.06-.19a1.27 1.27 0 0 1 .58.14.88.88 0 0 1 .35.27.42.42 0 0 1-.13.58.36.36 0 0 1-.31.06c-.1 0-.18-.12-.23-.28a2.29 2.29 0 0 0-.32-.58Zm2.15-1.47a.41.41 0 0 1-.28-.3 1.1 1.1 0 0 0-.25-.45c-.1-.12-.06-.18.13-.19a.92.92 0 0 1 .79.28.45.45 0 0 1 0 .54.44.44 0 0 1-.39.12ZM64.26 17.38a1.73 1.73 0 0 1 .2-.45.2.2 0 0 1 .21-.06 6.15 6.15 0 0 1 .64.37c.11.1.11.16 0 .18l-1.4.22a1 1 0 0 1 .87.41c.13.35.06.58-.22.69a.41.41 0 0 1-.56-.26 1.33 1.33 0 0 0-.34-.7 5.6 5.6 0 0 1-.37.75 3.83 3.83 0 0 1-.55.75q-.21.18-.18-.12a10.08 10.08 0 0 0 .25-1.06 4.93 4.93 0 0 0 .11-1.21c0-.09.05-.15.2-.15h.87c.09 0 .14.08.14.14a.1.1 0 0 1-.06.12l-.11.07a1.82 1.82 0 0 1-.15.33Zm1.1.51a7.25 7.25 0 0 0 .2-1.41.15.15 0 0 1 .16-.17c.26 0 .54.05.85.06a.22.22 0 0 1 .12.15.12.12 0 0 1-.06.12l-.14.05-.18.32.68-.1a4.1 4.1 0 0 1 .19-.46.22.22 0 0 1 .22-.05 6.51 6.51 0 0 1 .65.37c.08.08.06.14 0 .18l-1.64.25a1.13 1.13 0 0 1 .84.39.4.4 0 0 1 .07.42.41.41 0 0 1-.26.24.44.44 0 0 1-.6-.28 1.63 1.63 0 0 0-.27-.63 4.53 4.53 0 0 1-.45.64l.22.17a.47.47 0 0 1-.06.61l1.49-.24.11-.32q.06-.15.27-.09a4.12 4.12 0 0 1 .76.45c.12.17.07.27-.13.3a1.1 1.1 0 0 0-.71.41c-.14.16-.23.16-.25 0v-.55l-3.64.58a.76.76 0 0 1-.05.76.49.49 0 0 1-.32.18.43.43 0 0 1-.34-.07.4.4 0 0 1-.08-.59.92.92 0 0 0 .19-.71c0-.15 0-.18.18-.1s.21.21.33.35l1.65-.27c-.1 0-.18-.12-.22-.31a.62.62 0 0 0-.23-.44c-.11-.1-.07-.17.1-.22a1 1 0 0 1 .35.01Zm-1.11 2.71a5.17 5.17 0 0 1-.15-.55l-.1-.52c-.07-.14 0-.21.15-.22a2.27 2.27 0 0 1 1 .14l1.14-.18.18-.3a.28.28 0 0 1 .27 0 5.93 5.93 0 0 1 .63.35.19.19 0 0 1 0 .22l-.09.14v.18a.69.69 0 0 0 .08.23c0 .21-.18.35-.58.41-.18 0-.29 0-.31-.15l-1.3.21.14.6 1.5-.24.18-.31a.25.25 0 0 1 .25-.09 3.58 3.58 0 0 1 .68.34c.07.08.09.15.05.22l-.09.14.07.31a2.57 2.57 0 0 0 .09.29c0 .26-.15.42-.58.49-.19 0-.3 0-.31-.14v-.2l-1.55.26v.07a.29.29 0 0 1-.17.3 1.8 1.8 0 0 1-.48.16.27.27 0 0 1-.31-.23l-.14-.63c-.07-.29-.11-.53-.14-.71Zm.87-1c-.08 0-.1.09-.06.19l.1.43 1.31-.21-.14-.6Zm.27 1.61.16.68 1.55-.25-.16-.64ZM75 15.76a.26.26 0 0 1 0 .15.15.15 0 0 0-.08.18l.25 1.1a.93.93 0 0 1 .12-.36.16.16 0 0 1 .18-.06 2.55 2.55 0 0 1 .49.32c.07.12.06.2 0 .23l-.68.11.32 1.38.84-.38c.15 0 .2 0 .13.15l-.87.84a7.65 7.65 0 0 0-.71.75c-.13.17-.25.18-.38 0a3.83 3.83 0 0 1-.49-.62c-.06-.09 0-.17.09-.23s.35-.16.56-.24l-.36-1.55h-.1a1.82 1.82 0 0 0-.37.09l-.23-.24a3.6 3.6 0 0 0 .56 0h.09l-.34-1.46h-.26a1.28 1.28 0 0 1-.28.07l-.25-.23a2.36 2.36 0 0 0 .46 0l1-.17a1.28 1.28 0 0 1 .15-.44c0-.07.13-.08.26 0a4.29 4.29 0 0 1 .47.32c.07.1.08.17 0 .19Zm1 4.31.76-.08 1.06-.17-.25-1.07-.54.09-.46.12-.2-.24a5.65 5.65 0 0 0 .71-.09l.44-.07-.2-.88-.42.07v.07a.33.33 0 0 1-.12.29.6.6 0 0 1-.31.15c-.18.06-.3 0-.34-.21l-.13-.68-.16-.76-.19-.8c-.09-.32-.16-.56-.2-.74s0-.14.14-.14a2.08 2.08 0 0 1 .82.17l1.4-.22.14-.27a.14.14 0 0 1 .17-.08 3.14 3.14 0 0 1 .7.31c.09.09.11.17.06.26l-.09.14.18.73a6.88 6.88 0 0 0 .14.68c.07.24.12.43.17.57.05.29-.09.46-.43.52a.21.21 0 0 1-.29-.2v-.05l-.43.07.21.87.35-.05a1 1 0 0 1 .18-.47q0-.11.21-.06a3.27 3.27 0 0 1 .61.34c.11.12.1.19 0 .23l-1.29.2.25 1.07.56-.09a2.38 2.38 0 0 1 .16-.47c0-.09.13-.11.25-.06a2.31 2.31 0 0 1 .61.34c.1.12.09.19 0 .22l-1 .16-2.37.39a3.8 3.8 0 0 0-.58.14Zm.59-3.72.42-.07-.24-1h-.37v.15Zm.29 1.21.42-.07-.24-1-.42.07Zm.66-2.45.25 1.05.42-.07-.24-1Zm.46 2.26.42-.07-.24-1-.42.07ZM84.84 14.58c-.11-.41-.19-.73-.25-1s0-.26.2-.25a3.83 3.83 0 0 1 .91.22l2.2-.34.16-.34a.18.18 0 0 1 .22-.06 4.54 4.54 0 0 1 .77.36.2.2 0 0 1 0 .21l-.11.24v.11a4.43 4.43 0 0 0 .16.58c0 .21-.13.35-.53.45-.24.07-.36 0-.36-.11l-.05-.24-2.44.39.15.63L89 15l.16-.31a.18.18 0 0 1 .22-.06 3.86 3.86 0 0 1 .75.39c.07.1.1.18.08.23l-.12.21c.08.53.19 1.2.33 2a.87.87 0 0 1-.12.68 1.57 1.57 0 0 1-.83.47c-.12 0-.18 0-.2-.06a.57.57 0 0 0-.54-.4c-.24-.09-.25-.17 0-.24.54 0 .78-.23.71-.58-.12-.79-.24-1.5-.36-2.14l-3 .48A3.7 3.7 0 0 1 85.4 19c-.17.13-.24.09-.22-.11a6.88 6.88 0 0 0 .13-1.68 15.38 15.38 0 0 0-.41-2.37Zm.88-.82q-.18.08-.12.21l.15.66 2.44-.38-.2-.84Zm.71 3.24c-.06-.25-.13-.52-.22-.82 0-.09 0-.14.13-.16a2.11 2.11 0 0 1 .76.12l.66-.11.13-.28c0-.05.08-.07.19-.06a2.12 2.12 0 0 1 .72.33.14.14 0 0 1 0 .18l-.09.21v.09c.06.27.13.53.2.77a.23.23 0 0 1-.08.25 1.13 1.13 0 0 1-.48.18c-.12.06-.21 0-.24-.13v-.23l-.78.12v.21a.25.25 0 0 1 0 .22.93.93 0 0 1-.41.2c-.17.06-.27 0-.29-.15l-.14-.61Zm.76-.68c-.09 0-.12.07-.08.16l.19.79.77-.12-.22-.94ZM13.06 19l-.3 1.55a.53.53 0 0 0 0 .14c0 .06.07.09.18.1v.06l-.88.13v-.06c.08 0 .12-.07.1-.14a.54.54 0 0 0-.09-.16l-1.2-1.75a.92.92 0 0 0-.15-.17.24.24 0 0 0-.15 0v-.06l1-.14v.06c-.08 0-.11.07-.1.12a.22.22 0 0 0 .06.12l.77 1.2.28-1.43a.68.68 0 0 0 0-.12c0-.06-.07-.09-.16-.09v-.06l1-.15v.06c-.09 0-.12.09-.11.14l.06.11.86 1.25.23-1.39a.27.27 0 0 0 0-.15c0-.05-.07-.08-.16-.09v-.06l.93-.13v.06a.22.22 0 0 0-.13.08 1.82 1.82 0 0 0 0 .2l-.36 2a.89.89 0 0 0 0 .19c0 .06.07.09.17.09v.06l-.91.13v-.06c.09 0 .12-.07.11-.14a1 1 0 0 0-.1-.16ZM18 19l-1.55.23.2.9a.12.12 0 0 0 .05.08.23.23 0 0 0 .11 0v.05l-.81.14v-.06a.18.18 0 0 0 .08-.06s0-.05 0-.09l-.48-2.13a.15.15 0 0 0 0-.08.18.18 0 0 0-.11 0v-.06l.84-.13v.06c-.05 0-.08 0-.09.07a.11.11 0 0 0 0 .08l.18.81 1.55-.23-.18-.8v-.08h-.11v-.06l.84-.12v.06a.18.18 0 0 0-.08.06s0 .05 0 .09l.48 2.12v.08a.18.18 0 0 0 .11 0L19 20l-.84.13V20a.18.18 0 0 0 .04 0s0-.05 0-.09ZM19.53 19.67l-.48-2.12a.2.2 0 0 0 0-.08.29.29 0 0 0-.11 0v-.06l.84-.12v.06a.15.15 0 0 0-.09.06.14.14 0 0 0 0 .09l.47 2.11a.12.12 0 0 0 .05.08h.11v.06l-.83.12v-.06a.18.18 0 0 0 .08-.06s-.03-.04-.04-.08ZM21.69 17.39l.43 1.89a.09.09 0 0 0 0 .08.23.23 0 0 0 .11 0v.05l-.83.13v-.06l.09-.06a.22.22 0 0 0 0-.09l-.43-1.89-.83.12h-.08a.13.13 0 0 0 0 .1h-.05l-.1-.56a.35.35 0 0 0 .07.09h.1l2.23-.33h.08a.13.13 0 0 0 0-.1h.06l.15.65h-.06a.23.23 0 0 0-.07-.09.16.16 0 0 0-.1 0ZM23.9 18.08l.16.68 1.69-.25h.08a.13.13 0 0 0 0-.1h.07l.14.65H26a.29.29 0 0 0-.07-.08.16.16 0 0 0-.1 0l-2.39.36v-.06a.18.18 0 0 0 .08-.06s0-.05 0-.09L23.05 17a.2.2 0 0 0 0-.08h-.11v-.06l2.36-.34a.2.2 0 0 0 .08 0 .24.24 0 0 0 0-.1h.06l.15.64h-.07s0-.07-.07-.08-.05 0-.09 0l-1.65.25.13.59 1.07-.16a.19.19 0 0 0 .09 0 .41.41 0 0 0 0-.1h.06l.14.63h-.06a.19.19 0 0 0-.07-.08.16.16 0 0 0-.1 0ZM27.58 17.91l.42-1.55a.42.42 0 0 0 0-.15c0-.05-.06-.08-.15-.08v-.06l.89-.13V16a.14.14 0 0 0-.1.06.79.79 0 0 0-.07.21l-.48 2a.41.41 0 0 0 0 .16.14.14 0 0 0 .15.09v.06l-.9.13v-.06q.12 0 .09-.12s0-.07-.09-.15l-1.33-1.71a1 1 0 0 0-.16-.19.23.23 0 0 0-.13 0v-.05l.93-.14v.06c-.08 0-.12.07-.11.12a.51.51 0 0 0 .08.13ZM29.92 17.19l.15.67 1.67-.25a.09.09 0 0 0 .08 0 .12.12 0 0 0 0-.09h.06l.15.63H32a.18.18 0 0 0-.06-.08.16.16 0 0 0-.1 0l-2.36.35v-.05a.22.22 0 0 0 .09-.07.14.14 0 0 0 0-.09l-.47-2.08A.12.12 0 0 0 29 16a.23.23 0 0 0-.1 0v-.05l2.32-.34a.2.2 0 0 0 .08 0 .62.62 0 0 0 0-.1h.06l.14.64h-.06a.22.22 0 0 0-.07-.09h-.09l-1.62.24.13.59 1.05-.16h.08a.13.13 0 0 0 0-.1h.06l.15.63h-.07a.22.22 0 0 0-.07-.09A.13.13 0 0 0 31 17ZM32.89 16.82l.18.82a.22.22 0 0 0 0 .08.24.24 0 0 0 .1 0v.06l-.81.12v-.06a.18.18 0 0 0 .08-.06s0 0 0-.09L32 15.64a.12.12 0 0 0 0-.08.24.24 0 0 0-.11 0v-.06l1.61-.24a3 3 0 0 1 .48 0 .79.79 0 0 1 .32.07.56.56 0 0 1 .28.22.86.86 0 0 1 .15.32c.09.4-.09.66-.54.8l.65.6a1.21 1.21 0 0 0 .25.2.29.29 0 0 0 .16 0v.06l-.92.13v-.05c.07 0 .09-.05.08-.08s0-.07-.12-.14l-.69-.65Zm-.1-.4.87-.13.27-.05.14-.07a.25.25 0 0 0 .08-.28.33.33 0 0 0-.2-.25.47.47 0 0 0-.16 0h-.27l-.87.13ZM37.42 14.87l-.18.62h-.05s-.06-.08-.14-.12a1.44 1.44 0 0 0-.83-.1 1 1 0 0 0-.34.1.32.32 0 0 0-.15.13.21.21 0 0 0 0 .17c0 .09.1.14.22.16a3 3 0 0 0 .4 0h.3a2 2 0 0 1 .44 0 .9.9 0 0 1 .32.09.67.67 0 0 1 .25.2.7.7 0 0 1 .07.78.87.87 0 0 1-.42.34 1.73 1.73 0 0 1-.52.14 2.38 2.38 0 0 1-1.05-.08h-.14a.27.27 0 0 0-.07.06h-.06l.14-.65h.06a.21.21 0 0 0 .11.14 1.05 1.05 0 0 0 .42.12 1.69 1.69 0 0 0 .5 0 1.1 1.1 0 0 0 .41-.15.35.35 0 0 0 .13-.14.3.3 0 0 0 0-.16.23.23 0 0 0-.24-.22 2.51 2.51 0 0 0-.4 0h-.72a1.11 1.11 0 0 1-.25-.05.7.7 0 0 1-.33-.2.74.74 0 0 1-.16-.32.66.66 0 0 1 .1-.55 1.16 1.16 0 0 1 .82-.39 1.5 1.5 0 0 1 .47 0 3.75 3.75 0 0 1 .56.09.32.32 0 0 0 .15 0 .15.15 0 0 0 .08-.05ZM38.74 15.87l.15.67 1.63-.24h.08a.41.41 0 0 0 0-.1h.06l.14.63h-.06s0-.07-.07-.08a.13.13 0 0 0-.09 0l-2.3.34V17a.18.18 0 0 0 .08-.06.22.22 0 0 0 0-.09l-.48-2.06a.09.09 0 0 0 0-.08.23.23 0 0 0-.11 0v-.05l2.23-.39a.1.1 0 0 0 .08 0 .15.15 0 0 0 0-.1h.06l.14.63h-.06s0-.07-.07-.08 0 0-.09 0l-1.58.23.13.58 1-.16a.1.1 0 0 0 .08 0 .41.41 0 0 0 0-.1h.06l.14.62h-.06a.29.29 0 0 0-.07-.08h-.09ZM42.58 15.38l.19.8a.1.1 0 0 0 0 .08.15.15 0 0 0 .1 0v.06l-.79.12v-.06a.18.18 0 0 0 .08-.06.19.19 0 0 0 0-.08l-.47-2.06a.22.22 0 0 0 0-.08h-.1V14l1.56-.23h.45a.85.85 0 0 1 .31.09.67.67 0 0 1 .25.2.79.79 0 0 1 .14.31.68.68 0 0 1 0 .45.57.57 0 0 1-.26.27 1.47 1.47 0 0 1-.53.15Zm-.09-.4.84-.12a.86.86 0 0 0 .34-.1.23.23 0 0 0 .07-.13.29.29 0 0 0 0-.16.48.48 0 0 0-.08-.16.38.38 0 0 0-.13-.09 1 1 0 0 0-.36 0l-.84.12ZM45.59 15.54l1.53-.23h.08a.2.2 0 0 0 0-.09h.06l.14.62h-.05a.3.3 0 0 0-.07-.08.09.09 0 0 0-.09 0L45 16a.23.23 0 0 0 .09-.06.14.14 0 0 0 0-.09l-.47-2a.1.1 0 0 0 0-.08.15.15 0 0 0-.1 0v-.06l.78-.11v.05a.23.23 0 0 0-.09.06.14.14 0 0 0 0 .09ZM49.46 14.73l-1.12.17-.09.36a.57.57 0 0 0 0 .12s.06.08.15.09v.06l-.82.12v-.06a.19.19 0 0 0 .1-.06.57.57 0 0 0 .06-.15l.48-2a.23.23 0 0 0 0-.14c0-.06 0-.09-.13-.1v-.06L49 13q-.11 0-.09.12a.41.41 0 0 0 .06.11L50.31 15a.6.6 0 0 0 .14.14.2.2 0 0 0 .13 0v.06l-.91.13v-.05c.07 0 .11-.07.09-.13s0-.06-.06-.1Zm-.23-.3-.59-.8-.21.92ZM51 13.43l.34 1.46a.15.15 0 0 0 0 .08.24.24 0 0 0 .1 0v.06l-.73.1v-.05a.18.18 0 0 0 .08-.06.13.13 0 0 0 0-.09l-.47-2v-.07a.15.15 0 0 0-.1 0v-.06l.84-.12q-.08 0-.06.09a.18.18 0 0 0 .07.09l1.67 1.17-.33-1.42v-.07a.19.19 0 0 0-.1 0l.71-.11v.06a.18.18 0 0 0-.08.06.11.11 0 0 0 0 .08l.47 2v.08a.15.15 0 0 0 .1 0v.06l-.76.12v-.06s.07-.05.06-.09a.32.32 0 0 0-.12-.11ZM54.41 13.54l.15.65 1.56-.19h.07a.12.12 0 0 0 0-.09h.06l.14.62h-.06a.28.28 0 0 0-.06-.08h-.09l-2.18.23a.18.18 0 0 0 .08-.06.14.14 0 0 0 0-.09l-.46-2v-.08h-.1l2.1-.45a.08.08 0 0 0 .07 0 .12.12 0 0 0 0-.09h.06l.14.62h-.06s0-.07-.07-.08a.11.11 0 0 0-.08 0l-1.52.23.13.56 1-.14h.08a.12.12 0 0 0 0-.09h.05l.14.6h-.05a.3.3 0 0 0-.07-.08s0 0-.09 0ZM57.58 12.1l.42 1.79a.14.14 0 0 0 .14.11v.06l-.75.11v-.05a.18.18 0 0 0 .08-.06.22.22 0 0 0 0-.09l-.42-1.8-.75.12a.11.11 0 0 0-.08 0 .22.22 0 0 0 0 .1h-.06l-.16-.58h.06a.18.18 0 0 0 .06.08.09.09 0 0 0 .09 0l2-.29a.15.15 0 0 0 .08 0v-.09l.14.61h-.05a.19.19 0 0 0-.07-.08.13.13 0 0 0-.09 0ZM60.55 13.08l-1.09.16-.08.36a.22.22 0 0 0 0 .11s.06.08.14.09l-.79.12v-.05a.22.22 0 0 0 .09-.07.37.37 0 0 0 .06-.15l.46-1.95a.36.36 0 0 0 0-.14.14.14 0 0 0-.13-.1v-.06l.85-.12v.06c-.07 0-.09.06-.08.11a.3.3 0 0 0 .06.11l1.33 1.69.14.14a.25.25 0 0 0 .13 0l-.88.14v-.06a.11.11 0 0 0 .09-.12s0-.06-.06-.11Zm-.23-.31-.58-.77-.2.9ZM62.26 12.45l.18.78a.13.13 0 0 0 .05.07.19.19 0 0 0 .09 0v.05l-.75.11v-.05a.18.18 0 0 0 .08-.06.11.11 0 0 0 0-.08l-.46-2a.15.15 0 0 0 0-.08.24.24 0 0 0-.1 0v-.06l1.49-.21a2.62 2.62 0 0 1 .43 0 .94.94 0 0 1 .3.07.71.71 0 0 1 .27.21.93.93 0 0 1 .13.31.6.6 0 0 1-.48.77l.61.58a1.24 1.24 0 0 0 .22.19.29.29 0 0 0 .16 0l-.86.13v-.05c.06 0 .08 0 .07-.08s0-.07-.11-.14l-.64-.62Zm-.09-.39.8-.12h.25a.23.23 0 0 0 .12-.06.25.25 0 0 0 .08-.28.3.3 0 0 0-.19-.23.4.4 0 0 0-.15 0h-.25l-.8.12ZM65.74 11.9l.18.8a.14.14 0 0 0 .14.11v.06l-.74.11v-.06a.12.12 0 0 0 .08-.05s0 0 0-.09l-.19-.8-1-1a.85.85 0 0 0-.2-.17.22.22 0 0 0-.14 0v-.06l.94-.14v.06q-.1 0-.09.12s0 .06.1.13l.57.56.29-.69v-.15a.07.07 0 0 0 0-.06s0 0-.09 0v-.05l.91-.13a.25.25 0 0 0-.12.08.84.84 0 0 0-.11.2ZM69.63 11.72l-1.06.16-.08.35a.22.22 0 0 0 0 .11c0 .05.06.08.14.09v.05l-.77.12v-.06a.15.15 0 0 0 .09-.06.53.53 0 0 0 0-.14l.44-1.93a.23.23 0 0 0 0-.14.13.13 0 0 0-.12-.1v-.05l.83-.13v.06c-.06 0-.09.07-.07.12a.19.19 0 0 0 .05.1l1.31 1.67a.94.94 0 0 0 .13.14h.13v.05l-.85.13v-.05c.07 0 .1-.07.08-.13s0 0-.06-.1Zm-.22-.3-.57-.77-.19.88ZM72.6 9.67l.3 1.3a.9.9 0 0 1 0 .57q-.16.38-.93.48a1.68 1.68 0 0 1-.89 0 .63.63 0 0 1-.31-.25 1.3 1.3 0 0 1-.16-.41l-.3-1.3a.15.15 0 0 0 0-.08.17.17 0 0 0-.1 0v-.14l.72-.1a.22.22 0 0 0-.07.06.19.19 0 0 0 0 .08l.27 1.16a2 2 0 0 0 .1.3.44.44 0 0 0 .12.15.77.77 0 0 0 .59.09.69.69 0 0 0 .52-.26.25.25 0 0 0 0-.17 1.37 1.37 0 0 0 0-.3l-.27-1.16a.15.15 0 0 0 0-.08.29.29 0 0 0-.1 0v-.04l.68-.1v.06a.14.14 0 0 0-.07.06s-.11.04-.1.08ZM74.33 9.62l.41 1.76a.22.22 0 0 0 .05.08h.09l-.71.11v-.05a.28.28 0 0 0 .08-.06.14.14 0 0 0 0-.09l-.42-1.67-.71.1a.15.15 0 0 0-.08 0 .2.2 0 0 0 0 .09l-.14-.6s0 .07.07.08a.1.1 0 0 0 .08 0L75 9.14h.07a.14.14 0 0 0 0-.09h.06l.14.6h-.06a.18.18 0 0 0-.06-.08.13.13 0 0 0-.09 0ZM77.59 10.09l-1.32.2.2.83a.1.1 0 0 0 0 .08h.09l-.71.11v-.05a.22.22 0 0 0 .07-.06.19.19 0 0 0 0-.08l-.46-2a.2.2 0 0 0 0-.08h-.1v.04l.71-.08v.06a.12.12 0 0 0-.08.05.14.14 0 0 0 0 .09l.17.74 1.32-.2-.16-.74a.08.08 0 0 0 0-.07.12.12 0 0 0-.09 0v-.12l.71-.1a.14.14 0 0 0-.07.06.08.08 0 0 0 0 .08l.46 1.95a.08.08 0 0 0 0 .07.19.19 0 0 0 .09 0l-.71.11v-.06a.1.1 0 0 0 .07-.05.08.08 0 0 0 0-.08ZM79.53 8.42a1.5 1.5 0 0 1 1 .19 1.32 1.32 0 0 1 .57.82 1.07 1.07 0 0 1 0 .64 1.12 1.12 0 0 1-1 .73 1.42 1.42 0 0 1-1-.18 1.37 1.37 0 0 1-.57-.81 1.23 1.23 0 0 1 0-.66 1.13 1.13 0 0 1 1-.73Zm.09.39a.76.76 0 0 0-.49.28.74.74 0 0 0-.11.64.87.87 0 0 0 .39.57.86.86 0 0 0 .59.11.7.7 0 0 0 .5-.28.79.79 0 0 0 .13-.31.88.88 0 0 0 0-.32.83.83 0 0 0-.4-.57.85.85 0 0 0-.61-.12ZM82.11 9.49l.18.76v.07a.12.12 0 0 0 .09 0v.06l-.71.1a.14.14 0 0 0 .07-.06.1.1 0 0 0 0-.08l-.46-1.94a.08.08 0 0 0 0-.07.12.12 0 0 0-.09 0v-.11L82.6 8a2.15 2.15 0 0 1 .4 0 .64.64 0 0 1 .28.06.72.72 0 0 1 .25.21.81.81 0 0 1 .13.3.56.56 0 0 1-.45.74l.58.57a1.94 1.94 0 0 0 .22.19.32.32 0 0 0 .14 0v.05l-.8.13v-.06c.06 0 .08 0 .07-.07s0-.07-.11-.14l-.61-.6ZM82 9.11l.78-.11A1.19 1.19 0 0 0 83 9a.23.23 0 0 0 .12-.06.25.25 0 0 0 .07-.26.29.29 0 0 0-.19-.28.31.31 0 0 0-.13 0h-.24l-.76.11ZM84.52 9.91 84.06 8a.08.08 0 0 0 0-.07.19.19 0 0 0-.09 0l.69-.1-.08.06a.11.11 0 0 0 0 .08L85 9.84a.13.13 0 0 0 0 .07.19.19 0 0 0 .09 0V10l-.7.1a.14.14 0 0 0 .07-.06.17.17 0 0 0 .06-.13ZM86.27 7.86l.4 1.73a.13.13 0 0 0 0 .07.12.12 0 0 0 .09 0v.06l-.69.1a.28.28 0 0 0 .08-.06.11.11 0 0 0 0-.08l-.41-1.72-.69.1a.09.09 0 0 0-.07 0 .2.2 0 0 0 0 .09l-.14-.59a.19.19 0 0 0 .07.08.1.1 0 0 0 .08 0l1.86-.27h.07a.14.14 0 0 0 0-.09H87l.14.58h-.04a.28.28 0 0 0-.1-.09ZM89 8.45l.18.77v.07a.19.19 0 0 0 .09 0v.05l-.69.1v-.01a.22.22 0 0 0 .07-.06.17.17 0 0 0 0-.08l-.19-.77-.95-.93a1.59 1.59 0 0 0-.19-.16.32.32 0 0 0-.14 0v-.09l.82-.12a.1.1 0 0 0-.08.12.58.58 0 0 0 .1.12l.54.55.26-.67a.43.43 0 0 0 0-.14v-.06a.11.11 0 0 0-.08 0l.88-.14a.18.18 0 0 0-.11.07.84.84 0 0 0-.11.2Z"/><path class="f8b3b549-76eb-43fb-90b8-4e7a0ce8c853" d="m72.11 65.5 1.8 7.81-14.65 3.5-1.84-8 2.68-.61-1.05-4.58h-.16a8.24 8.24 0 0 1-1 .14l-1.63.11-1.77-7.7 2-.25h.19a6 6 0 0 0 2.39-1 3.51 3.51 0 0 0 1.21-1.31l.36-.89 5.52-1.14 3.44 14.48Zm-.4 6.39-.2-.89-11.05 2.6.2.89Zm-.41-1.79-.21-.88-11 2.56.2.9Zm-.41-1.77-.2-.89L59.63 70l.21.9ZM68 67.13l-.21-.9-5.86 1.33.21.9Zm-.42-1.79-.2-.9-5.87 1.32.21.9Zm-.41-1.79-.2-.89L61.05 64l.21.9Zm-.41-1.78-.2-.89-5.88 1.28.21.9ZM66.3 60l-.2-.9-8.55 1.85.21.9Zm-.41-1.79-.2-.88-8.55 1.82.2.9Zm-.41-1.78-.2-.89-5.36 1.13a8.23 8.23 0 0 1-2.74 1.11l-.34.07.09.4Zm-.41-1.78-.21-.89-2.78.58a4.22 4.22 0 0 1-.68 1.08Z"/><path class="b9b8fd70-60d6-4648-b495-a5f8a7395c35" d="m71.51 71 .2.89-11.05 2.6-.2-.89L71.51 71zM71.09 69.22l.21.89-11.06 2.57-.19-.9 11.04-2.56zM70.69 67.44l.2.89-11.05 2.55-.21-.9 11.06-2.54zM67.74 66.23l.21.9-5.86 1.33-.21-.9 5.86-1.33zM67.33 64.44l.2.9-5.86 1.32-.21-.9 5.87-1.32zM66.92 62.66l.2.89-5.86 1.31-.21-.9 5.87-1.3zM66.51 60.88l.2.89-5.87 1.29-.21-.9 5.88-1.28zM66.09 59.09l.21.9-8.54 1.85-.21-.9 8.54-1.85zM65.69 57.32l.2.88-8.55 1.84-.2-.9 8.55-1.82zM65.28 55.53l.2.89-8.55 1.82-.09-.4.34-.07a8.23 8.23 0 0 0 2.74-1.11ZM64.86 53.75l.21.89-3.67.77a4.22 4.22 0 0 0 .68-1.08Z"/><path d="m59.26 76.81-1.84-8 2.68-.61-1.05-4.58h-.16a8.24 8.24 0 0 1-1 .14l-1.63.11-1.77-7.7 2-.25h.19a6 6 0 0 0 2.39-1 3.51 3.51 0 0 0 1.21-1.31l.36-.89 5.52-1.14 3.44 14.48 2.51-.56 1.8 7.81Z" style="fill:none;stroke:#040821;stroke-miterlimit:10"/></g></g></svg>