<svg xmlns="http://www.w3.org/2000/svg" viewBox="0 0 124.77 241.47">
    <defs>
        <style>.cls-1{fill:#6084a2}.cls-1,.cls-10,.cls-3,.cls-5,.cls-6,.cls-9{stroke:#040000}.cls-1,.cls-3,.cls-5,.cls-6,.cls-9{stroke-linecap:round;stroke-linejoin:round}.cls-3{fill:#040000}.cls-5{fill:#b53822}.cls-6{fill:#3d0304}.cls-10,.cls-9{fill:#8f2122}.cls-10{stroke-miterlimit:10}</style>
    </defs>
    <path class="cls-1" d="M31.73 57s-14.67 8.67-19.5 20.5a30 30 0 0 0-1.58 15.17S1 102 1.65 121.44s6.83 28.66 6.83 28.66l5.25-4.66s13.5 6.75 21.33 6.83S31.73 57 31.73 57ZM81.9 50.6s28.83 10.84 30 37.17c0 0 24 36.17-.5 61.67L73.56 64.1Z" />
    <path d="M31.67 46.6s-7.33-14.77-8.55-21.55.78-22 19.78-24.33 16.55 15 16.55 15 3.67 2.33 8.45 16.55c0 0 6.44-.22 15.66 21.56a44.09 44.09 0 0 1 25.5 34.44s5.34 8.17 8.67 25.5c0 0 19.5 29.83-8.83 33.5 0 0-7-.67-17.34 6.5l5.84 17.5a58.61 58.61 0 0 1-24.5-4.67l-.17-2.16s-2 2.33-9.17.33c0 0-2.66-1.67-1.66-4.17 0 0-32 .34-27.84-8.33 0 0 .5-3.83-.33-3.83s-15.33 0-20-3c0 0-24.33-5-7-29.5 0 0 1.33-5.34 3.33-8.17 0 0-1.83-3.67 2.67-10.67 0 0-5-5.16 4.5-12.33 0 0-1-13.5 14-24Z" style="fill:#fff;stroke-linecap:round;stroke-linejoin:round;stroke:#040000" />
    <path class="cls-3" d="M33.91 22.87a2.42 2.42 0 0 0-.15-2.55 8.35 8.35 0 0 0-3.15-2.67c-2.33-1.15-2.72 1.48-2.79 2.66a2.62 2.62 0 0 0 .14 1c.41 1.11 1.56 4 2.44 3.7s2.23.23 3.51-2.14ZM57.74 11.39a1.13 1.13 0 0 0-1.48 0A4.18 4.18 0 0 0 55 14.23a3.35 3.35 0 0 0 2.54 3.46s1.5.71 1.25-2.09c-.23-2.41.14-3.2-1.05-4.21Z" />
    <path d="M45 27.6s15.69 6 16.08 9.53c0 0 .56 1 .58-.08S59 27.08 45 27.6Z" style="fill:#784020;stroke-linecap:round;stroke-linejoin:round;stroke:#040000" />
    <path class="cls-5" d="M75.81 156.27c-.16.5-2.16 12.83-2.16 12.83s-3.42 4.09-.84 11.17c0 0-.25 18.58-3.16 29.42l-5.92 6.41s-8.17 1.42-15.73 11.09c0 0 2.58-.42 3.17 1.25 0 0 16.08-4 24.5 1.33 0 0 .66-7.25 4.16-.42 0 0 2.67-6.33 20.25-8.08 0 0-3.5-1.5-1.16-3.25 0 0-15.67-.42-19.84-1.92 0 0-4.33-1.66-4.83-4.41 0 0 .67-20 2.67-30.25 0 0 2.83-1.09 2.33-10.34l1.5-17.16-2.58 5.33Z" />
    <path class="cls-6" d="M75.65 229.77a10.73 10.73 0 0 0 2.35 3.08s2.06-2.91 2.15-4.37-4.15-4.71-4.5 1.29ZM99.4 221s.94-1 3.33 1.33c0 0-.67-6.36-4.47-3.86 0 .02-.64 1.36 1.14 2.53Z" />
    <path d="M43.9 27.52s8.41-1.92 6.75-7.52 3.71.46 3.71.46 8.3 3.1 7.31 16.61c0-.02-1.19-9.88-17.77-9.55Z" style="fill:#eca42f;stroke-linecap:round;stroke-linejoin:round;stroke:#040000" />
    <path d="M54.36 20.44s2.87 2.91 6.12 3.16c0 0 .25 2 1.38 13.17 0 0 1.33-10.83-7.5-16.33Z" style="fill:#af7822;stroke-linecap:round;stroke-linejoin:round;stroke:#040000" />
    <path class="cls-6" d="M48.7 230.13a22.91 22.91 0 0 1 .86-3.22c.27-.4 1.9 1.28 1.75 1.67 0 0-.31-.8-2.61 1.55Z" />
    <path class="cls-9" d="M51.36 228.27s14.87-3.71 23.83 1.29c0 0-1.63-13.16-5.42-16.25 0 0-.87-.5-5.66 4.59 0 0-8.42 2.7-12.75 10.37ZM75.31 215.19a56.73 56.73 0 0 1 5.06 12.89s5.86-5.89 19-7.06a2.05 2.05 0 0 1-1.67-2.5s-16.47 3.21-22.39-3.33Z" />
    <path class="cls-5" d="m39.12 152.83 2.33 3.44 2.78-.44-.33 10.66s3.11 3.34 0 12.45c0 0-1.11 19.11-.23 30l3.33 5.11 17.23 5.42a.2.2 0 0 1 .09.33 1.52 1.52 0 0 0-.43 1 .22.22 0 0 1-.39.12c-1.16-1.33-5.68-2.58-22.28 15.59 0 0-1.78-4.11-5.67 0 0 0-5.89-8.11-19.55-4.89 0 0-1-3.11-2.22-2.77s8.67-17.36 23.22-15.69l2.44-4s1.11-26 .22-31.22c0 0-2.55-5.34-.66-9.56 0 0 1.12-13.11.12-15.55Z" />
    <path class="cls-6" d="M14.62 228a5.72 5.72 0 0 0-.62 5l2.61-2.5ZM35.54 235.19c-.08.08.55 4.39 2.83 5.78 0 0 3.44-3.53 3-5.56s-4-2.19-5.83-.22ZM63.57 221.07a3 3 0 0 1 2.61 1.77s1.13-3.44-1.17-3.37-1.44 1.6-1.44 1.6Z" />
    <path class="cls-10" d="M16.73 231.1s6-17.45 20.5-16.29l-1.71 20.63s-5.12-6.06-18.79-4.34ZM41.4 235.73s17.14-18.88 21.94-15.18c0 0-15.8-4.28-19.69-5 0 .05-4.03 10.96-2.25 20.18Z" />
</svg>