<svg xmlns="http://www.w3.org/2000/svg" viewBox="0 0 259.19 125.29">
    <defs>
        <style>.a9b38519-b764-497b-b5e4-aaa1be6dee9d,.f7c9f9d9-0c88-4ea2-936a-b5a6300e5ec1{fill:#efefee}.a98f8fdf-599f-428c-b809-bbcbfca402ce,.be56b7a5-0e8f-4c79-bc18-92537c81957e{fill:none}.be56b7a5-0e8f-4c79-bc18-92537c81957e{stroke:#afc2e3}.a98f8fdf-599f-428c-b809-bbcbfca402ce,.be56b7a5-0e8f-4c79-bc18-92537c81957e,.f7c9f9d9-0c88-4ea2-936a-b5a6300e5ec1{stroke-miterlimit:10}.b4d7c226-bf86-4479-b612-092dae0d39a8{fill:#afc2e3}.bc53baf6-d8b1-42ab-b33f-cf7f9ab8af37{fill:#e71f19}.a98f8fdf-599f-428c-b809-bbcbfca402ce{stroke:#d7dde0}.a0d0388e-d6e6-4ef8-9a73-24e09b2eca11{fill:#74a2d1}.f7c9f9d9-0c88-4ea2-936a-b5a6300e5ec1{stroke:#adbedd}.fc448fd8-1155-4dc5-be02-ef1180a991a7{fill:#adbedd}</style>
    </defs>
    <path class="a9b38519-b764-497b-b5e4-aaa1be6dee9d" d="M0 119.12 7.75 5.43A6.2 6.2 0 0 1 14.08 0h231a6.2 6.2 0 0 1 6.33 5.43l7.73 113.69a5.79 5.79 0 0 1-6 6.17H6a5.8 5.8 0 0 1-6-6.17Z" />
    <path class="be56b7a5-0e8f-4c79-bc18-92537c81957e" d="M14.43 119.21a7.55 7.55 0 0 1-7.85-7.89L13 12.38c.25-3.89 4-7 8.31-7h216.57c4.33 0 8.06 3.15 8.31 7l6.41 98.94a7.54 7.54 0 0 1-7.84 7.89Z" />
    <path class="b4d7c226-bf86-4479-b612-092dae0d39a8" d="M244.65 117.44H14.54a5.8 5.8 0 0 1-6-6.13l6.31-98.93a6.21 6.21 0 0 1 6.34-5.47H238a6.22 6.22 0 0 1 6.34 5.47l6.31 98.93a5.8 5.8 0 0 1-6 6.13Z" />
    <path d="M27.21 107.53c-4.58 0-8.1-3.51-7.84-7.8l4.48-76.81c.23-3.94 4-7.13 8.32-7.13H227c4.36 0 8.09 3.19 8.32 7.13l4.49 76.81c.25 4.29-3.27 7.8-7.85 7.8Z" style="stroke:#efefee;stroke-miterlimit:10;fill:none" />
    <path class="a9b38519-b764-497b-b5e4-aaa1be6dee9d" d="m21.34 99.73 4.41-76.81a6.2 6.2 0 0 1 6.34-5.53h195a6.21 6.21 0 0 1 6.34 5.53l4.41 76.81a5.79 5.79 0 0 1-6 6H27.31a5.79 5.79 0 0 1-5.97-6Z" />
    <g style="opacity:.76">
        <path class="bc53baf6-d8b1-42ab-b33f-cf7f9ab8af37" d="M252 103.66a.29.29 0 0 0 .12-.43l-1.4-2.18a21.38 21.38 0 0 0 .44-4.19l1.84-1.74a.3.3 0 0 0-.05-.45l-2.1-1.67a24.15 24.15 0 0 0-1-4.16l1.07-2.16a.3.3 0 0 0-.18-.42l-2.54-1.09a25.55 25.55 0 0 0-2.42-3.67l.22-2.4a.33.33 0 0 0-.32-.35l-2.73-.37a28.84 28.84 0 0 0-3.56-2.9l-.6-2.34a.37.37 0 0 0-.42-.26l-2.67.38a31.77 31.77 0 0 0-4.34-1.84L230 69.33a.4.4 0 0 0-.48-.13l-2.36 1.08a33.19 33.19 0 0 0-4.71-.61l-2-1.64a.42.42 0 0 0-.52 0L218 69.69a35.53 35.53 0 0 0-4.64.69l-2.49-1a.37.37 0 0 0-.47.14l-1.1 2.08a28.83 28.83 0 0 0-4.1 1.89l-2.74-.35a.34.34 0 0 0-.38.26l-.33 2.36a23.65 23.65 0 0 0-3.21 2.95l-2.7.4a.31.31 0 0 0-.27.36l.52 2.35a22 22 0 0 0-2 3.74l-2.39 1.12a.29.29 0 0 0-.14.42l1.33 2.14a21.34 21.34 0 0 0-.57 4.16l-1.87 1.74a.3.3 0 0 0 0 .44l2 1.72a23.2 23.2 0 0 0 .92 4.17l-1.15 2.2a.3.3 0 0 0 .17.42l2.61 1.11a23.92 23.92 0 0 0 2.35 3.77l-.32 2.47a.33.33 0 0 0 .31.35l2.77.38a28.61 28.61 0 0 0 3.56 3l.57 2.46a.39.39 0 0 0 .44.27l2.73-.4a31.21 31.21 0 0 0 4.42 1.92l1.4 2.22a.41.41 0 0 0 .5.14l2.44-1.15a31.19 31.19 0 0 0 4.84.64l2.08 1.75a.41.41 0 0 0 .52 0l1.9-1.79a29.6 29.6 0 0 0 4.74-.71l2.58 1.11a.36.36 0 0 0 .47-.14l1.15-2.25a28 28 0 0 0 4.17-2l2.81.36a.34.34 0 0 0 .39-.27l.28-2.46a23.34 23.34 0 0 0 3.21-3.07l2.71-.41a.3.3 0 0 0 .28-.36l-.6-2.43a21.86 21.86 0 0 0 1.92-3.84Zm-4.12 2c-.19.41-.39.82-.61 1.21a22.9 22.9 0 0 1-3.94 5.3c-.32.33-.66.66-1 1a25.64 25.64 0 0 1-5.7 3.89c-.43.23-.88.44-1.33.64a29.51 29.51 0 0 1-6.9 2.09c-.5.09-1 .16-1.5.22a30.92 30.92 0 0 1-7.39.06c-.51-.05-1-.12-1.54-.2a32 32 0 0 1-3.64-.79 30.47 30.47 0 0 1-3.49-1.19c-.47-.19-1-.4-1.4-.62a29.45 29.45 0 0 1-6.16-3.8c-.38-.3-.76-.63-1.13-1a26.54 26.54 0 0 1-4.56-5.25c-.27-.39-.51-.78-.75-1.19a23.94 23.94 0 0 1-2.54-6.14c-.11-.44-.22-.89-.3-1.33a21.19 21.19 0 0 1-.27-6.41 12 12 0 0 1 .18-1.32 20 20 0 0 1 .75-3.1 21.52 21.52 0 0 1 1.22-3c.2-.4.41-.81.64-1.19a22.86 22.86 0 0 1 4-5.13c.33-.33.67-.65 1-1a26.34 26.34 0 0 1 5.66-3.74c.43-.21.87-.41 1.31-.6a29.12 29.12 0 0 1 6.72-2c.5-.1 1-.17 1.49-.22a31.4 31.4 0 0 1 7.19-.05c.5.05 1 .11 1.5.19a31.42 31.42 0 0 1 3.54.75 28.72 28.72 0 0 1 3.42 1.26c.47.18.93.37 1.38.58a30.14 30.14 0 0 1 6.08 3.64c.4.3.78.62 1.14.94a26.53 26.53 0 0 1 4.6 5.07c.28.39.53.78.78 1.19a23.45 23.45 0 0 1 2.68 6c.14.44.24.88.34 1.33a21.45 21.45 0 0 1 .46 6.4 12 12 0 0 1-.14 1.33 19.67 19.67 0 0 1-.67 3.15 21.07 21.07 0 0 1-1.14 3Z" />
        <path class="bc53baf6-d8b1-42ab-b33f-cf7f9ab8af37" d="m206.31 90 1.88 1.53a1.14 1.14 0 0 0 .24.15.29.29 0 0 0 .34-.12h.09l-.53 1.31h-.1a.24.24 0 0 0-.17-.27 1.55 1.55 0 0 0-.29 0h-3.15a2.75 2.75 0 0 0-.5 0 .49.49 0 0 0-.24.17h-.1l.55-1.34h.1q0 .23.15.27a.89.89 0 0 0 .29 0h2.18l-1.63-1.31a.73.73 0 0 0-.23-.15.29.29 0 0 0-.33.12h-.1l.64-1.56h.1c0 .15.05.25.17.29a.79.79 0 0 0 .26 0h2.17l-1.66-1.3a.62.62 0 0 0-.2-.12.28.28 0 0 0-.18 0 .43.43 0 0 0-.16.13h-.1l.56-1.36h.1a.49.49 0 0 0 .08.28 1.71 1.71 0 0 0 .33.31l2.38 1.97a.75.75 0 0 0 .24.14.28.28 0 0 0 .34-.13h.09l-.55 1.35h-.1a.26.26 0 0 0-.18-.29 1.35 1.35 0 0 0-.28 0ZM211.89 84.73l-1.71 1.4 1 1a.33.33 0 0 0 .16.09.46.46 0 0 0 .21-.05l.08.07-1.09.9-.04-.14a.24.24 0 0 0 .06-.18.22.22 0 0 0-.08-.15L208 85.42a.35.35 0 0 0-.17-.09.52.52 0 0 0-.21 0l-.07-.07 1.08-.89.08.07a.32.32 0 0 0-.07.18.2.2 0 0 0 .09.15l.87.81 1.72-1.4-.88-.82a.24.24 0 0 0-.16-.08.47.47 0 0 0-.21 0l-.07.02 1.08-.88.07.07c0 .07-.07.12-.06.17a.2.2 0 0 0 .09.15l2.44 2.27a.4.4 0 0 0 .17.09.48.48 0 0 0 .21 0l.08.07-1.09.89.01-.13a.27.27 0 0 0 .06-.17.24.24 0 0 0-.09-.16ZM213.82 81.62l1.68 2.73a.22.22 0 0 0 .14.12.38.38 0 0 0 .22 0v.09l-1.33.59-.06-.09a.27.27 0 0 0 .12-.15s0-.1 0-.17L212.92 82a.29.29 0 0 0-.13-.12.53.53 0 0 0-.22 0v-.09l1.33-.58.05.08a.35.35 0 0 0-.12.15.24.24 0 0 0-.01.18ZM217.66 80.86l.83 2.65a.3.3 0 0 0 .1.14.42.42 0 0 0 .22 0v.09l-1.46.31v-.1a.27.27 0 0 0 .15-.12.19.19 0 0 0 0-.17l-.84-2.65-1.21.26a.27.27 0 0 0-.17.08.3.3 0 0 0 0 .18h-.1l-.34-1.07h.1a.31.31 0 0 0 .14.14.43.43 0 0 0 .2 0l3.42-.71a.24.24 0 0 0 .16-.08.39.39 0 0 0 0-.18h.09l.34 1.07h-.1a.29.29 0 0 0-.34-.15ZM221.66 82l-.06.91 2.71.24a.29.29 0 0 0 .19 0 .34.34 0 0 0 .11-.16h.11l-.07 1.1h-.11a.34.34 0 0 0-.09-.17.24.24 0 0 0-.18-.06l-4-.36v-.09a.42.42 0 0 0 .2-.07.21.21 0 0 0 .06-.16l.21-3a.27.27 0 0 0 0-.16.65.65 0 0 0-.19-.1v-.1l3.86.35a.42.42 0 0 0 .18 0 .35.35 0 0 0 .12-.16h.1l-.07 1.1h-.11a.26.26 0 0 0-.27-.24l-2.59-.23-.06.82 1.61.14a.29.29 0 0 0 .19 0 .34.34 0 0 0 .11-.16h.11l-.07 1.07h-.11a.3.3 0 0 0-.09-.17.3.3 0 0 0-.18-.07ZM227.54 83.77l1.86-1.38a.93.93 0 0 0 .2-.19c.05-.1 0-.2-.13-.3v-.09l1.52.64v.08a.64.64 0 0 0-.25 0 1.2 1.2 0 0 0-.28.17l-2.63 1.9a.75.75 0 0 0-.18.17c-.05.1 0 .2.14.29v.08l-1.55-.65.05-.08c.16 0 .27 0 .32-.09a.67.67 0 0 0 0-.23l-.12-3a1.46 1.46 0 0 0 0-.31.49.49 0 0 0-.16-.17v-.09l1.58.66-.05.08c-.17 0-.28 0-.32.11a.49.49 0 0 0 0 .27ZM231.52 85.61l-.72.64 2 1.73a.33.33 0 0 0 .17.08.34.34 0 0 0 .2 0l.08.07-.88.76-.07-.07a.38.38 0 0 0 .06-.17.26.26 0 0 0-.1-.16l-2.88-2.53.07-.07a.38.38 0 0 0 .21.06.28.28 0 0 0 .16-.07l2.43-2.11a.23.23 0 0 0 .08-.14.34.34 0 0 0-.06-.19l.07-.06 2.8 2.45a.4.4 0 0 0 .17.09.46.46 0 0 0 .21-.05l.08.06-.88.77-.08-.07a.22.22 0 0 0 0-.33l-1.89-1.65-.65.56 1.17 1a.27.27 0 0 0 .17.08.32.32 0 0 0 .2 0l.08.06-.85.75-.08-.07a.38.38 0 0 0 .06-.18.26.26 0 0 0-.1-.15ZM234.79 89.28l-1.23.47a.27.27 0 0 0-.14.1.26.26 0 0 0 0 .2h-.1l-.66-1.22h.1a.44.44 0 0 0 .17.12.26.26 0 0 0 .19 0l3.16-1.2a.27.27 0 0 0 .14-.1.38.38 0 0 0 0-.19h.1l1.22 2.27a3.47 3.47 0 0 1 .32.69 1.18 1.18 0 0 1 0 .49.9.9 0 0 1-.69.71 1.23 1.23 0 0 1-.86 0 1.87 1.87 0 0 1-.78-.6l-.67 1a2.08 2.08 0 0 0-.23.43.48.48 0 0 0 0 .29h-.09l-.74-1.39h.1c.09.1.17.13.24.1s.11-.08.18-.18l.73-1.12Zm.7-.27.68 1.26a1.09 1.09 0 0 0 .3.39.44.44 0 0 0 .47 0 .37.37 0 0 0 .27-.26 1.05 1.05 0 0 0-.16-.52l-.68-1.25Z" />
        <path class="bc53baf6-d8b1-42ab-b33f-cf7f9ab8af37" d="m239 96.31-1-.41.05-.08a.26.26 0 0 0 .19-.08 1.36 1.36 0 0 0 .25-.58 2.5 2.5 0 0 0 0-.77 1.72 1.72 0 0 0-.18-.58c-.13-.23-.28-.35-.47-.34a.26.26 0 0 0-.25.19 2.37 2.37 0 0 0 0 .68v.54a2.29 2.29 0 0 1-.19 1.12 1.1 1.1 0 0 1-.33.35 1.3 1.3 0 0 1-.63.2 1.29 1.29 0 0 1-1.09-.48 2.34 2.34 0 0 1-.53-1.32A3.53 3.53 0 0 1 235 93s0-.07 0-.09 0-.09-.1-.12v-.09l1.09.34v.08a.25.25 0 0 0-.16.08 1.32 1.32 0 0 0-.22.6 2.83 2.83 0 0 0 0 .82 2 2 0 0 0 .18.64c.12.23.27.34.46.33a.3.3 0 0 0 .3-.26 2.59 2.59 0 0 0 0-.58v-.54a3.07 3.07 0 0 1 0-.66 1 1 0 0 1 .13-.4.88.88 0 0 1 .38-.36 1.26 1.26 0 0 1 .56-.15 1.33 1.33 0 0 1 1.14.49 2.21 2.21 0 0 1 .48 1.18 3 3 0 0 1 0 .73 4.84 4.84 0 0 1-.25.82.37.37 0 0 0-.05.19s0 .09.1.14ZM236.59 98.3l-1-.26-.65 2.32a.31.31 0 0 0 0 .17.41.41 0 0 0 .17.13v.09l-1.24-.31v-.1a.31.31 0 0 0 .21 0 .24.24 0 0 0 .1-.15l1-3.39h.11a.24.24 0 0 0 .05.18.25.25 0 0 0 .17.09l3.43.88a.3.3 0 0 0 .19 0 .33.33 0 0 0 .14-.13h.11l-.92 3.3a.35.35 0 0 0 0 .18.41.41 0 0 0 .17.13v.09l-1.24-.32v-.09a.43.43 0 0 0 .22 0 .21.21 0 0 0 .09-.14l.62-2.22-.92-.24-.39 1.38a.24.24 0 0 0 0 .17.45.45 0 0 0 .16.13v.09l-1.21-.31v-.09a.51.51 0 0 0 .21 0 .24.24 0 0 0 .1-.15ZM215.71 93a1.64 1.64 0 0 0-.29-1 1.6 1.6 0 0 0-.85-.62c-.5-.12-.83 0-1 .37a.52.52 0 0 0 0 .5 2.76 2.76 0 0 0 .49.51l.91.81a2.25 2.25 0 0 1 .46.54 1.12 1.12 0 0 1 .08.84 1.31 1.31 0 0 1-.81.78 2.46 2.46 0 0 1-1.48 0 4.56 4.56 0 0 1-1-.38 1.12 1.12 0 0 1-.27-.16.21.21 0 0 0-.29.12l-.21-.06.49-1.55.21.06a1.87 1.87 0 0 0 .25 1.13 1.42 1.42 0 0 0 .89.67c.6.2 1 0 1.18-.46.08-.28-.12-.62-.62-1a4 4 0 0 1-.43-.37 2.91 2.91 0 0 1-.71-.73 1.17 1.17 0 0 1-.17-1 1.24 1.24 0 0 1 .64-.69 2 2 0 0 1 1.46-.13l.28.11a4.58 4.58 0 0 1 .5.27s0 .05.1.09l.23.09h.09c.09 0 .14-.06.22-.19l.24.06-.44 1.39ZM217 91.93l4.31 1.17-.41 1.32-.21-.06a1.38 1.38 0 0 0-1.21-1.5c-.45-.13-.7-.08-.75.13l-.47 1.52a1.22 1.22 0 0 0 .82 0 1.2 1.2 0 0 0 .64-.67h.18l-.69 2.22h-.18a1.24 1.24 0 0 0-.14-.79 1 1 0 0 0-.7-.53l-.5 1.6q-.06.41.54.54a2.07 2.07 0 0 0 1.11 0 2.54 2.54 0 0 0 1.15-.67l.21.06-.72 1.29-4.37-1.2.05-.16a.67.67 0 0 0 .83-.3l1-3.17c.07-.34-.11-.57-.53-.68ZM225.78 99.19l-2.47-.68v-.15h.21c.32.09.49 0 .52-.22s-.06-.49-.11-.9l-1.72-.47a4.07 4.07 0 0 0-.41.43.83.83 0 0 0-.19.33q0 .18.42.42h.12l-.05.15-1.55-.42v-.16c.3 0 .62-.16 1-.57l2.82-3.18.21.06.62 4a3.24 3.24 0 0 0 .14.74.56.56 0 0 0 .41.42ZM223.93 97l-.27-1.84-1.22 1.43ZM230.43 100.47l-4.32-1.19v-.16c.41.1.68 0 .81-.31l1-3.18c.06-.34-.11-.56-.51-.67v-.15l2.65.72v.16c-.5-.11-.83 0-1 .4l-1 3.13c0 .23.14.42.58.56a1.84 1.84 0 0 0 1.09 0A2.35 2.35 0 0 0 231 99l.21.05ZM216.27 99.69l1.25.34a.08.08 0 0 0 .07 0h.06l-.15.49h-.05a.08.08 0 0 0 0-.07.09.09 0 0 0-.06 0l-1.58-.43h-.11l-.06.06a.81.81 0 0 0 0-.09 1 1 0 0 1 .13-.26.91.91 0 0 1 .44-.28 4 4 0 0 1 .47-.08h.28a1 1 0 0 0 .3-.07.31.31 0 0 0 .14-.16.22.22 0 0 0 0-.21.58.58 0 0 0-.25-.13.9.9 0 0 0-.43 0c-.14 0-.22.07-.24.13a.26.26 0 0 0 0 .09l-.28-.48a.25.25 0 0 0 .08 0h.09a1.35 1.35 0 0 1 .89 0 1 1 0 0 1 .5.3.48.48 0 0 1 .09.46.55.55 0 0 1-.33.35 1.44 1.44 0 0 1-.42.1h-.43a.73.73 0 0 0-.25 0 .47.47 0 0 0-.15-.06ZM219.34 98.93a1 1 0 0 1 .6.41.87.87 0 0 1 .08.78 1.11 1.11 0 0 1-.13.27 1.07 1.07 0 0 1-.2.22.9.9 0 0 1-.45.18 1.21 1.21 0 0 1-.46 0 1 1 0 0 1-.6-.41.91.91 0 0 1-.12-.31 1 1 0 0 1 0-.46.94.94 0 0 1 .34-.5.93.93 0 0 1 .44-.19 1.06 1.06 0 0 1 .5.01Zm-.09.3a.45.45 0 0 0-.43.08.63.63 0 0 0-.26.38.66.66 0 0 0 0 .46.48.48 0 0 0 .33.29.5.5 0 0 0 .43-.08.74.74 0 0 0 .26-.38.63.63 0 0 0 0-.47.44.44 0 0 0-.33-.28ZM220.63 100.89l1.24.34h.24l-.15.49a.12.12 0 0 0 0-.07.09.09 0 0 0-.06 0l-1.59-.44h-.11a.11.11 0 0 0-.06.06h-.05v-.08a.7.7 0 0 1 .13-.26.86.86 0 0 1 .44-.28 2.46 2.46 0 0 1 .46-.08h.28a.79.79 0 0 0 .3-.08.25.25 0 0 0 .14-.16.21.21 0 0 0 0-.2.53.53 0 0 0-.25-.14 1 1 0 0 0-.43 0c-.14 0-.22.07-.24.14V100l-.28-.49a.2.2 0 0 0 .08 0h.09a1.42 1.42 0 0 1 .89 0 .86.86 0 0 1 .5.3.48.48 0 0 1 .09.46.55.55 0 0 1-.33.35 1.8 1.8 0 0 1-.41.09h-.8a.61.61 0 0 0-.12.18ZM222.81 101.49l1.24.34a.11.11 0 0 0 .08 0h.11l-.15.49h-.05a.12.12 0 0 0 0-.07.09.09 0 0 0-.06 0l-1.59-.44a.23.23 0 0 0-.11 0 .11.11 0 0 0-.06.06.22.22 0 0 1 0-.08.7.7 0 0 1 .12-.26.87.87 0 0 1 .45-.28 2.31 2.31 0 0 1 .46-.08h.28a.79.79 0 0 0 .3-.08.25.25 0 0 0 .14-.16.2.2 0 0 0 0-.2.46.46 0 0 0-.25-.14 1 1 0 0 0-.43 0c-.14 0-.22.07-.24.14a.2.2 0 0 0 0 .08l-.28-.48a.15.15 0 0 0 .08 0h.09a1.42 1.42 0 0 1 .89 0 .86.86 0 0 1 .5.3.46.46 0 0 1 .09.45.54.54 0 0 1-.33.36 1.8 1.8 0 0 1-.41.09h-.69a.37.37 0 0 0-.18-.04ZM225.63 113.87c-.25 0-.44.26-.12 2 .29 1.52.56 1.71.81 1.68h.11l-.69-3.67ZM200.86 101l-1.4.6 1.55-.23-.13-.34-.02-.03ZM230 114.08l.77 1.27-.37-1.39-.4.04v.08ZM224 115h-.41l.34 1.39.1-1.41-.03.02ZM242.9 92.54c0 .22.32.39 2.23.16 1.67-.2 1.86-.43 1.81-.65v-.1l-4 .49ZM217.14 113.31c-.19 0-.45.38-.84 1.8-.33 1.22-.32 1.72-.13 1.77s.44-.39.77-1.61c.39-1.42.38-1.92.2-1.96ZM208.35 80.56c.14-.1-.09-.54-1.14-1.66-.9-1-1.35-1.24-1.49-1.14s.09.53 1 1.49c1.04 1.12 1.49 1.41 1.63 1.31ZM211.39 111.08c-.21-.12-.54 0-1.53 1.41-.86 1.28-.78 1.58-.57 1.7h.1l2.1-3.11ZM242.84 88.77l1.34-.63-1.52.27.15.33a.06.06 0 0 0 .03.03ZM221.76 114c-.19 0-.34.46-.36 1.94 0 1.27.12 1.75.31 1.76s.34-.46.35-1.73c.02-1.49-.06-1.97-.3-1.97ZM208.91 110.76l-.73 1.22 1.09-1ZM203.94 83.13l.24-.28-1.37-.69 1.12 1s0-.02.01-.03ZM203.9 85c.13-.18 0-.47-1.6-1.4-1.44-.81-1.76-.76-1.89-.58l-.06.09 3.49 2ZM206 107c-.13-.13-.62.07-1.88 1-1.07.79-1.38 1.18-1.25 1.32s.61-.08 1.68-.87c1.28-.95 1.59-1.34 1.45-1.45ZM244.38 94.36l1.52-.26-1.57-.1v.35s.02.02.05.01ZM199.64 95.3l-1.55.22 1.58.16v-.35s-.01-.03-.03-.03ZM201 97.19c0-.22-.31-.4-2.23-.22-1.69.16-1.9.39-1.86.61v.09l4.09-.38Z" />
        <path class="bc53baf6-d8b1-42ab-b33f-cf7f9ab8af37" d="M228.57 72.94c-14.16-3.83-28.86 2.94-32.85 15.23-4.05 12.45 4.37 26 18.84 30s29.51-3.07 33.23-15.71c3.68-12.46-4.99-25.67-19.22-29.52Zm18.81 25.34.2-.14h.06l-.19 1.43h-.06l-1.58-.23h.05l1.23-.12a.15.15 0 0 0 .14-.13v-.31l-1.85-.27v.12a.09.09 0 0 0 0 .07l.41.24-1.34-.2.48-.13h.06v-.12l-1.78-.27h-.18l-.21.18h-.06l.12-.91h.06l.16.2a.27.27 0 0 0 .17.07l3.82.56a.24.24 0 0 0 .29-.04Zm-.17 2.67c-.16.65-1.49.42-2.39.21-1.18-.27-2.44-.63-2.28-1.29s1.45-.42 2.63-.15c.89.2 2.19.58 2.04 1.28Zm.52-4.91c0 .68-1.32.7-2.24.67-1.2 0-2.51-.16-2.51-.83s1.29-.7 2.49-.66c.91.04 2.25.16 2.26.78ZM247.6 94v.2l-.06.06-4.18.7a.26.26 0 0 0-.16.07l-.15.17-.1-.8h.06l.19.15a.16.16 0 0 0 .13 0l.65-.11a.06.06 0 0 0 .05-.06L244 94h-.71a.14.14 0 0 0-.11 0l-.13.13s-.05.06-.07.06l-.08-.64h.07l.19.15a.42.42 0 0 0 .16 0l4.3.32s-.03-.02-.02-.02Zm-.61-2.7v-.05a.05.05 0 0 1 .05 0l.16.73c.12.55-.41 1-2 1.15-2 .25-2.53 0-2.65-.58l-.16-.73h.07l.21.15a.4.4 0 0 0 .19 0l3.77-.46a.21.21 0 0 0 .16-.08Zm-1.25-3.69.09.2-.05.06-3.69 1.73a.22.22 0 0 0-.14.1l-.08.2h.08l.21.1a.4.4 0 0 0 .19 0l3.69-.75a.24.24 0 0 0 .16-.08l.13-.17.21.65s0 .06-.08.08l-2.46 1 2.28-.46a.24.24 0 0 0 .15-.08l.14-.19h.05c.05 0 0 0 0 0l.23.72h-.08l-.22-.1a.27.27 0 0 0-.18 0l-4.07.82a.1.1 0 0 1-.09 0l-.07-.23s0-.11.12-.14l3.12-1.3-3 .61a.2.2 0 0 0-.14.08l-.14.19-.23-.71h-.05l-.34-.75h.07l.22.09a.15.15 0 0 0 .13 0l.58-.27v-.06l-.18-.39a.06.06 0 0 0-.06 0l-.67.12a.14.14 0 0 0-.1.06l-.08.15s0 .07-.05.08l-.27-.6h.07l.23.09a.33.33 0 0 0 .17 0l4.15-.75a.06.06 0 0 1 .05-.11Zm-5.35-.53h.07l.25.08a.28.28 0 0 0 .18 0l3.42-1.35a.19.19 0 0 0 .14-.1l.08-.22h.05l.73 1.31v.06l-1.42.56.91-.69a.13.13 0 0 0 0-.18l-.16-.28-1.64.53.06.12a.1.1 0 0 0 .08 0h.54l-1.19.47h-.05c-.05 0 0 0 0 0l.32-.33a.08.08 0 0 0 0-.08l-.07-.11-1.59.63c-.07 0-.12 0-.13.11l-.06.25h-.06l-.46-.84s-.02.06 0 .05Zm-13.54-12.34a1.06 1.06 0 0 0 .87-.26l1-1 .31 1.34a.91.91 0 0 0 .59.65l1.44.6-1.37.61a.84.84 0 0 0-.5.66l-.14 1.36-1.16-1a1.12 1.12 0 0 0-.9-.25l-1.53.24.65-1.21a.77.77 0 0 0 0-.81l-.8-1.2Zm-20.15 2 .62-.35h.12l2 1.71-1.33-1.73a.2.2 0 0 0-.14-.1l-.25-.06h-.08l.68-.38h.05v.27a.23.23 0 0 0 0 .15l2.37 3.08v.08l-.21.13a.21.21 0 0 1-.2-.06l-2.54-2.18 1.77 2.3a.25.25 0 0 0 .15.1l.24.06a.11.11 0 0 1 .08 0l-.68.39h-.05c-.05 0 0 0 0-.07v-.21a.22.22 0 0 0-.06-.16L207.13 77a.27.27 0 0 0-.15-.1l-.23-.06h-.07s-.01-.08.02-.1Zm-1.18.8c.58-.4 1.49.46 2.08 1.08.76.82 1.53 1.75 1 2.16s-1.47-.44-2.24-1.26c-.63-.62-1.42-1.52-.84-1.98Zm-1.05.78h.05V78.61a.2.2 0 0 0 .09.14l2.66 2.46a.23.23 0 0 0 .16.08h.33l-.71.58H207V81.58a.2.2 0 0 0-.09-.15L204.26 79a.23.23 0 0 0-.16-.08h-.33Zm-1.06.87 1.19 1h-.06l-1.15-.54a.09.09 0 0 0-.1 0l-.15.15 3 2.38a.26.26 0 0 0 .16.07h.34c.02 0 0 0 0 0l-.65.62V82.58c0-.05 0-.09-.09-.14l-3-2.38-.16.15a.08.08 0 0 0 0 .09l.72 1v.06h-.05l-1.19-1Zm-1.86 1.89h.09l3.73 1.92a.33.33 0 0 0 .18 0h.31v.05l-.54.61a.08.08 0 0 1 0-.07v-.2s0-.07-.08-.09l-.59-.3h-.07l-.28.31.5.45a.21.21 0 0 0 .11 0H205.21v.05l-.43.49h-.06a.12.12 0 0 1 0-.07v-.21c0-.05-.05-.09-.09-.12l-3.05-2.7v-.07Zm-1.42 1.76c.33-.46 1.05-.44 2.44.35 1.75 1 1.92 1.47 1.59 1.93l-.44.61h-.05c-.05 0 0 0 0-.06l-.06-.23a.23.23 0 0 0-.12-.12l-3.26-1.84a.25.25 0 0 0-.18 0h-.32Zm-1.3 2.06h.13l2.7.66-2.12-1a.23.23 0 0 0-.18 0l-.25.06h-.08l.37-.64v.06l.09.2a.27.27 0 0 0 .14.11l3.86 1.65v.08l-.11.2s-.11.06-.2 0l-3.42-.84 2.83 1.29a.32.32 0 0 0 .19 0l.24-.06h.08l-.36.64h-.05c-.05 0 0 0 0-.06l-.09-.2a.27.27 0 0 0-.14-.11L199 85.49a.31.31 0 0 0-.19 0h-.23a.11.11 0 0 1-.08 0Zm-.83 1.83h.05l.1.22a.28.28 0 0 0 .15.1l3.22 1.13c.26.09.51.15.61-.09s-.13-.32-.39-.41l-3.23-1.13a.4.4 0 0 0-.18 0l-.24.1a.07.07 0 0 1-.06 0l.29-.7h.05c.05 0 0 0 0 0l.1.22a.3.3 0 0 0 .15.1l3.38 1.17a.59.59 0 0 1 .39.82.67.67 0 0 1-.9.39l-3.38-1.18a.24.24 0 0 0-.18 0l-.24.1a.06.06 0 0 1-.06 0Zm1.65 1.84c1.16.3 2.4.69 2.2 1.34s-1.47.38-2.63.08c-.88-.23-2.14-.63-1.95-1.27s1.45-.38 2.33-.15Zm-2.72 2.77-.21.13h-.06l.27-1.41h.06l1.56.28h-.05l-1.23.09a.14.14 0 0 0-.15.12l-.06.31 1.83.32v-.19l-.39-.25s-.05 0 0-.05l1.32.23-.49.11a.06.06 0 0 0-.06 0v.12l1.76.31h.19l.22-.17h.06c.06 0 0 0 0 0l-.17.89h-.05l-.15-.19a.23.23 0 0 0-.17-.08l-3.78-.67a.29.29 0 0 0-.3.1Zm-.49 2.2c0-.67 1.37-.65 2.28-.6 1.19.08 2.49.23 2.46.9s-1.33.66-2.53.59c-.96-.06-2.3-.22-2.26-.89Zm0 2v-.2h.07l4.22-.59a.22.22 0 0 0 .17-.06l.16-.16h.05v.8h-.06l-.18-.15a.16.16 0 0 0-.13 0l-.66.09v.47h.05l.7.08a.2.2 0 0 0 .11 0l.14-.13.07-.06v.65h-.06l-.19-.15a.28.28 0 0 0-.16 0l-4.29-.45s-.06-.07-.06-.1Zm.43 2.76-.11-.74c-.09-.56.47-1 2.09-1.1 2-.2 2.53.09 2.62.66l.12.73h-.06l-.21-.15a.29.29 0 0 0-.19 0l-3.81.36a.22.22 0 0 0-.17.07Zm.74 2.13-.15.17-.18-.66s0-.07.09-.09l2.52-1-2.31.43a.24.24 0 0 0-.16.08l-.14.19-.2-.72a.09.09 0 0 1 .07 0l.22.1a.39.39 0 0 0 .19 0l4.12-.77h.08l.07.23s0 .1-.13.14l-3.19 1.27 3.08-.58a.17.17 0 0 0 .15-.08l.15-.18h.05c.05 0 0 0 0 0l.2.73a.15.15 0 0 1-.07 0l-.22-.1a.24.24 0 0 0-.19 0l-3.74.7a.24.24 0 0 0-.36.18Zm.3 1.62-.08-.2.05-.07 3.83-1.63c.05 0 .11-.06.13-.11l.1-.2.31.77v.05h-.06l-.22-.1a.12.12 0 0 0-.13 0l-.6.25s-.05 0 0 .07l.16.39.7-.1a.15.15 0 0 0 .09-.06l.09-.16s0-.06.06-.07l.24.61a.09.09 0 0 1-.08 0l-.22-.1a.33.33 0 0 0-.17 0l-4.23.65s-.01.08-.02.05ZM199 104l-.09.22v.05l-.66-1.35v-.06l1.46-.52-1 .67a.12.12 0 0 0 0 .18l.14.3 1.71-.61-.06-.12a.07.07 0 0 0-.07 0h-.48a.08.08 0 0 1-.06 0l1.23-.44-.34.33a.06.06 0 0 0 0 .07l.06.12 1.64-.59a.19.19 0 0 0 .14-.1l.07-.26.42.85v.05h-.07l-.25-.1a.31.31 0 0 0-.19 0l-3.53 1.26a.27.27 0 0 0-.07.05Zm2.68 4.32v.06c0 .06 0 0-.05 0l-.44-.57s0-.07.05-.11l1.9-1.77-2 1.16a.22.22 0 0 0-.11.13l-.05.23v.06c0 .06 0 0-.05 0l-.48-.63h.32a.37.37 0 0 0 .18 0l3.48-2.07h.09l.16.2s0 .11-.06.17l-2.41 2.24 2.6-1.55a.17.17 0 0 0 .1-.13l.06-.22v-.06l.49.63h-.32a.25.25 0 0 0-.18 0l-3.07 1.91a.27.27 0 0 0-.11.13Zm.93 1.12c-.51-.53.45-1.33 1.15-1.85.91-.67 1.95-1.34 2.46-.81s-.44 1.32-1.35 2c-.65.52-1.72 1.22-2.22.68Zm1.66 1.61-.71-.65h.33a.26.26 0 0 0 .17-.07l2.73-2.35a.21.21 0 0 0 .08-.15V107.53a.06.06 0 0 1 .06 0l.71.65h-.34a.26.26 0 0 0-.16.07l-2.73 2.36a.19.19 0 0 0-.08.14v.31l-.02.01Zm1.86 1.47-1.43-1.12 1.05-1.06v.06l-.57 1a.07.07 0 0 0 0 .09l.19.14L208 109a.18.18 0 0 0 .07-.15v-.24a.06.06 0 0 1 0-.06l.76.59h-.34a.21.21 0 0 0-.15.08l-2.61 2.64.18.14a.09.09 0 0 0 .1 0l1.08-.63h.06Zm1 .7-.19-.13a.06.06 0 0 1 0-.08l2-3.34a.24.24 0 0 0 0-.16l-.05-.21a.08.08 0 0 1 0-.07s0 0 .06 0l.74.5h-.31s-.07 0-.1.07l-.32.52v.07l.38.26a.07.07 0 0 0 .06 0l.49-.44a.13.13 0 0 0 0-.1v-.27h.06l.6.4v.05h-.33a.28.28 0 0 0-.13.09l-3 2.69a.08.08 0 0 1 .07.17Zm2.72 1.6-.73-.4c-.56-.31-.58-1 .26-2.2 1.05-1.56 1.6-1.7 2.16-1.39l.73.4h-.33a.18.18 0 0 0-.13.11l-2 2.9a.17.17 0 0 0 0 .16l.07.24v.2Zm2.32.79.07.21v.07l-.7-.31v-.12l.61-2.42-1 1.9a.16.16 0 0 0 0 .16l.09.22v.07c0 .02 0 0-.05 0l-.77-.34h.07l.22-.09a.2.2 0 0 0 .13-.11l1.79-3.38h.08l.25.11c.05 0 .07.09.05.17l-.78 3.07 1.33-2.52a.17.17 0 0 0 0-.17l-.08-.22a.09.09 0 0 1 0-.07l.76.34h-.07l-.23.08a.23.23 0 0 0-.12.12l-1.62 3.07a.21.21 0 0 0 0 .18Zm2.48 1.14-.93-.31h.05l.25-.08a.33.33 0 0 0 .11-.14l1.13-2.88c.09-.24.15-.46-.14-.55s-.37.11-.46.34l-1.13 2.87a.25.25 0 0 0 0 .17l.13.22-.83-.28a.07.07 0 0 1 .05 0l.25-.09a.23.23 0 0 0 .1-.13l1.19-3a.69.69 0 0 1 .92-.33c.48.16.63.49.51.82l-1.19 3a.2.2 0 0 0 0 .17l.12.21v.06c0 .06-.08-.04-.1-.05ZM202.35 90c2.94-9.18 13.9-14.24 24.46-11.38s17 12.71 14.26 22-13.88 14.62-24.67 11.63S199.38 99.24 202.35 90Zm13.74 27.16c-.75-.19-.52-1.37-.3-2.16.28-1 .67-2.14 1.42-2s.53 1.34.24 2.38c-.21.82-.6 1.96-1.36 1.77Zm3.2.61-1.65-.26v-.06l.22-1.41.18 1.11a.15.15 0 0 0 .14.13l.37.06.26-1.64h-.14a.06.06 0 0 0-.07 0l-.28.36a.05.05 0 0 1-.05 0l.19-1.18.16.45a.06.06 0 0 0 .06.05h.14l.25-1.57v-.17l-.21-.2v-.06c0-.06 0 0 0 0l1 .17-.05.05-.21.13a.17.17 0 0 0-.09.14l-.55 3.4a.17.17 0 0 0 0 .16l.16.2v.06c0 .06.19.08.17.07Zm2.42.22c-.78 0-.85-1.25-.83-2.07 0-1.07.11-2.24.89-2.2s.83 1.21.82 2.29c-.01.81-.11 1.99-.88 1.99Zm2.35 0h-.24l-.06-.06-.93-3.81a.2.2 0 0 0-.08-.15l-.2-.14H223.52l-.16.16a.14.14 0 0 0 0 .12l.14.59a.07.07 0 0 0 .07 0h.43l.05-.63a.12.12 0 0 0 0-.1l-.15-.13s-.07 0-.07-.07h.78v.06l-.17.16a.2.2 0 0 0 0 .15l-.34 3.86h-.04Zm3.16-.27-.83.09c-.64.07-1.12-.44-1.4-1.9-.34-1.84 0-2.27.6-2.34l.83-.09h.05v.06l-.16.18a.2.2 0 0 0 0 .17l.64 3.42a.23.23 0 0 0 .09.15l.22.14h.06l-.1.13Zm4.21-.94-.22.06h-.08l-2.13-3.49a.33.33 0 0 0-.13-.13l-.23-.08a.09.09 0 0 1-.06 0 .08.08 0 0 1 0 .05l-.1.2a.18.18 0 0 0 0 .16l1 3.37a.28.28 0 0 0 .11.15l.2.13h.06l-.74.15s-.08 0-.1-.08l-1.32-2.27.64 2.09a.22.22 0 0 0 .1.13l.23.14h.06l-.82.16h-.05c-.05 0 0 0 0-.06l.11-.19a.25.25 0 0 0 0-.17l-1.14-3.71v-.07l.26-.06c.06 0 .12 0 .17.12l1.65 2.88-.85-2.77a.22.22 0 0 0-.1-.14l-.22-.13h-.06l.81-.17.86-.26v.06l-.1.19a.14.14 0 0 0 0 .12l.33.54a.08.08 0 0 0 .08 0l.44-.13-.16-.62a.18.18 0 0 0-.08-.09l-.18-.08s-.08 0-.09-.05l.69-.2a.25.25 0 0 1 0 .07l-.11.2a.21.21 0 0 0 0 .15l1 3.79a.05.05 0 0 1 .27.05Zm2.47-.88-1.5.58a.06.06 0 0 1-.07 0l-.69-1.32a.08.08 0 0 1 .06 0l.83.87a.2.2 0 0 0 .21.05l.33-.13-.81-1.54h-.13a.06.06 0 0 0-.05.06v.49l-.58-1.1h.06l.4.31a.08.08 0 0 0 .08 0h.13l-.78-1.48a.21.21 0 0 0-.13-.13l-.29-.07h-.07c-.01 0 0 0 0 0l1-.36v.07l-.1.21a.18.18 0 0 0 0 .17l1.67 3.18c0 .07.07.11.13.13l.26.09h.06c.06 0 .01-.08-.02-.07Zm3.87-2h-.12l-2.14-1.73 1.45 1.76a.24.24 0 0 0 .15.1h.34c.02 0 0 0 0 0l-.67.42h-.05V114.16a.23.23 0 0 0-.06-.16l-2.58-3.13a.06.06 0 0 1 0-.09l.22-.13h.2l2.69 2.35-1.93-2.34a.29.29 0 0 0-.16-.09l-.25-.06a.11.11 0 0 1-.08 0l.68-.42h.05v.28a.2.2 0 0 0 .06.16l2.35 2.85a.31.31 0 0 0 .15.1l.24.06a.12.12 0 0 1 .08 0Zm1.73-1.23c-.57.44-1.55-.43-2.18-1.06-.82-.82-1.65-1.76-1.08-2.2s1.52.41 2.34 1.23c.63.61 1.48 1.57.92 2.01Zm1-.85a.17.17 0 0 1 0-.07v-.24a.17.17 0 0 0-.09-.14l-2.85-2.46a.23.23 0 0 0-.17-.08H237l.69-.62a.17.17 0 0 1 0 .07v.23a.19.19 0 0 0 .09.15l2.84 2.46a.27.27 0 0 0 .17.08h.34Zm1-.94h-.05l-1.26-1a.07.07 0 0 1 .06 0l1.21.53h.1l.14-.16-3.15-2.36a.31.31 0 0 0-.18-.07h-.33l.62-.66v.3a.22.22 0 0 0 .11.13l3.16 2.37.15-.16a.08.08 0 0 0 0-.09l-.79-1v-.05c0-.05 0 0 .05 0l1.27 1Zm1.76-2h-.09l-3.9-1.85a.33.33 0 0 0-.19 0h-.24a.09.09 0 0 1-.07 0l.51-.65h.06c.06 0 0 0 0 .06l.05.21s0 .07.09.09l.61.29a.08.08 0 0 0 .08 0l.26-.34-.53-.44a.14.14 0 0 0-.11 0h-.2a.33.33 0 0 1-.1 0l.41-.52h.05a.08.08 0 0 1 0 .07v.22a.21.21 0 0 0 .11.12l3.24 2.69v.07Zm1.31-1.86c-.31.48-1 .49-2.49-.28-1.82-1-2-1.46-1.71-1.94l.41-.63v.06l.07.22c0 .06.06.1.13.13l3.38 1.8a.34.34 0 0 0 .19 0l.25-.06h.07v.05Zm1.16-2.11h-.13l-2.75-.6 2.2.93a.39.39 0 0 0 .18 0l.24-.07h.08c.08 0 0 0 0 0l-.32.67v-.06l-.11-.2a.28.28 0 0 0-.14-.12l-3.91-1.64s-.06-.05 0-.08l.1-.21s.1-.06.2 0l3.48.75-2.92-1.23a.23.23 0 0 0-.18 0l-.25.06a.09.09 0 0 1-.07 0l.33-.67v.06l.11.2a.28.28 0 0 0 .14.12l3.55 1.49a.32.32 0 0 0 .19 0H246.05c.07 0 0 0 0 0Zm-3.06-2.8 3.31 1.06a.29.29 0 0 0 .18 0l.24-.11h.07l-.26.72h-.05l-.12-.22a.28.28 0 0 0-.16-.1l-3.47-1.11a.62.62 0 0 1-.43-.82.66.66 0 0 1 .88-.43l3.47 1.11a.24.24 0 0 0 .18 0l.24-.11h.06l-.29.81h-.05l-.12-.22a.28.28 0 0 0-.16-.1l-3.31-1.06c-.26-.09-.51-.14-.6.1s.2.37.47.46Z" />
        <path class="bc53baf6-d8b1-42ab-b33f-cf7f9ab8af37" d="M240.72 104.94c-.12.19 0 .48 1.69 1.38 1.5.8 1.83.73 2 .55v-.09l-3.63-1.93ZM238.19 110.91c-1.13-1.13-1.6-1.41-1.73-1.31s.12.56 1.25 1.69c1 1 1.43 1.25 1.57 1.14s-.12-.55-1.09-1.52ZM199.31 89.55c1.59.41 2.14.43 2.19.28s-.43-.41-2-.82c-1.36-.36-1.91-.37-2-.21s.5.4 1.81.75ZM243.29 95.89c0 .16.54.31 2.19.36 1.41.06 1.94 0 1.94-.22s-.54-.3-1.95-.35c-1.65-.06-2.18.05-2.18.21ZM200.82 93.82c0-.16-.52-.32-2.17-.42-1.4-.09-1.94 0-2 .16s.52.32 1.93.41c1.69.1 2.23.03 2.24-.15ZM245.05 100.16c-1.61-.37-2.16-.37-2.2-.22s.45.41 2.07.78c1.38.32 1.94.32 2 .16s-.48-.4-1.87-.72ZM240.79 106.82l-.22.29 1.42.67-1.19-1s0 .03-.01.04ZM218.55 103.67l-.25.82-.93-.26-.26.81-.93-.25-.25.81-.93-.26.5-1.62.94.25.25-.81 1.86.51z" />
        <path class="bc53baf6-d8b1-42ab-b33f-cf7f9ab8af37" d="m216.35 107.48.93.26.76-2.44-.93-.26-.76 2.44zM219.15 108.26l-.93-.26.75-2.45.94.26-.76 2.45z" />
        <path class="bc53baf6-d8b1-42ab-b33f-cf7f9ab8af37" d="m222.03 105.51-.51 1.63-.93-.25.25-.82-.93-.26.25-.81-.93-.26.25-.81 1.86.51-.25.82.94.25zM217.03 108.56l-.25.82-1.87-.52.26-.81-.93-.26.51-1.63.93.25-.26.82.93.26-.25.81.93.26zM221.27 107.96l-.5 1.63-.93-.26-.26.82-1.86-.51.25-.82.93.26.25-.82.94.26.25-.82.93.26z" />
    </g>
    <path class="a98f8fdf-599f-428c-b809-bbcbfca402ce" d="M139.45 34.79c1.92 3.66 6.41 5.87 11.09 5.43 9.32-.87 15.6 8.19 10.13 14.75a8.42 8.42 0 0 0 .19 11.14c5.76 6.69-.29 16.08-9.85 15.17-4.79-.45-9.35 1.86-11.27 5.72-3.87 7.75-16.43 7.75-20.29 0-1.92-3.86-6.48-6.17-11.27-5.72-9.56.91-15.62-8.48-9.85-15.17A8.41 8.41 0 0 0 98.51 55c-5.46-6.56.82-15.62 10.14-14.75 4.68.44 9.17-1.77 11.09-5.43 3.8-7.3 15.91-7.3 19.71-.03Z" />
    <path class="a98f8fdf-599f-428c-b809-bbcbfca402ce" d="M123.23 34A12.33 12.33 0 0 0 136 34c7.51-4.7 18.08.46 17.17 8.43-.46 4 2.19 7.87 6.55 9.51 8.72 3.28 8.94 13.93.28 17.27-4.35 1.68-6.93 5.63-6.36 9.8 1.15 8.35-9.64 13.85-17.46 8.84a12.42 12.42 0 0 0-13.1 0c-7.81 5-18.6-.49-17.45-8.84.57-4.17-2-8.12-6.36-9.8-8.66-3.34-8.44-14 .28-17.27 4.36-1.64 7-5.5 6.55-9.51-.95-7.98 9.61-13.14 17.13-8.43Z" />
    <path class="a98f8fdf-599f-428c-b809-bbcbfca402ce" d="M146.86 37.83c.76 4 4.45 7.1 9.13 7.72 9.33 1.24 12.71 11.43 5.41 16.56A8.65 8.65 0 0 0 158.23 73c3.59 7.78-5.13 15.51-14.14 12.46a12.07 12.07 0 0 0-12.63 3c-6.06 6.61-18.17 3.75-19.57-4.6-.69-4.16-4.38-7.41-9.12-8.05-9.44-1.27-12.44-11.65-4.93-16.8 3.75-2.57 5.16-6.89 3.5-10.69-3.28-7.51 5.44-14.85 14.14-12a12 12 0 0 0 12.31-2.8c5.85-6.23 17.57-3.52 19.07 4.31Z" />
    <path class="a98f8fdf-599f-428c-b809-bbcbfca402ce" d="M131.4 33.48a12 12 0 0 0 12.31 2.8c8.7-2.88 17.42 4.46 14.14 12-1.66 3.8-.25 8.12 3.5 10.69 7.51 5.15 4.51 15.53-4.93 16.8-4.74.64-8.43 3.89-9.13 8.05-1.39 8.35-13.5 11.21-19.56 4.6a12.07 12.07 0 0 0-12.63-3c-9 3-17.73-4.68-14.14-12.46a8.64 8.64 0 0 0-3.18-10.85c-7.3-5.13-3.91-15.32 5.42-16.56 4.68-.62 8.37-3.75 9.13-7.72 1.5-7.83 13.22-10.54 19.07-4.35Z" />
    <path class="b4d7c226-bf86-4479-b612-092dae0d39a8" d="m43.14 26.74-.14 2.5a.39.39 0 0 0 .1.31.74.74 0 0 0 .38.19v.18h-3.11v-.18a.83.83 0 0 0 .4-.18.45.45 0 0 0 .13-.32l.3-6.11a.41.41 0 0 0-.1-.31.89.89 0 0 0-.38-.18v-.19h7.88a.7.7 0 0 0 .39-.09.66.66 0 0 0 .22-.33h.21l-.1 2.2h-.21a.58.58 0 0 0-.19-.33.59.59 0 0 0-.38-.1h-5.26l-.08 1.64h3.32a.64.64 0 0 0 .38-.09.7.7 0 0 0 .23-.34h.21l-.1 2.16H47a.5.5 0 0 0-.57-.43ZM55.54 28.05h-4.06l-.49.82a1.14 1.14 0 0 0-.19.46c0 .21.15.35.49.41v.18H48v-.18a1 1 0 0 0 .46-.16 1.56 1.56 0 0 0 .36-.45l3.46-5.52a1.09 1.09 0 0 0 .2-.55q0-.27-.42-.42v-.19h3.42v.19q-.44.15-.45.45a1 1 0 0 0 .17.54L58.36 29a2.56 2.56 0 0 0 .41.56 1 1 0 0 0 .48.19v.18h-3.62v-.18c.34 0 .52-.19.53-.41a1 1 0 0 0-.18-.51Zm-.6-1.05-1.34-2.4-1.47 2.4ZM62.59 25l-.16 4.24a.44.44 0 0 0 .1.33 1 1 0 0 0 .39.18v.18H60v-.18a.79.79 0 0 0 .4-.18.45.45 0 0 0 .13-.32l.23-6.11a.41.41 0 0 0-.1-.31.88.88 0 0 0-.39-.18v-.19h3.38v.19c-.23.05-.35.13-.35.26s.07.23.24.37l4.58 4 .14-4.11a.38.38 0 0 0-.1-.31.71.71 0 0 0-.38-.18v-.19h2.92v.19a.79.79 0 0 0-.4.18.39.39 0 0 0-.12.31l-.2 6.1a.4.4 0 0 0 .1.32.78.78 0 0 0 .39.19v.18h-3.19v-.18c.24 0 .35-.12.36-.25a.28.28 0 0 0-.09-.19 4.88 4.88 0 0 0-.42-.39ZM72.51 29.24l.19-6.11a.35.35 0 0 0-.1-.31.89.89 0 0 0-.38-.18v-.19h5.16a7.67 7.67 0 0 1 2.53.34 3.23 3.23 0 0 1 1.84 1.58 3.86 3.86 0 0 1 .35 1.81 3.48 3.48 0 0 1-1.42 2.91 4.45 4.45 0 0 1-1.45.64 9.26 9.26 0 0 1-2.06.19H72v-.18a.79.79 0 0 0 .4-.18.41.41 0 0 0 .11-.32Zm2.14-.67h2.25a3.46 3.46 0 0 0 2.27-.57 2.26 2.26 0 0 0 .83-1.82 2.15 2.15 0 0 0-.68-1.78 2.1 2.1 0 0 0-.88-.45A5.13 5.13 0 0 0 77 23.8h-2.21ZM90.08 28.05H86l-.48.82a1 1 0 0 0-.18.46c0 .21.16.35.5.41v.18h-3.22v-.18a.94.94 0 0 0 .45-.16 1.56 1.56 0 0 0 .36-.45l3.35-5.52a1.07 1.07 0 0 0 .19-.55c0-.18-.13-.32-.43-.42v-.19H90v.19c-.29.1-.44.25-.44.45a1.14 1.14 0 0 0 .18.54L92.93 29a2.51 2.51 0 0 0 .42.56 1 1 0 0 0 .48.19v.18h-3.6v-.18c.34 0 .52-.19.52-.41a1 1 0 0 0-.19-.51ZM89.47 27l-1.39-2.4-1.43 2.4ZM99.66 22.29a6.17 6.17 0 0 1 3.48.91 3.5 3.5 0 0 1-.09 6 6.27 6.27 0 0 1-3.51.91 6.17 6.17 0 0 1-3.48-.91 3.34 3.34 0 0 1-1.63-3 3.45 3.45 0 0 1 1.74-3 6.62 6.62 0 0 1 3.49-.91Zm0 1.41a3.33 3.33 0 0 0-2.23.74 2.24 2.24 0 0 0-.83 1.74 2.17 2.17 0 0 0 .77 1.74 3.21 3.21 0 0 0 2.22.75 3.29 3.29 0 0 0 2.23-.75 2.29 2.29 0 0 0 .06-3.48 3.39 3.39 0 0 0-2.24-.74ZM112.76 26.74v2.5a.43.43 0 0 0 .11.31.88.88 0 0 0 .39.19v.18h-3.12v-.18a.71.71 0 0 0 .39-.18.41.41 0 0 0 .12-.32l.07-6.11a.42.42 0 0 0-.11-.31.88.88 0 0 0-.39-.18v-.19h7.89a.69.69 0 0 0 .38-.09.72.72 0 0 0 .21-.33h.21v2.2h-.22a.64.64 0 0 0-.2-.33.59.59 0 0 0-.38-.1h-5.28v1.64h3.32a.67.67 0 0 0 .38-.09.76.76 0 0 0 .21-.34h.22v2.16h-.21a.59.59 0 0 0-.21-.33.58.58 0 0 0-.38-.1ZM124.82 22.29a6.28 6.28 0 0 1 3.5.91 3.44 3.44 0 0 1 1.67 3 3.34 3.34 0 0 1-1.68 2.93 7.17 7.17 0 0 1-7 0 3.49 3.49 0 0 1 0-6 6.55 6.55 0 0 1 3.51-.84Zm0 1.41a3.31 3.31 0 0 0-2.22.74 2.3 2.3 0 0 0 0 3.48 3.68 3.68 0 0 0 4.45 0 2.15 2.15 0 0 0 .8-1.71 2.21 2.21 0 0 0-.79-1.77 3.44 3.44 0 0 0-2.24-.74ZM140.57 23.13v3.95a2.67 2.67 0 0 1-.62 2c-.67.68-1.95 1-3.83 1a8.06 8.06 0 0 1-3-.48 2.15 2.15 0 0 1-1.15-1 3.57 3.57 0 0 1-.28-1.51v-3.96a.38.38 0 0 0-.11-.31.88.88 0 0 0-.39-.18v-.19h3.11v.19a.71.71 0 0 0-.39.18.42.42 0 0 0-.11.31v3.59a2.66 2.66 0 0 0 .13 1 1.15 1.15 0 0 0 .45.55 3.38 3.38 0 0 0 1.87.44 3.33 3.33 0 0 0 1.87-.44 1.08 1.08 0 0 0 .44-.55 3 3 0 0 0 .12-1v-3.59a.38.38 0 0 0-.11-.31.88.88 0 0 0-.39-.18v-.19h2.92v.19a.79.79 0 0 0-.4.18.41.41 0 0 0-.13.31ZM144.88 25v4.24a.49.49 0 0 0 .11.33 1 1 0 0 0 .4.18v.18h-2.94v-.18a.79.79 0 0 0 .39-.18.4.4 0 0 0 .11-.32v-6.11a.42.42 0 0 0-.11-.31 1 1 0 0 0-.4-.18v-.19h3.38v.19c-.23.05-.34.13-.34.26s.08.23.25.37l4.77 4-.05-4.11a.42.42 0 0 0-.11-.31.79.79 0 0 0-.4-.18v-.19h2.92v.19a.79.79 0 0 0-.39.18.41.41 0 0 0-.1.31l.07 6.1a.45.45 0 0 0 .12.32.83.83 0 0 0 .4.19v.18h-3.17v-.18c.23 0 .35-.12.35-.25a.3.3 0 0 0-.1-.19 4.67 4.67 0 0 0-.44-.39ZM155 29.24l-.09-6.11a.42.42 0 0 0-.11-.31.94.94 0 0 0-.4-.18v-.19h5.16a7.82 7.82 0 0 1 2.54.34 3.37 3.37 0 0 1 1.9 1.58 4 4 0 0 1 .44 1.81 3.34 3.34 0 0 1-1.29 2.91 4.19 4.19 0 0 1-1.42.64 9.1 9.1 0 0 1-2.05.19h-5.18v-.18a.75.75 0 0 0 .39-.18.44.44 0 0 0 .11-.32Zm2.1-.67h2.26a3.33 3.33 0 0 0 2.24-.57 2.18 2.18 0 0 0 .7-1.78 2.26 2.26 0 0 0-.76-1.78 2.22 2.22 0 0 0-.91-.45 5.13 5.13 0 0 0-1.35-.15H157ZM172.52 28.05h-4.06l-.44.82a1 1 0 0 0-.16.46c0 .21.18.35.52.41v.18h-3.25v-.18a.86.86 0 0 0 .44-.16 1.42 1.42 0 0 0 .34-.45l3.1-5.52a1.11 1.11 0 0 0 .17-.55q0-.27-.45-.42v-.19h3.41v.19q-.43.15-.42.45a1 1 0 0 0 .21.54L175.4 29a2.38 2.38 0 0 0 .45.56 1.07 1.07 0 0 0 .49.19v.18h-3.61v-.18c.34 0 .51-.19.5-.41a1 1 0 0 0-.21-.51Zm-.66-1.05-1.5-2.4L169 27ZM181.77 23.8l.16 5.43a.41.41 0 0 0 .12.32.88.88 0 0 0 .4.19v.18h-3.12v-.18a.71.71 0 0 0 .38-.18.4.4 0 0 0 .11-.32l-.15-5.44h-2.6a.59.59 0 0 0-.38.1.64.64 0 0 0-.2.33h-.21l-.06-2.2h.22a.67.67 0 0 0 .21.33.64.64 0 0 0 .38.09h7.3a.63.63 0 0 0 .37-.09.58.58 0 0 0 .2-.33h.21l.07 2.2H185a.66.66 0 0 0-.22-.33.61.61 0 0 0-.38-.1ZM188.66 23.13l.2 6.1a.41.41 0 0 0 .12.32.88.88 0 0 0 .4.19v.18h-3.13v-.18a.71.71 0 0 0 .38-.18.4.4 0 0 0 .11-.32l-.2-6.11a.39.39 0 0 0-.12-.31.88.88 0 0 0-.39-.18v-.19h3.11v.19a.71.71 0 0 0-.39.18.41.41 0 0 0-.09.31ZM195.63 22.29a6.47 6.47 0 0 1 3.54.91 3.59 3.59 0 0 1 1.79 3 3.19 3.19 0 0 1-1.56 2.93 6.09 6.09 0 0 1-3.47.91 6.35 6.35 0 0 1-3.52-.91 3.53 3.53 0 0 1-1.79-3 3.21 3.21 0 0 1 1.58-3 6.35 6.35 0 0 1 3.43-.84Zm.06 1.41a3.19 3.19 0 0 0-2.19.74 2.12 2.12 0 0 0-.73 1.74 2.31 2.31 0 0 0 .85 1.74 3.39 3.39 0 0 0 2.26.75 3.17 3.17 0 0 0 2.2-.75 2.09 2.09 0 0 0 .73-1.71 2.3 2.3 0 0 0-.86-1.77 3.57 3.57 0 0 0-2.26-.74ZM204.68 25l.17 4.24a.5.5 0 0 0 .13.33 1 1 0 0 0 .4.18v.18h-2.94v-.18a.71.71 0 0 0 .38-.18.4.4 0 0 0 .1-.32l-.25-6.11a.39.39 0 0 0-.12-.31.94.94 0 0 0-.4-.18v-.19h3.38v.19c-.23.05-.34.13-.33.26s.09.23.26.37l4.9 4-.18-4.11a.43.43 0 0 0-.13-.31.75.75 0 0 0-.4-.18v-.19h2.93v.19a.71.71 0 0 0-.39.18.41.41 0 0 0-.1.31l.28 6.1a.45.45 0 0 0 .13.32.88.88 0 0 0 .4.19v.18h-3.16v-.18c.23 0 .34-.12.33-.25a.26.26 0 0 0-.1-.19l-.45-.39Z" />
    <path class="a0d0388e-d6e6-4ef8-9a73-24e09b2eca11" d="M86.46 91.67a6.29 6.29 0 0 1 3.61 1 3.66 3.66 0 0 1 1.67 3.28 3.76 3.76 0 0 1-1.81 3.17 6.43 6.43 0 0 1-3.65 1 6.25 6.25 0 0 1-3.61-1A3.61 3.61 0 0 1 81 95.86a3.78 3.78 0 0 1 1.83-3.22 6.59 6.59 0 0 1 3.63-.97Zm0 1.52a3.38 3.38 0 0 0-2.32.79 2.47 2.47 0 0 0-.88 1.88 2.39 2.39 0 0 0 .74 1.87 3.25 3.25 0 0 0 2.3.81 3.35 3.35 0 0 0 2.32-.81 2.4 2.4 0 0 0 .87-1.84 2.36 2.36 0 0 0-.76-1.89 3.36 3.36 0 0 0-2.3-.81ZM95.68 94.58l-.08 4.57a.48.48 0 0 0 .11.35.88.88 0 0 0 .4.19v.2h-3v-.2a.79.79 0 0 0 .41-.19.45.45 0 0 0 .12-.34l.13-6.59a.5.5 0 0 0-.11-.34 1 1 0 0 0-.41-.19v-.2h3.51V92c-.24 0-.36.14-.36.28a.6.6 0 0 0 .25.4l4.8 4.32.07-4.43a.5.5 0 0 0-.11-.34.87.87 0 0 0-.41-.23v-.2h3v.2a.82.82 0 0 0-.41.19.45.45 0 0 0-.12.34l-.09 6.58a.45.45 0 0 0 .11.34.82.82 0 0 0 .4.2v.2h-3.28v-.2c.24 0 .36-.13.36-.26a.32.32 0 0 0-.09-.21c-.07-.07-.21-.21-.45-.42ZM108.29 96.46v2h5.82a.63.63 0 0 0 .39-.1.77.77 0 0 0 .22-.36h.23v2.39h-.23a.69.69 0 0 0-.21-.36.62.62 0 0 0-.39-.11h-8.54v-.2a.75.75 0 0 0 .41-.19.45.45 0 0 0 .12-.34l.08-6.59a.45.45 0 0 0-.11-.34.93.93 0 0 0-.4-.19v-.2h8.25a.71.71 0 0 0 .4-.1.77.77 0 0 0 .22-.36h.22v2.37h-.22a.76.76 0 0 0-.21-.36.74.74 0 0 0-.4-.1h-5.55v1.77h3.45a.63.63 0 0 0 .39-.1.77.77 0 0 0 .22-.36h.23v2.32h-.22a.69.69 0 0 0-.21-.36.71.71 0 0 0-.4-.1ZM129.31 92.56l-1.1 1.87-.19-.09a.43.43 0 0 0-.18-.37 3.66 3.66 0 0 0-1.37-.61 7.52 7.52 0 0 0-1.83-.23 4.67 4.67 0 0 0-1.41.19c-.58.19-.88.46-.88.81s.14.4.42.5a7.46 7.46 0 0 0 1.64.24l1.29.08a6.74 6.74 0 0 1 2.58.58 2.32 2.32 0 0 1 .8.69 2 2 0 0 1 .41 1.21 2.17 2.17 0 0 1-1.27 1.95 6.55 6.55 0 0 1-3.26.69 10.59 10.59 0 0 1-4-.78.74.74 0 0 0-.22-.05.38.38 0 0 0-.3.18l-.21-.07 1-2 .21.07v.06a.4.4 0 0 0 .16.32 3.89 3.89 0 0 0 1.41.55 9.14 9.14 0 0 0 2 .23 5.73 5.73 0 0 0 1.56-.2c.56-.16.85-.43.85-.79s-.2-.5-.59-.62a8.48 8.48 0 0 0-1.41-.19l-1.29-.09a11.93 11.93 0 0 1-1.58-.19 3.49 3.49 0 0 1-1-.34 2 2 0 0 1-.81-.78 2.07 2.07 0 0 1-.29-1.09 2.19 2.19 0 0 1 1.3-2 6.07 6.07 0 0 1 2.9-.63 8 8 0 0 1 1.75.18 12 12 0 0 1 1.94.64 1.6 1.6 0 0 0 .46.14.67.67 0 0 0 .34-.16ZM138.65 96.38h-5.12v2.77a.5.5 0 0 0 .11.34.92.92 0 0 0 .41.2v.2h-3.24v-.2a.75.75 0 0 0 .41-.19.5.5 0 0 0 .11-.34v-6.59a.45.45 0 0 0-.12-.34.93.93 0 0 0-.4-.19v-.2H134V92a.82.82 0 0 0-.41.19.45.45 0 0 0-.12.34v2.35h5.11v-2.31a.5.5 0 0 0-.11-.34.92.92 0 0 0-.41-.19v-.2h3.23V92a.87.87 0 0 0-.41.19.45.45 0 0 0-.11.34v6.58a.5.5 0 0 0 .11.34.91.91 0 0 0 .42.2v.2h-3.25v-.2a.75.75 0 0 0 .41-.19.5.5 0 0 0 .11-.34ZM149.92 97.87h-4.21l-.47.88a1.26 1.26 0 0 0-.17.5c0 .23.18.38.53.44v.2h-3.37v-.2a1 1 0 0 0 .46-.16A1.88 1.88 0 0 0 143 99l3.3-6a1.34 1.34 0 0 0 .18-.59c0-.2-.16-.35-.46-.46v-.2h3.54V92c-.3.1-.45.27-.45.49a1.47 1.47 0 0 0 .21.58l3.54 5.77a2.9 2.9 0 0 0 .45.62 1.11 1.11 0 0 0 .51.19v.2h-3.75v-.2c.35 0 .53-.2.53-.44a1.27 1.27 0 0 0-.22-.55Zm-.67-1.13-1.53-2.59-1.4 2.59ZM157.3 96.58v2.57a.44.44 0 0 0 .12.34.87.87 0 0 0 .41.2v.2h-3.24v-.2a.71.71 0 0 0 .4-.19.41.41 0 0 0 .11-.34l-.09-6.59a.5.5 0 0 0-.11-.34 1 1 0 0 0-.41-.19v-.2h6a11.43 11.43 0 0 1 1.78.1 3.49 3.49 0 0 1 1.1.38 2 2 0 0 1 1 1.85 1.93 1.93 0 0 1-.58 1.53 4 4 0 0 1-2 .79l1.77 2.13a5 5 0 0 0 .77.8 1.5 1.5 0 0 0 .65.27v.2h-3.85v-.2c.28-.06.42-.17.42-.32a.91.91 0 0 0-.27-.48l-1.87-2.31Zm0-1.46h3.3a3.07 3.07 0 0 0 1.11-.15.73.73 0 0 0 .49-.77.77.77 0 0 0-.37-.71 2.83 2.83 0 0 0-1.26-.2h-3.3ZM168.83 96.46v2h5.82a.59.59 0 0 0 .38-.1.69.69 0 0 0 .21-.36h.23l.06 2.39h-.23a.77.77 0 0 0-.22-.36.68.68 0 0 0-.4-.11h-8.54v-.2a.71.71 0 0 0 .41-.19.5.5 0 0 0 .11-.34l-.13-6.59a.45.45 0 0 0-.12-.34A1 1 0 0 0 166 92v-.2h8.26a.7.7 0 0 0 .39-.1.69.69 0 0 0 .21-.36h.22l.05 2.37h-.22a.7.7 0 0 0-.22-.36.74.74 0 0 0-.4-.1h-5.55v1.77h3.44a.63.63 0 0 0 .39-.1.77.77 0 0 0 .22-.36h.22l.05 2.32h-.22a.55.55 0 0 0-.62-.46Z" />
    <path class="b4d7c226-bf86-4479-b612-092dae0d39a8" d="M29.37 22H29a1.36 1.36 0 0 1-.78-.2.45.45 0 0 1-.2-.4.43.43 0 0 1 .06-.22.55.55 0 0 1 .17-.17.73.73 0 0 1 .2-.1 1.44 1.44 0 0 1 .25-.08 2.05 2.05 0 0 1 .37 0h.39a1.29 1.29 0 0 1 .78.2.44.44 0 0 1 .21.39.52.52 0 0 1-.07.22.55.55 0 0 1-.16.18l-.21.1a1.91 1.91 0 0 1-.62.11Zm0-.13a1.84 1.84 0 0 0 .41-.05 2 2 0 0 0 .31-.12.52.52 0 0 0 .11-.1.39.39 0 0 0 .08-.2.36.36 0 0 0-.25-.35 1.44 1.44 0 0 0-.61-.12h-.34a1.42 1.42 0 0 0-.42.05 1.11 1.11 0 0 0-.31.12.35.35 0 0 0-.11.1.36.36 0 0 0-.08.2c0 .15.08.26.25.34a1.31 1.31 0 0 0 .61.13ZM28.78 23.45l-.72.6v.08a.11.11 0 0 1-.06 0 .14.14 0 0 1 0-.07v-.42a.1.1 0 0 1 0-.07.1.1 0 0 1 .12 0s0 0 0 .07v.21l.61-.51-.55-.51V23.12h-.11v-.56c0-.01 0 0 .06 0v.07l.65.6.63-.53a.35.35 0 0 1 0-.07h.05v.43a.08.08 0 0 1 0 .06.07.07 0 0 1-.06 0s0 0-.06 0a.08.08 0 0 1 0-.06v-.16l-.53.44.48.45v-.16a.09.09 0 0 1 0-.07.08.08 0 0 1 .06 0h.05a.08.08 0 0 1 0 .07v.36a.09.09 0 0 1 0 .07h-.1v-.07ZM29.25 25.84h.13c.01 0 0 0 0 0a.08.08 0 0 1 0 .05.11.11 0 0 1-.08 0h-.44a.08.08 0 0 1 0-.05.1.1 0 0 1 .07 0 .44.44 0 0 0 .26-.15.59.59 0 0 0 .14-.37.48.48 0 0 0-.2-.44.81.81 0 0 0-.48-.15.8.8 0 0 0-.51.16.59.59 0 0 0-.22.44.76.76 0 0 0 .25.6.09.09 0 0 1 0 .06h-.06c-.05 0-.12-.05-.19-.16a.89.89 0 0 1-.17-.57.71.71 0 0 1 .25-.46 1 1 0 0 1 .62-.21.87.87 0 0 1 .61.21.63.63 0 0 1 .22.53.72.72 0 0 1-.2.51ZM29.05 27.83h-.39a1.36 1.36 0 0 1-.78-.2.45.45 0 0 1-.21-.41.52.52 0 0 1 .07-.21.55.55 0 0 1 .16-.18l.2-.1.26-.08a2 2 0 0 1 .37 0h.39a1.29 1.29 0 0 1 .78.2.43.43 0 0 1 .21.4.57.57 0 0 1-.07.22.44.44 0 0 1-.16.17.53.53 0 0 1-.2.1 1.08 1.08 0 0 1-.26.08 1.35 1.35 0 0 1-.37.01Zm0-.13a1.4 1.4 0 0 0 .41-.06 1 1 0 0 0 .31-.12.53.53 0 0 0 .12-.1.35.35 0 0 0 .07-.2c0-.15-.07-.26-.25-.35a1.44 1.44 0 0 0-.61-.12h-.34a1.86 1.86 0 0 0-.42.05 2 2 0 0 0-.31.12.52.52 0 0 0-.11.1.32.32 0 0 0-.08.2.35.35 0 0 0 .25.35 1.44 1.44 0 0 0 .61.13ZM29 29.71h.13a.08.08 0 0 1 0 .05h-.51c-.01 0 0 0 0 0a.08.08 0 0 1 0-.05h.07a.42.42 0 0 0 .26-.15.54.54 0 0 0 .14-.37.47.47 0 0 0-.19-.44.76.76 0 0 0-.49-.16.8.8 0 0 0-.51.17.61.61 0 0 0-.22.44.87.87 0 0 0 .05.31.69.69 0 0 0 .2.29.09.09 0 0 1 0 .06c-.06 0-.12-.05-.2-.16a.83.83 0 0 1-.16-.57.67.67 0 0 1 .27-.52.91.91 0 0 1 .62-.21.89.89 0 0 1 .61.21.63.63 0 0 1 .22.53.72.72 0 0 1-.29.57ZM29.8 31.75h-2.17v.18a.06.06 0 0 1 0 .06.05.05 0 0 1-.05 0 .07.07 0 0 1-.06 0 .08.08 0 0 1 0-.06v-.32h.31a.62.62 0 0 1-.34-.58.68.68 0 0 1 .13-.35 1 1 0 0 1 .34-.26 1.11 1.11 0 0 1 .43-.09 1.07 1.07 0 0 1 .43.09.77.77 0 0 1 .3.26.64.64 0 0 1 .1.35.74.74 0 0 1-.41.58h.88V31.37a.07.07 0 0 1 .06 0s0 0 .05 0 0 0 0 .07Zm-1.52-.14a.75.75 0 0 0 .51-.17A.56.56 0 0 0 29 31a.48.48 0 0 0-.18-.41.75.75 0 0 0-.49-.17.8.8 0 0 0-.51.17.53.53 0 0 0-.23.41.47.47 0 0 0 .18.4.68.68 0 0 0 .51.21ZM27.38 33.43h.22a.84.84 0 0 1-.25-.62.54.54 0 0 1 .17-.38.49.49 0 0 1 .35-.13.51.51 0 0 1 .39.18.71.71 0 0 1 .14.51 1.62 1.62 0 0 1 0 .2c0 .07 0 .15-.05.24h.25a.33.33 0 0 0 .23-.11.49.49 0 0 0 .11-.3 1.41 1.41 0 0 0-.08-.43v-.07h.1c.05 0 0 .07.07.17a1.78 1.78 0 0 1 .06.38.57.57 0 0 1-.17.39.51.51 0 0 1-.34.14h-1v.18a.09.09 0 0 1 0 .07h-.11a.14.14 0 0 1 0-.07Zm.78 0a1.46 1.46 0 0 0 .05-.2.83.83 0 0 0 0-.22.61.61 0 0 0-.12-.45.3.3 0 0 0-.26-.13.33.33 0 0 0-.24.1.37.37 0 0 0-.11.27.58.58 0 0 0 .06.32 1.24 1.24 0 0 0 .24.31ZM27.48 34.42l-.06 1h.06a.13.13 0 0 1 .08 0s0 0 0 .05h-.3l.07-1.29h.23c.27.27.55.53.83.79a2.66 2.66 0 0 0 .29.24.59.59 0 0 0 .16.1h.15a.56.56 0 0 0 .36-.14.46.46 0 0 0 .18-.33.44.44 0 0 0-.11-.31.43.43 0 0 0-.28-.17h-.05a.05.05 0 0 1 0-.05.51.51 0 0 1 .24.09.54.54 0 0 1 .22.23.45.45 0 0 1 .07.3.6.6 0 0 1-.22.43.75.75 0 0 1-.47.17.64.64 0 0 1-.2 0 .7.7 0 0 1-.19-.1 3.22 3.22 0 0 1-.31-.26c-.34-.31-.61-.56-.8-.76ZM28.47 37.49a.88.88 0 0 1-.31-.24.55.55 0 0 1-.09-.29.46.46 0 0 1 .11-.27.64.64 0 0 1 .29-.21 1 1 0 0 1 .38-.07.9.9 0 0 1 .51.15.42.42 0 0 1 .21.4.46.46 0 0 1-.15.33.93.93 0 0 1-.39.24 2.5 2.5 0 0 1-.76.1 1.38 1.38 0 0 1-.54-.09 1 1 0 0 1-.28-.18.92.92 0 0 1-.22-.26.75.75 0 0 1-.09-.41.43.43 0 0 1 .08-.24.1.1 0 0 1 .07 0h.06a.06.06 0 0 1 0 .05.23.23 0 0 0 0 .14.7.7 0 0 0 .25.59 1 1 0 0 0 .7.24Zm.27 0a1.3 1.3 0 0 0 .52-.21.41.41 0 0 0 .16-.29.35.35 0 0 0-.16-.3.6.6 0 0 0-.42-.13.69.69 0 0 0-.43.13.4.4 0 0 0-.18.29.31.31 0 0 0 .05.18.57.57 0 0 0 .17.18ZM28.08 38.5a1.21 1.21 0 0 1 .31.26.43.43 0 0 1 .08.29.51.51 0 0 1-.23.38.83.83 0 0 1-.52.17.81.81 0 0 1-.5-.16A.44.44 0 0 1 27 39a.49.49 0 0 1 .14-.33.82.82 0 0 1 .4-.23 2.36 2.36 0 0 1 .72-.11 1.33 1.33 0 0 1 .54.1 1.08 1.08 0 0 1 .33.2 1.09 1.09 0 0 1 .23.3.67.67 0 0 1 .07.37.38.38 0 0 1-.07.22.09.09 0 0 1-.08 0h-.05v-.05a.38.38 0 0 0 .05-.16.72.72 0 0 0-.28-.57 1.11 1.11 0 0 0-.73-.26Zm-.26 0a1.08 1.08 0 0 0-.49.19.46.46 0 0 0-.17.31.4.4 0 0 0 .15.31.68.68 0 0 0 .42.12.63.63 0 0 0 .41-.13.4.4 0 0 0 .18-.28.39.39 0 0 0-.14-.3 1.65 1.65 0 0 0-.36-.19ZM26.94 41.25h.23a.82.82 0 0 1-.26-.62.54.54 0 0 1 .17-.38.52.52 0 0 1 .35-.14.48.48 0 0 1 .39.18.66.66 0 0 1 .14.52 1.36 1.36 0 0 1 0 .2l-.06.24h.25a.29.29 0 0 0 .23-.1.46.46 0 0 0 .12-.31 1.61 1.61 0 0 0-.09-.44.18.18 0 0 1 0-.06v-.05h.11a.58.58 0 0 1 .07.18 1.22 1.22 0 0 1 .05.38.5.5 0 0 1-.16.39.48.48 0 0 1-.34.14h-1v.25c0 .01 0 0-.05 0h-.06a.1.1 0 0 1 0-.07Zm.78 0 .06-.2a1.5 1.5 0 0 0 0-.22.6.6 0 0 0-.12-.46.32.32 0 0 0-.25-.12.37.37 0 0 0-.25.09.42.42 0 0 0-.11.28.58.58 0 0 0 .06.32 1.24 1.24 0 0 0 .24.31ZM29.22 42.9H27v.46a.09.09 0 0 1 0 .07.08.08 0 0 1-.06 0h-.05a.14.14 0 0 1 0-.07l.06-1.06a.09.09 0 0 1 0-.07h.11a.14.14 0 0 1 0 .07v.46h2l-.13-.44v-.05h.1v.05ZM29.12 44.87h-2.23v.46a.09.09 0 0 1 0 .07h-.11a.08.08 0 0 1 0-.07l.06-1.06a.09.09 0 0 1 0-.07h.11a.14.14 0 0 1 0 .07v.46h2l-.14-.44h.1ZM29 46.84h-2.22v.53c0 .01 0 0-.06 0h-.05c-.05 0 0 0 0-.07l.06-1.06a.09.09 0 0 1 0-.07h.06a.14.14 0 0 1 0 .07v.47h2l-.14-.44a.13.13 0 0 1 0-.05h.11ZM28.73 48.38H28a1.27 1.27 0 0 1 .08.23.74.74 0 0 1 0 .21.53.53 0 0 1-.23.42.83.83 0 0 1-.56.17.85.85 0 0 1-.59-.19.57.57 0 0 1-.21-.48.85.85 0 0 1 .12-.37 1.37 1.37 0 0 1 .19-.23.18.18 0 0 1 .1-.06h.06a.07.07 0 0 1 0 .06.77.77 0 0 0-.29.53.45.45 0 0 0 .17.39.74.74 0 0 0 .49.16.7.7 0 0 0 .44-.14.46.46 0 0 0 .18-.34.83.83 0 0 0-.11-.42.17.17 0 0 1 0-.07v-.05h1.06v.94a.09.09 0 0 1 0 .07h-.11a.08.08 0 0 1 0-.07ZM28.62 50.36h-.77a1.27 1.27 0 0 1 .08.23.74.74 0 0 1 0 .21.57.57 0 0 1-.23.43.89.89 0 0 1-.56.17.84.84 0 0 1-.59-.2.57.57 0 0 1-.21-.48.85.85 0 0 1 .12-.37 1 1 0 0 1 .19-.23.18.18 0 0 1 .1-.06h.06a.08.08 0 0 1 0 .05.79.79 0 0 0-.29.53.48.48 0 0 0 .17.4.74.74 0 0 0 .49.15.7.7 0 0 0 .44-.13.48.48 0 0 0 .18-.34.84.84 0 0 0-.11-.43.17.17 0 0 1 0-.07h1.11l-.05.94a.08.08 0 0 1 0 .07h-.06v-.07ZM27.77 52.63h-1.31v.6a.14.14 0 0 1 0 .07h-.11a.06.06 0 0 1 0-.07l.06-1.06a.12.12 0 0 1 0-.07.1.1 0 0 1 .12 0 .08.08 0 0 1 0 .07v.33h1.3v-.3a.09.09 0 0 1 0-.07h.11a.08.08 0 0 1 0 .07v.3h.24a.45.45 0 0 1 .34.13.48.48 0 0 1 .13.37 2.07 2.07 0 0 1-.07.41v.1h-.05a.11.11 0 0 1-.06 0 .2.2 0 0 0 0-.05 2.7 2.7 0 0 0 .07-.41.33.33 0 0 0-.09-.27.28.28 0 0 0-.22-.1h-.24v.64a.14.14 0 0 1 0 .07h-.12a.14.14 0 0 1 0-.07ZM27.66 54.62h-1.31v.6a.12.12 0 0 1 0 .07h-.12a.12.12 0 0 1 0-.07l.06-1.06v-.07a.07.07 0 0 1 .06 0s0 0 .05 0 0 0 0 .07v.33h1.31v-.3a.09.09 0 0 1 0-.07h.11a.08.08 0 0 1 0 .07v.3h.24a.42.42 0 0 1 .34.14.45.45 0 0 1 .13.36 2.3 2.3 0 0 1-.07.42.19.19 0 0 1 0 .1h-.11a2.81 2.81 0 0 0 .07-.42.34.34 0 0 0-.09-.27.32.32 0 0 0-.22-.1h-.24v.64a.12.12 0 0 1 0 .07h-.12a.12.12 0 0 1 0-.07ZM27.28 57a.75.75 0 0 1-.27.26.77.77 0 0 1-.34.08.68.68 0 0 1-.48-.18.57.57 0 0 1-.18-.44.62.62 0 0 1 .23-.44.77.77 0 0 1 .5-.18.73.73 0 0 1 .33.08.67.67 0 0 1 .24.26.91.91 0 0 1 .22-.22.69.69 0 0 1 .34-.09.66.66 0 0 1 .45.17.53.53 0 0 1 .17.42.58.58 0 0 1-.22.42.71.71 0 0 1-.46.17.54.54 0 0 1-.33-.1.58.58 0 0 1-.2-.21Zm-.61.21a.59.59 0 0 0 .38-.14.53.53 0 0 0 .17-.35.43.43 0 0 0-.14-.35.48.48 0 0 0-.35-.14.59.59 0 0 0-.38.14.5.5 0 0 0-.18.35.43.43 0 0 0 .14.35.52.52 0 0 0 .36.13Zm1.14 0a.52.52 0 0 0 .36-.13.47.47 0 0 0 .16-.32.39.39 0 0 0-.13-.32.47.47 0 0 0-.34-.13.48.48 0 0 0-.33.13.39.39 0 0 0-.15.32.38.38 0 0 0 .12.32.4.4 0 0 0 .31.08ZM28.35 58.19H27.3a.65.65 0 0 1 .06 1.11.91.91 0 0 1-.63.22.86.86 0 0 1-.61-.22.61.61 0 0 1-.23-.51.77.77 0 0 1 .41-.6H26v-.32a.14.14 0 0 1 0-.07h.12a.08.08 0 0 1 0 .07v.19h2.08v-.19a.09.09 0 0 1 0-.07h.11a.08.08 0 0 1 0 .07Zm-1.62 1.19a.78.78 0 0 0 .52-.18.55.55 0 0 0 .23-.41.51.51 0 0 0-.18-.42.76.76 0 0 0-.5-.17.85.85 0 0 0-.52.17.6.6 0 0 0-.23.42.47.47 0 0 0 .19.41.69.69 0 0 0 .49.18ZM26.58 61.45l.08-1.39a.91.91 0 0 0-.51.22.68.68 0 0 0-.21.46.88.88 0 0 0 0 .32.67.67 0 0 0 .14.28h-.06a.09.09 0 0 1-.06 0 .64.64 0 0 1-.16-.28 1 1 0 0 1-.06-.41.79.79 0 0 1 .3-.58 1 1 0 0 1 .66-.24.81.81 0 0 1 .58.22.67.67 0 0 1 .22.55.72.72 0 0 1-.29.55.93.93 0 0 1-.63.3Zm.17-.13a.77.77 0 0 0 .44-.22.59.59 0 0 0 .19-.41.54.54 0 0 0-.14-.41.66.66 0 0 0-.42-.22ZM27 63a.68.68 0 0 1-.29.29.7.7 0 0 1-.36.1.66.66 0 0 1-.49-.2.61.61 0 0 1-.19-.5.72.72 0 0 1 .11-.36.67.67 0 0 1 .19-.27.1.1 0 0 1 .12 0 .21.21 0 0 1 0 .06.88.88 0 0 0-.24.53.48.48 0 0 0 .15.4.51.51 0 0 0 .37.17.57.57 0 0 0 .28-.08.63.63 0 0 0 .23-.23.71.71 0 0 0 .1-.3.1.1 0 0 1 0-.07.1.1 0 0 1 .12 0 .08.08 0 0 1 0 .06v.12a.36.36 0 0 0 .11.3.41.41 0 0 0 .3.12.45.45 0 0 0 .32-.13.46.46 0 0 0 .15-.32.59.59 0 0 0 0-.27.52.52 0 0 0-.14-.19.11.11 0 0 1-.05 0 .13.13 0 0 1 0-.05h.05q.07 0 .18.15a.66.66 0 0 1 .14.45.6.6 0 0 1-.2.42.67.67 0 0 1-.44.17.61.61 0 0 1-.3-.08A.5.5 0 0 1 27 63ZM28 65.41h-2.26v.25a.05.05 0 0 1-.05 0 .06.06 0 0 1-.06 0 .1.1 0 0 1 0-.07v-.32h.32a.66.66 0 0 1-.35-.61.68.68 0 0 1 .14-.36.85.85 0 0 1 .26-.3 1.12 1.12 0 0 1 .44-.09 1.07 1.07 0 0 1 .43.09.75.75 0 0 1 .31.27.62.62 0 0 1 .1.36.76.76 0 0 1-.41.61h.89v-.26h.06L28 65a.1.1 0 0 1 0 .08Zm-1.55-.14a.8.8 0 0 0 .52-.18.6.6 0 0 0 .23-.42.49.49 0 0 0-.19-.42.71.71 0 0 0-.5-.18.8.8 0 0 0-.52.18.6.6 0 0 0-.23.42.49.49 0 0 0 .19.42.7.7 0 0 0 .46.18ZM27.62 67.22h.08l.05-1h-.14a.15.15 0 0 1-.08 0 .13.13 0 0 1 .08 0h.3l-.07 1.27h-.24l-2-.56h-.06.06ZM26.13 69.52l.08-1.41a.92.92 0 0 0-.51.23.67.67 0 0 0-.21.47.91.91 0 0 0 0 .32.82.82 0 0 0 .14.28s0 0 0 .05h-.06a.09.09 0 0 1-.06 0 .71.71 0 0 1-.16-.28 1 1 0 0 1-.06-.41.8.8 0 0 1 .3-.6 1 1 0 0 1 .66-.23.79.79 0 0 1 .58.22.67.67 0 0 1 .22.55.78.78 0 0 1-.28.56 1.08 1.08 0 0 1-.64.25Zm.17-.14a.79.79 0 0 0 .44-.21.63.63 0 0 0 .19-.42.58.58 0 0 0-.14-.42.65.65 0 0 0-.42-.21ZM26 71.55l.08-1.41a.85.85 0 0 0-.51.22.72.72 0 0 0-.22.47 1.35 1.35 0 0 0 0 .33.86.86 0 0 0 .14.27.09.09 0 0 1 0 .06s0 0-.05 0h-.06a.79.79 0 0 1-.17-.28 1.52 1.52 0 0 1-.06-.42.82.82 0 0 1 .31-.59 1 1 0 0 1 .66-.24.79.79 0 0 1 .58.22.69.69 0 0 1 .22.56.72.72 0 0 1-.29.55 1 1 0 0 1-.63.26Zm.17-.14a.77.77 0 0 0 .44-.22.59.59 0 0 0 .19-.41.55.55 0 0 0-.14-.42.66.66 0 0 0-.42-.22ZM26.52 73.47h-.4a1.33 1.33 0 0 1-.8-.21.49.49 0 0 1-.21-.43.51.51 0 0 1 .07-.23.55.55 0 0 1 .16-.18l.21-.11.26-.08a2.11 2.11 0 0 1 .38 0h.4a1.33 1.33 0 0 1 .8.22.47.47 0 0 1 .22.42.62.62 0 0 1-.07.23.58.58 0 0 1-.17.18.66.66 0 0 1-.21.11 1.53 1.53 0 0 1-.26.08 1.43 1.43 0 0 1-.38 0Zm0-.14a1.42 1.42 0 0 0 .42-.06 1.07 1.07 0 0 0 .32-.12.6.6 0 0 0 .12-.11.38.38 0 0 0 .07-.21.36.36 0 0 0-.25-.36 1.39 1.39 0 0 0-.63-.14h-.35a1.54 1.54 0 0 0-.43.06 1.31 1.31 0 0 0-.31.13.29.29 0 0 0-.12.1.32.32 0 0 0-.08.21.37.37 0 0 0 .25.37 1.54 1.54 0 0 0 .63.13ZM27.18 75.33h.07l.05-1H27.08a.15.15 0 0 1 .08 0h.3l-.07 1.27h-.25l-2-.55h-.07c-.01 0 0 0 0 0h.11ZM26.39 77.49h.14H26a.15.15 0 0 1 .08 0 .39.39 0 0 0 .26-.16.6.6 0 0 0 .15-.39.52.52 0 0 0-.2-.47.79.79 0 0 0-.5-.16.77.77 0 0 0-.52.18.61.61 0 0 0-.27.51.81.81 0 0 0 0 .33.83.83 0 0 0 .2.3s0 0 0 .06h-.05s-.12-.06-.2-.17a1 1 0 0 1-.17-.6.74.74 0 0 1 .28-.55 1 1 0 0 1 1.27 0 .69.69 0 0 1 .22.56.8.8 0 0 1-.16.56ZM27.07 78.57h-.78a1.19 1.19 0 0 1 .07.23.57.57 0 0 1 0 .22.62.62 0 0 1-.23.44.94.94 0 0 1-.57.17.86.86 0 0 1-.61-.2.56.56 0 0 1-.2-.5.71.71 0 0 1 .12-.38 1 1 0 0 1 .19-.23.22.22 0 0 1 .1-.07.08.08 0 0 1 .06 0 .07.07 0 0 1 0 .06.81.81 0 0 0-.29.55.46.46 0 0 0 .16.4.74.74 0 0 0 .51.16.65.65 0 0 0 .44-.14.45.45 0 0 0 .18-.35.76.76 0 0 0-.1-.43.2.2 0 0 1 0-.08h1.13v1a.08.08 0 0 1 0 .07s0 0-.06 0h-.05a.06.06 0 0 1 0-.07ZM26 81.29a.86.86 0 0 1-.28.29.74.74 0 0 1-.37.1.72.72 0 0 1-.5-.2.64.64 0 0 1-.19-.51 1 1 0 0 1 .11-.38 1 1 0 0 1 .19-.27H25.08a.09.09 0 0 1 0 .06 1 1 0 0 0-.25.55.51.51 0 0 0 .15.41.52.52 0 0 0 .38.16.53.53 0 0 0 .29-.08.63.63 0 0 0 .23-.23.69.69 0 0 0 .09-.31.09.09 0 0 1 0-.07h.11V81a.43.43 0 0 0 .42.44.5.5 0 0 0 .5-.44.58.58 0 0 0-.05-.26.48.48 0 0 0-.14-.2h.06c.05 0 .11 0 .18.14a.7.7 0 0 1 .14.46.62.62 0 0 1-.21.44.66.66 0 0 1-.44.17.61.61 0 0 1-.3-.08.64.64 0 0 1-.24-.38ZM24.57 83.45h.23a.9.9 0 0 1-.26-.65.55.55 0 0 1 .17-.39.49.49 0 0 1 .37-.14.51.51 0 0 1 .39.18.77.77 0 0 1 .15.55v.21a1.05 1.05 0 0 1-.06.24h.26a.33.33 0 0 0 .24-.1.49.49 0 0 0 .11-.32 1.33 1.33 0 0 0-.08-.46s0-.06 0-.07h.11a.44.44 0 0 1 .06.19 1.11 1.11 0 0 1 .06.39.58.58 0 0 1-.17.42.5.5 0 0 1-.35.15h-1.08v.18a.1.1 0 0 1 0 .08h-.11v-.08Zm.8 0 .06-.2a1.79 1.79 0 0 0 0-.24.63.63 0 0 0-.12-.47.32.32 0 0 0-.26-.13.33.33 0 0 0-.25.1.41.41 0 0 0-.12.29.72.72 0 0 0 .07.33 1.12 1.12 0 0 0 .24.32ZM25.8 85.69a1 1 0 0 1-.32-.26.51.51 0 0 1-.09-.31.52.52 0 0 1 .11-.28.72.72 0 0 1 .29-.22 1.1 1.1 0 0 1 .4-.08.87.87 0 0 1 .52.16.46.46 0 0 1 .22.43.61.61 0 0 1-.15.35 1.09 1.09 0 0 1-.41.24 2.33 2.33 0 0 1-.78.11 1.53 1.53 0 0 1-.56-.09 1 1 0 0 1-.28-.19.85.85 0 0 1-.22-.28.83.83 0 0 1-.1-.43.53.53 0 0 1 .08-.25.09.09 0 0 1 .08 0s0 0 .05 0a.07.07 0 0 1 0 .06.44.44 0 0 0-.05.15.78.78 0 0 0 .26.62 1 1 0 0 0 .72.25Zm.27 0a1.26 1.26 0 0 0 .54-.22.45.45 0 0 0 .16-.31.36.36 0 0 0-.16-.31.65.65 0 0 0-.43-.14.7.7 0 0 0-.44.14.42.42 0 0 0-.19.3.37.37 0 0 0 .05.2.94.94 0 0 0 .17.18ZM26.72 87.86h-2.24v.19a.08.08 0 0 1 0 .07s0 0-.05 0h-.06c-.01 0 0 0 0-.07v-.33h.32a.66.66 0 0 1-.21-1 .86.86 0 0 1 .34-.28 1.22 1.22 0 0 1 .45-.1 1.13 1.13 0 0 1 .44.1.71.71 0 0 1 .31.28.63.63 0 0 1 .1.37.78.78 0 0 1-.42.62h.91v-.19a.08.08 0 0 1 0-.07s0 0 .06 0 0 0 0 .07Zm-1.57-.14a.81.81 0 0 0 .53-.18.6.6 0 0 0 .24-.43.58.58 0 0 0-.19-.44.74.74 0 0 0-.51-.18.78.78 0 0 0-.52.18.6.6 0 0 0-.24.44.51.51 0 0 0 .19.43.71.71 0 0 0 .5.18ZM233.7 71.53l-.07-1.33h-.18v-.06a.09.09 0 0 1 0-.07h.38l.09 1.67h-.29q-.57-.53-1.17-1a3.57 3.57 0 0 0-.4-.32.85.85 0 0 0-.23-.12.58.58 0 0 0-.19 0 .6.6 0 0 0-.44.18.54.54 0 0 0-.17.43.63.63 0 0 0 .17.4.71.71 0 0 0 .38.23.15.15 0 0 1 .08 0 .08.08 0 0 1 0 .06.09.09 0 0 1-.07 0 .77.77 0 0 1-.31-.11.84.84 0 0 1-.32-.3.75.75 0 0 1-.13-.39.67.67 0 0 1 .22-.56.85.85 0 0 1 .58-.23.69.69 0 0 1 .25 0 1.26 1.26 0 0 1 .26.13l.43.34c.48.41.86.74 1.13 1ZM231.94 67.46h.5a1.79 1.79 0 0 1 1 .27.66.66 0 0 1 .32.52.58.58 0 0 1 0 .29.71.71 0 0 1-.19.23 1.23 1.23 0 0 1-.24.13 1.58 1.58 0 0 1-.31.1 2.21 2.21 0 0 1-.48 0H232a1.77 1.77 0 0 1-1-.27.64.64 0 0 1-.32-.52.58.58 0 0 1 0-.29.66.66 0 0 1 .18-.23 1.38 1.38 0 0 1 .25-.13l.31-.1a2.12 2.12 0 0 1 .52 0Zm0 .18a1.72 1.72 0 0 0-.52.07 1.25 1.25 0 0 0-.38.15.4.4 0 0 0-.04.14.37.37 0 0 0-.07.27.54.54 0 0 0 .36.45 1.89 1.89 0 0 0 .81.17h.44a2.18 2.18 0 0 0 .52-.07 1.55 1.55 0 0 0 .38-.16.53.53 0 0 0 .13-.13.42.42 0 0 0 .07-.27.53.53 0 0 0-.37-.45 1.84 1.84 0 0 0-.8-.16ZM233.42 66.47l-.07-1.32h-.08a.22.22 0 0 1-.1 0 .08.08 0 0 1 0-.07.09.09 0 0 1 0-.06h.37l.1 1.66h-.3c-.38-.35-.77-.69-1.16-1l-.4-.32a1.72 1.72 0 0 0-.22-.12h-.19a.63.63 0 0 0-.45.18.54.54 0 0 0-.17.43.68.68 0 0 0 .17.4.75.75 0 0 0 .38.23s.07 0 .08 0v.06a.09.09 0 0 1-.06 0 .8.8 0 0 1-.32-.11.84.84 0 0 1-.32-.3.82.82 0 0 1-.13-.39.66.66 0 0 1 .23-.55.81.81 0 0 1 .57-.23.69.69 0 0 1 .25 0 .9.9 0 0 1 .26.13 5.11 5.11 0 0 1 .43.33c.48.41.86.74 1.13 1ZM233.28 64l-.07-1.32h-.08a.18.18 0 0 1-.11 0 .09.09 0 0 1 0-.06.09.09 0 0 1 0-.07h.37l.1 1.66h-.3c-.38-.35-.77-.69-1.16-1l-.4-.32a1.48 1.48 0 0 0-.22-.11h-.19a.6.6 0 0 0-.44.17.52.52 0 0 0-.18.43.68.68 0 0 0 .17.4.78.78 0 0 0 .39.23.08.08 0 0 1 .07 0 .05.05 0 0 1 0 .05.06.06 0 0 1 0 .06.09.09 0 0 1-.06 0 .72.72 0 0 1-.31-.11.86.86 0 0 1-.33-.3.79.79 0 0 1-.13-.39.71.71 0 0 1 .23-.55.81.81 0 0 1 .57-.23.93.93 0 0 1 .25 0 1.26 1.26 0 0 1 .26.13 4.29 4.29 0 0 1 .43.34c.48.4.86.73 1.12 1ZM231.53 59.92h.47a1.74 1.74 0 0 1 1 .26.6.6 0 0 1 .27.8.58.58 0 0 1-.18.23 1.23 1.23 0 0 1-.24.13 1.82 1.82 0 0 1-.31.1 2.21 2.21 0 0 1-.48.05h-.49a1.74 1.74 0 0 1-1-.27.66.66 0 0 1-.33-.52.67.67 0 0 1 .06-.28.66.66 0 0 1 .18-.23 1.1 1.1 0 0 1 .25-.13 2.63 2.63 0 0 1 .3-.1 2.27 2.27 0 0 1 .5-.04Zm0 .17a1.77 1.77 0 0 0-.52.07 1.18 1.18 0 0 0-.37.15.44.44 0 0 0-.14.13.48.48 0 0 0-.07.26.55.55 0 0 0 .37.45 1.85 1.85 0 0 0 .8.17h.44a2.18 2.18 0 0 0 .52-.07 1.73 1.73 0 0 0 .38-.16.53.53 0 0 0 .13-.13.46.46 0 0 0 .07-.26.53.53 0 0 0-.37-.45 1.84 1.84 0 0 0-.8-.16ZM231.93 58.71a1.92 1.92 0 0 1-.42-.33.67.67 0 0 1-.15-.37.57.57 0 0 1 .24-.49 1 1 0 0 1 .64-.21 1.26 1.26 0 0 1 .65.19.63.63 0 0 1 .19 1 .91.91 0 0 1-.47.3 2.72 2.72 0 0 1-.89.14 1.82 1.82 0 0 1-.7-.13 1.43 1.43 0 0 1-.45-.26 1.51 1.51 0 0 1-.33-.38 1.07 1.07 0 0 1-.14-.47.42.42 0 0 1 .06-.28.11.11 0 0 1 .09 0h.07a.09.09 0 0 1 0 .06v.06a.47.47 0 0 0 0 .21 1 1 0 0 0 .43.72 1.51 1.51 0 0 0 1 .33Zm.33 0a1.2 1.2 0 0 0 .6-.25.49.49 0 0 0 .14-.46.54.54 0 0 0-.23-.39.91.91 0 0 0-.54-.16.77.77 0 0 0-.51.17.41.41 0 0 0-.18.36.56.56 0 0 0 .22.38 1.88 1.88 0 0 0 .5.31ZM232.86 56.43l-.08-1.31h-.07a.18.18 0 0 1-.11 0 .09.09 0 0 1 0-.06.06.06 0 0 1 0-.06.13.13 0 0 1 .1 0h.3l.09 1.65h-.29c-.38-.35-.76-.68-1.15-1-.19-.15-.32-.26-.41-.32a.9.9 0 0 0-.22-.11.58.58 0 0 0-.19 0 .57.57 0 0 0-.43.17.52.52 0 0 0-.18.43.63.63 0 0 0 .17.39.75.75 0 0 0 .38.23.15.15 0 0 1 .08 0s0 0 0 .06a.07.07 0 0 1-.06 0 .75.75 0 0 1-.32-.1.84.84 0 0 1-.32-.3.79.79 0 0 1-.13-.38.71.71 0 0 1 .23-.55.81.81 0 0 1 .57-.23 1 1 0 0 1 .25 0l.26.13q.13.09.42.33c.48.4.86.73 1.12 1ZM231.17 52.51a1.28 1.28 0 0 1 .42.31.67.67 0 0 1 .16.37.64.64 0 0 1-.1.35.81.81 0 0 1-.33.26 1.23 1.23 0 0 1-.47.09 1.21 1.21 0 0 1-.67-.19.64.64 0 0 1-.33-.52.62.62 0 0 1 .15-.42 1 1 0 0 1 .47-.29 2.84 2.84 0 0 1 .93-.14 1.79 1.79 0 0 1 .7.12 1.63 1.63 0 0 1 .38.22 1.67 1.67 0 0 1 .31.34 1.14 1.14 0 0 1 .17.53.43.43 0 0 1-.06.29.1.1 0 0 1-.09.06.09.09 0 0 1-.07 0 .06.06 0 0 1 0-.06v-.07a.34.34 0 0 0 0-.18 1 1 0 0 0-.41-.74 1.42 1.42 0 0 0-.92-.31Zm-.33 0a1.39 1.39 0 0 0-.63.27.49.49 0 0 0-.16.37.52.52 0 0 0 .24.38.88.88 0 0 0 .55.16.79.79 0 0 0 .52-.16.44.44 0 0 0 .19-.37.4.4 0 0 0-.09-.24.72.72 0 0 0-.24-.21 2.32 2.32 0 0 0-.38-.17ZM86.8 55.38l-.92.77a6 6 0 0 1-2 2.77 6.88 6.88 0 0 1-.81.57c-.22.13-.45.25-.69.37l-.22-.29a2.29 2.29 0 0 0 .09-.28 13.5 13.5 0 0 0 .51-2h-13a3 3 0 0 1-.59 2.14.13.13 0 0 1 0 .06l-.13.14a1.38 1.38 0 0 1-1.58.29.31.31 0 0 1-.12-.05.93.93 0 0 1-.65-.82A1.58 1.58 0 0 1 67 57.9a7.74 7.74 0 0 0 .62-1.5 4.8 4.8 0 0 0 .15-.63 3.89 3.89 0 0 0-.08-1.66H68a7 7 0 0 1 1.19 1.56h13.32l.93-1 2.59.52ZM85.55 69.78v1.48H67.08v-1.48h5.11a6.72 6.72 0 0 1-1.07-1.27 2.39 2.39 0 0 1-.12-.21 2.31 2.31 0 0 0-1.11-.79v-.39c.69 0 1.48 0 2.38.1a2.4 2.4 0 0 1 1.58.6 1.66 1.66 0 0 1 .32.38 1.27 1.27 0 0 1-.5 1.58h4.1a11.46 11.46 0 0 0 1-1.27 10.79 10.79 0 0 0 .81-1.39h3.07l-1.26 1.28-.12.11a9.38 9.38 0 0 1-1.74 1.27Z" />
    <path class="be56b7a5-0e8f-4c79-bc18-92537c81957e" d="m88.33 60.8-3-.76a7.51 7.51 0 0 0 2.25-3l3.08-2.6-4.57-.93v-.85h1.46l.11-4.84h-7.2l.05-1.74H73.2l-.06 1.74h-6.86l-.16 4.63h-.87l.52 2.07a2.42 2.42 0 0 1 0 1.46 9.7 9.7 0 0 1-.44 1.16 3.05 3.05 0 0 0-.51 2.17 2.64 2.64 0 0 0 1.93 2.2 3.14 3.14 0 0 0 .58.16l-.21 6.42h-1.88L65.07 73h22.35l.11-4.86h-1.81l.12-5.19Z" />
    <path class="b4d7c226-bf86-4479-b612-092dae0d39a8" d="M68.15 49.47h6.86l.05-1.74h3.49l-.05 1.74h7.2l-.04 1.54h-7.21l-.04 1.55h5.75l-.03 1.55H69.35l.05-1.55h5.52l.05-1.55h-6.88l.06-1.54zM70.94 60.55l.05-1.57h10.98l-.04 1.57H70.94zM83.84 61.43l-.51-.13-1.86-.46-.31.46-.33.51-.19.3h-8.5v-1h-2.91l-.18 5.69H72v-.38h8.75v.38h3.06l.11-4.51a3.64 3.64 0 0 1 .7-.69Zm-3 3.33h-8.78v-1.28h8.73ZM181.41 48l-1.91-.5-1.09 1.16h-2v-1h-2.71l.41 16.83c-.14 3.42-.54 5.78-1.19 7.1l.23.29a10.58 10.58 0 0 0 2.66-3.26 8.91 8.91 0 0 0 1-3.93l-.08-3.24H179l.19 6.88a1 1 0 0 1-.78.79h-2.16v.29a3.54 3.54 0 0 1 2 2c.15.13.31.27.47.39a3.85 3.85 0 0 0 1.07 0 5.37 5.37 0 0 0 1.07-.26 1.85 1.85 0 0 0 1.34-1.39l-.58-20.42a5.66 5.66 0 0 1 .86-1.45Zm-2.48 12h-2.26l-.1-3.9h2.26Zm-.15-5.65h-2.26l-.1-4.07h2.25Z" />
    <path class="be56b7a5-0e8f-4c79-bc18-92537c81957e" d="m194.82 70.06 2.37-1.84-3.06-1a14.56 14.56 0 0 1-2.46-1 16.86 16.86 0 0 0 2.11-5.47l2.13-2.22-1.51-.43a3.56 3.56 0 0 0 .58-2.19v-.69l-.59-.48a3.88 3.88 0 0 0-1.72-.85l-.13-3.72c.26-.29.5-.56.72-.83l1.57-1.87-7.14-1.87-.4.72h-5.91l-2.58-.67-.55.59v-.15h-6.55l.42 18.43c-.17 3.94-.66 5.69-1.05 6.46l-.41.85 2.16 2.73 1.64-1.36a12.55 12.55 0 0 0 1.67-1.67 1 1 0 0 1 .21.35l.14.46 1.35 1.15h.69a4.21 4.21 0 0 0 .62 0 7.5 7.5 0 0 0 2.24-.37l.41.35 1.19-.43a18.57 18.57 0 0 0 4.23-2.04 18.25 18.25 0 0 0 4.79 2.52l4.56 1.62-2.11-3.87c-.22-.39-.3-.68.37-1.21Z" />
    <path class="b4d7c226-bf86-4479-b612-092dae0d39a8" d="m183.49 53.53-.16-5.61h2.59v.77h2.14l.64-1.16 2.94.77c-.21.27-.44.54-.7.83s-.38.49-.37.62l.16 5c0 .59.3.81.82.68a1.6 1.6 0 0 1 1.48.39 1.92 1.92 0 0 1-.59 1.64 2.82 2.82 0 0 1-1.82.5 2.54 2.54 0 0 1-1.59-.29 1.32 1.32 0 0 1-.65-.81 2.27 2.27 0 0 1-.08-.55l-.2-6.11H186l.09 2.8a5.91 5.91 0 0 1-.81 3.21 5.5 5.5 0 0 1-1.48 1.65 5.62 5.62 0 0 1-.79.46l-.23-.19a1.82 1.82 0 0 0 .11-.3 13 13 0 0 0 .6-4.3ZM193.5 68.79a16.27 16.27 0 0 1-4.4-2.17A15.28 15.28 0 0 0 192 60l.5-.53.14-.15-3.08-.88-.91 1-.08.09-5.53.11v1.56h.96a11 11 0 0 0 1 4.01 13.81 13.81 0 0 0 1 1.81 17.78 17.78 0 0 1-2 2.4 22.32 22.32 0 0 1-2 1.94l.24.2c.62-.23 1.22-.48 1.78-.75a13.32 13.32 0 0 0 3.25-2.12A14.6 14.6 0 0 0 192.7 72a2.26 2.26 0 0 1 .8-3.21Zm-6.38-3.94a10.19 10.19 0 0 1-2.38-3.72h3.51a14.58 14.58 0 0 1-1.13 3.72Z" />
    <path class="f7c9f9d9-0c88-4ea2-936a-b5a6300e5ec1" d="m223.07 27.38-.36-7h2.74l-.21-4h-.16a9.05 9.05 0 0 1-1-.05l-1.62-.21-.34-6.65 2 .14h.19a6.88 6.88 0 0 0 2.54-.45 3.28 3.28 0 0 0 1.43-.88l.52-.68h5.74l.74 12.76H238l.42 7Z" />
    <path class="fc448fd8-1155-4dc5-be02-ef1180a991a7" d="M232.82 9.25v.77h-3.8a3.91 3.91 0 0 0 .87-.77ZM232.91 10.8v.78h-8.81v-.34h.35a9.37 9.37 0 0 0 2.9-.44ZM233 12.37l.04.77h-8.82l-.04-.77H233zM233.09 13.93l.04.78h-8.83l-.04-.78h8.83zM233.18 15.49l.04.79h-6.1l-.04-.79h6.1zM233.27 17.06l.04.79h-6.1l-.05-.79h6.11zM233.36 18.63l.04.79h-6.11l-.04-.79h6.11zM233.45 20.21l.04.79h-6.11l-.05-.79h6.12zM236.3 23.37l.04.79H224.8l-.04-.79h11.54zM236.39 24.95l.05.79h-11.56l-.04-.79h11.55zM236.21 21.79l.04.79h-11.53l-.04-.79h11.53z" />
    <path class="f7c9f9d9-0c88-4ea2-936a-b5a6300e5ec1" d="m12.82 111.21.46-7.62h2.87l.26-4.37h-.16a9.72 9.72 0 0 1-1 0l-1.67-.23.42-7.33 2.12.16h.19a7.29 7.29 0 0 0 2.69-.49 3.82 3.82 0 0 0 1.6-1l.63-.74h6l-.76 14h2.78l-.41 7.62Z" />
    <path class="fc448fd8-1155-4dc5-be02-ef1180a991a7" d="m25.21 91.37-.05.84h-4a4.55 4.55 0 0 0 1-.84ZM25.11 93.07l-.05.85h-9.21v-.38h.36a9.8 9.8 0 0 0 3.09-.48ZM25.02 94.78l-.05.85h-9.23l.05-.85h9.23zM24.92 96.48l-.05.86h-9.23l.05-.86h9.23zM24.82 98.19l-.04.87H18.4l.05-.87h6.37zM24.73 99.92l-.05.86H18.3l.04-.86h6.39zM24.63 101.63l-.04.87h-6.4l.05-.87h6.39zM24.54 103.36l-.05.87h-6.4l.05-.87h6.4zM27.14 106.82l-.05.86H15.01l.06-.86h12.07zM27.05 108.55l-.05.86H14.91l.05-.86h12.09zM27.23 105.09l-.04.86H15.12l.05-.86h12.06z" />
    <path d="M129.59 84.77c-15.48 0-27.91-11-27.71-24.25.2-13.1 12.63-23.62 27.71-23.62s27.52 10.52 27.72 23.62c.19 13.29-12.24 24.25-27.72 24.25Z" style="stroke:#c1cfe9;stroke-miterlimit:10;fill:none" />
    <path d="M155.81 60.52c.18 12.59-11.56 22.93-26.22 22.93s-26.39-10.34-26.21-22.93c.17-12.42 11.91-22.36 26.21-22.36s26.05 9.94 26.22 22.36Z" style="fill:#c1cfe9" />
    <path d="M153.38 60.52c.15 11.42-10.5 20.78-23.79 20.78s-23.93-9.36-23.78-20.78 10.79-20.31 23.78-20.31 23.64 9.04 23.79 20.31Z" style="fill:#9eb3dc" />
    <path class="a9b38519-b764-497b-b5e4-aaa1be6dee9d" d="M135.2 60.13s-1-6.45-9.82-7.09a10.31 10.31 0 0 0-8.17 2.64 8.79 8.79 0 0 0-2.8 6.34l-.12 14.46a26.06 26.06 0 0 0 15.3 4.82 26.86 26.86 0 0 0 9.29-1.63l-2.56-13.6Z" />
    <path d="M148.73 67.23a.23.23 0 0 1-.41 0c-.24-.4-.88-.85-2.59-.88-1.3-.32-2.52-.59-3.67-.81l-.85-.15c-6.43-1.17-10.18-.78-12.45-.24h-.27l-1-.59 2-.19a3.12 3.12 0 0 0 .44-.09 9.28 9.28 0 0 0 2.33-1.18l1.79-1.28a1.68 1.68 0 0 1 1.12-.3c13.08 1.37 13.83 4.4 13.56 5.71Z" style="fill:#f5a827" />
    <path d="M145.73 66.39h-.14c-2.88 0-8.33.64-9.35.76h-.17l-7.46-2a.74.74 0 0 0 .33 0c2.29-.51 6.17-.8 12.27.29l.85.15c1.15.21 2.37.48 3.67.8Z" style="fill:#7b4020" />
    <path d="M125.51 59.15c1.2 1.48 1 1.42 0 2.76a1.65 1.65 0 0 1-1 .67 1.6 1.6 0 0 1-2-1.84c.35-1.44 2.11-2.68 3-1.59Z" style="fill:#040000" />
</svg>