<svg xmlns="http://www.w3.org/2000/svg" viewBox="0 0 92.33 92.33">
    <defs>
        <style>.cls-1{fill:#467abe;}.cls-2{fill:#fff;}.cls-3{fill:#f5a827;}.cls-4{fill:#7b4020;}.cls-5{fill:#040000;}</style>
    </defs>
    <circle class="cls-1" cx="46.17" cy="46.17" r="46.17" />
    <path class="cls-2" d="M57.06,45.28s-2-14.56-19.11-16c-7.6-.64-12.64,2.4-15.89,6a21.18,21.18,0,0,0-5.34,14.27V81.72a46.2,46.2,0,0,0,47.29,7L59.19,58.6Z" />
    <path class="cls-3" d="M83.17,61.18a.42.42,0,0,1-.79.08c-.45-.88-1.69-1.89-5-1.94h0q-3.76-1.08-7.09-1.81c-.56-.13-1.1-.25-1.63-.35-12.45-2.6-19.72-1.74-24.11-.52l-.3-.09-.22,0-1.89-1.33L46,54.74a3.24,3.24,0,0,0,.87-.2,16.69,16.69,0,0,0,4.5-2.64L54.81,49A3,3,0,0,1,57,48.36h0C82.33,51.47,83.8,58.26,83.17,61.18Z" />
    <path class="cls-4" d="M77.38,59.32h-.27C71.54,59.31,61,60.74,59,61l-.33,0L44.26,56.55a1.34,1.34,0,0,0,.63,0c4.44-1.14,12-1.79,23.77.64.54.11,1.08.22,1.63.35Q73.62,58.25,77.38,59.32Z" />
    <path class="cls-5" d="M38.23,43.08c2.34,3.32,1.93,3.2,0,6.21a3.28,3.28,0,0,1-2,1.5,3.35,3.35,0,0,1-3.84-4.13C33.08,43.41,36.5,40.62,38.23,43.08Z" />
</svg>